<?xml version="1.0" encoding="UTF-8"?>
<!DOCTYPE svg PUBLIC "-//W3C//DTD SVG 1.1//EN" "http://www.w3.org/Graphics/SVG/1.1/DTD/svg11.dtd">
<svg xmlns="http://www.w3.org/2000/svg" version="1.1" width="400px" height="272px" style="shape-rendering:geometricPrecision; text-rendering:geometricPrecision; image-rendering:optimizeQuality; fill-rule:evenodd; clip-rule:evenodd" xmlns:xlink="http://www.w3.org/1999/xlink">
<g><path style="opacity:1" fill="#3e50b3" d="M -0.5,-0.5 C 132.833,-0.5 266.167,-0.5 399.5,-0.5C 399.5,90.1667 399.5,180.833 399.5,271.5C 266.167,271.5 132.833,271.5 -0.5,271.5C -0.5,180.833 -0.5,90.1667 -0.5,-0.5 Z"/></g>
<g><path style="opacity:1" fill="#8f99d2" d="M 208.5,9.5 C 207.833,9.5 207.167,9.5 206.5,9.5C 203.763,9.40132 201.096,9.73465 198.5,10.5C 198.611,9.88258 198.944,9.38258 199.5,9C 202.696,8.19549 205.696,8.36216 208.5,9.5 Z"/></g>
<g><path style="opacity:1" fill="#fafafb" d="M 206.5,9.5 C 205.564,13.7352 205.231,18.0685 205.5,22.5C 204.094,22.9731 203.427,23.9731 203.5,25.5C 203.204,27.403 202.537,29.0697 201.5,30.5C 200.463,31.9303 199.796,33.597 199.5,35.5C 198.326,36.5137 197.66,37.847 197.5,39.5C 197.167,40.8333 196.833,42.1667 196.5,43.5C 194.273,44.4006 193.273,46.0672 193.5,48.5C 192.463,49.9303 191.796,51.597 191.5,53.5C 191.5,53.8333 191.5,54.1667 191.5,54.5C 189.273,55.4006 188.273,57.0672 188.5,59.5C 187.833,61.5 187.167,63.5 186.5,65.5C 185.094,65.9731 184.427,66.9731 184.5,68.5C 184.167,69.8333 183.833,71.1667 183.5,72.5C 182.094,72.9731 181.427,73.9731 181.5,75.5C 181.672,76.4916 181.338,77.1583 180.5,77.5C 179.463,78.9303 178.796,80.597 178.5,82.5C 178.5,82.8333 178.5,83.1667 178.5,83.5C 177.094,83.9731 176.427,84.9731 176.5,86.5C 176.167,87.8333 175.833,89.1667 175.5,90.5C 173.273,91.4006 172.273,93.0672 172.5,95.5C 170.416,98.0534 169.083,101.053 168.5,104.5C 168.5,105.167 168.5,105.833 168.5,106.5C 166.952,106.821 166.285,107.821 166.5,109.5C 165.596,110.209 165.263,111.209 165.5,112.5C 170.316,113.65 175.316,113.816 180.5,113C 181.337,111.989 181.67,110.822 181.5,109.5C 181.402,107.447 182.069,105.78 183.5,104.5C 185.074,102.898 185.741,100.898 185.5,98.5C 186.537,97.0697 187.204,95.403 187.5,93.5C 187.833,93.5 188.167,93.5 188.5,93.5C 194.167,93.5 199.833,93.5 205.5,93.5C 205.182,110.244 205.515,126.911 206.5,143.5C 204.435,143.483 202.435,143.15 200.5,142.5C 198.973,139.932 196.639,138.599 193.5,138.5C 192.313,136.025 190.313,135.025 187.5,135.5C 187.158,134.662 186.492,134.328 185.5,134.5C 185.027,133.094 184.027,132.427 182.5,132.5C 181.508,132.672 180.842,132.338 180.5,131.5C 180.027,130.094 179.027,129.427 177.5,129.5C 175.597,129.204 173.93,128.537 172.5,127.5C 172.027,126.094 171.027,125.427 169.5,125.5C 168.313,123.025 166.313,122.025 163.5,122.5C 162.486,121.326 161.153,120.66 159.5,120.5C 159.027,119.094 158.027,118.427 156.5,118.5C 155.508,118.672 154.842,118.338 154.5,117.5C 152.71,115.728 151.377,113.728 150.5,111.5C 150.167,108.167 149.833,104.833 149.5,101.5C 149.784,95.5827 149.117,89.916 147.5,84.5C 146.824,76.4622 145.824,68.4622 144.5,60.5C 144.265,53.6459 143.598,46.9793 142.5,40.5C 142.5,37.1667 142.5,33.8333 142.5,30.5C 144.38,30.7709 145.713,30.1042 146.5,28.5C 150.162,28.2766 153.495,27.2766 156.5,25.5C 156.842,24.6618 157.508,24.3284 158.5,24.5C 161.746,23.9459 164.746,22.9459 167.5,21.5C 170.916,21.4725 173.916,20.4725 176.5,18.5C 176.833,18.5 177.167,18.5 177.5,18.5C 179.403,18.2041 181.07,17.5375 182.5,16.5C 183.833,15.8333 185.167,15.1667 186.5,14.5C 189.481,14.8176 191.815,13.8176 193.5,11.5C 195.216,11.3713 196.883,11.038 198.5,10.5C 201.096,9.73465 203.763,9.40132 206.5,9.5 Z"/></g>
<g><path style="opacity:1" fill="#7e89cb" d="M 208.5,9.5 C 212.708,9.677 216.374,11.0103 219.5,13.5C 215.605,12.5376 211.939,11.2043 208.5,9.5 Z"/></g>
<g><path style="opacity:1" fill="#d3d6ec" d="M 208.5,30.5 C 207.442,29.3998 206.608,28.0664 206,26.5C 205.329,25.7476 204.496,25.4142 203.5,25.5C 203.427,23.9731 204.094,22.9731 205.5,22.5C 206.321,19.3586 206.821,16.0252 207,12.5C 207.302,18.5331 207.802,24.5331 208.5,30.5 Z"/></g>
<g><path style="opacity:1" fill="#e8eaf3" d="M 206.5,9.5 C 207.167,9.5 207.833,9.5 208.5,9.5C 211.939,11.2043 215.605,12.5376 219.5,13.5C 219.833,13.5 220.167,13.5 220.5,13.5C 222.509,15.0652 224.843,16.0652 227.5,16.5C 228.167,16.5 228.833,16.5 229.5,16.5C 231.617,18.6545 234.284,19.6545 237.5,19.5C 239.214,20.7384 241.214,21.405 243.5,21.5C 245.509,23.0652 247.843,24.0652 250.5,24.5C 250.833,24.5 251.167,24.5 251.5,24.5C 254.084,26.4725 257.084,27.4725 260.5,27.5C 260.5,28.1667 260.833,28.5 261.5,28.5C 263.438,30.1628 265.772,30.8294 268.5,30.5C 268.5,32.5 268.5,34.5 268.5,36.5C 267.778,36.9175 267.278,37.5842 267,38.5C 266.502,41.4816 266.335,44.4816 266.5,47.5C 265.902,52.813 265.569,58.1463 265.5,63.5C 264.318,69.3015 263.652,75.3015 263.5,81.5C 261.585,87.8985 260.585,94.5652 260.5,101.5C 259.92,105.81 259.586,110.143 259.5,114.5C 258.167,115.5 256.833,116.5 255.5,117.5C 253.326,117.75 251.659,118.75 250.5,120.5C 246.701,121.421 243.368,123.088 240.5,125.5C 238.847,125.66 237.514,126.326 236.5,127.5C 234.973,127.427 233.973,128.094 233.5,129.5C 232.391,129.557 231.391,129.89 230.5,130.5C 228.973,130.427 227.973,131.094 227.5,132.5C 225.973,132.427 224.973,133.094 224.5,134.5C 221.279,134.896 218.612,136.229 216.5,138.5C 215.486,139.674 214.153,140.34 212.5,140.5C 210.973,140.427 209.973,141.094 209.5,142.5C 208.391,142.557 207.391,142.89 206.5,143.5C 205.515,126.911 205.182,110.244 205.5,93.5C 211.259,93.2143 216.925,93.5476 222.5,94.5C 223.537,95.9303 224.204,97.597 224.5,99.5C 224.752,103.327 226.085,106.66 228.5,109.5C 229.338,109.842 229.672,110.508 229.5,111.5C 234.396,113.446 239.729,114.113 245.5,113.5C 245.737,112.209 245.404,111.209 244.5,110.5C 244.5,109.833 244.167,109.5 243.5,109.5C 242.596,108.791 242.263,107.791 242.5,106.5C 242.245,104.033 241.245,102.033 239.5,100.5C 238.01,98.419 237.01,96.0857 236.5,93.5C 236.573,91.9731 235.906,90.9731 234.5,90.5C 234.5,89.8333 234.5,89.1667 234.5,88.5C 234.573,86.9731 233.906,85.9731 232.5,85.5C 229.687,78.387 226.687,71.387 223.5,64.5C 223.573,62.9731 222.906,61.9731 221.5,61.5C 221.5,60.8333 221.5,60.1667 221.5,59.5C 221.245,57.0326 220.245,55.0326 218.5,53.5C 218.245,51.0326 217.245,49.0326 215.5,47.5C 215.5,47.1667 215.5,46.8333 215.5,46.5C 215.573,44.9731 214.906,43.9731 213.5,43.5C 213.5,42.8333 213.5,42.1667 213.5,41.5C 213.245,39.0326 212.245,37.0326 210.5,35.5C 210.573,33.9731 209.906,32.9731 208.5,32.5C 208.5,31.8333 208.5,31.1667 208.5,30.5C 207.802,24.5331 207.302,18.5331 207,12.5C 206.821,16.0252 206.321,19.3586 205.5,22.5C 205.231,18.0685 205.564,13.7352 206.5,9.5 Z"/></g>
<g><path style="opacity:1" fill="#99a1d5" d="M 193.5,11.5 C 191.815,13.8176 189.481,14.8176 186.5,14.5C 188.604,13.0883 190.937,12.0883 193.5,11.5 Z"/></g>
<g><path style="opacity:1" fill="#818acb" d="M 220.5,13.5 C 223.491,13.1663 225.824,14.1663 227.5,16.5C 224.843,16.0652 222.509,15.0652 220.5,13.5 Z"/></g>
<g><path style="opacity:1" fill="#b8bee2" d="M 182.5,16.5 C 181.07,17.5375 179.403,18.2041 177.5,18.5C 178.635,16.7868 180.302,16.1201 182.5,16.5 Z"/></g>
<g><path style="opacity:1" fill="#949cd3" d="M 229.5,16.5 C 232.397,17.129 235.064,18.129 237.5,19.5C 234.284,19.6545 231.617,18.6545 229.5,16.5 Z"/></g>
<g><path style="opacity:1" fill="#bdc2e4" d="M 176.5,18.5 C 173.916,20.4725 170.916,21.4725 167.5,21.5C 170.145,19.6896 173.145,18.6896 176.5,18.5 Z"/></g>
<g><path style="opacity:1" fill="#747fc7" d="M 243.5,21.5 C 246.491,21.1663 248.824,22.1663 250.5,24.5C 247.843,24.0652 245.509,23.0652 243.5,21.5 Z"/></g>
<g><path style="opacity:1" fill="#868fce" d="M 167.5,21.5 C 164.746,22.9459 161.746,23.9459 158.5,24.5C 161.008,22.446 164.008,21.446 167.5,21.5 Z"/></g>
<g><path style="opacity:1" fill="#7f89cb" d="M 251.5,24.5 C 254.855,24.6896 257.855,25.6896 260.5,27.5C 257.084,27.4725 254.084,26.4725 251.5,24.5 Z"/></g>
<g><path style="opacity:1" fill="#9ca3d7" d="M 156.5,25.5 C 153.495,27.2766 150.162,28.2766 146.5,28.5C 149.505,26.7234 152.838,25.7234 156.5,25.5 Z"/></g>
<g><path style="opacity:1" fill="#3e4fb2" d="M 203.5,25.5 C 204.496,25.4142 205.329,25.7476 206,26.5C 206.608,28.0664 207.442,29.3998 208.5,30.5C 208.5,31.1667 208.5,31.8333 208.5,32.5C 208.427,34.0269 209.094,35.0269 210.5,35.5C 210.755,37.9674 211.755,39.9674 213.5,41.5C 213.5,42.1667 213.5,42.8333 213.5,43.5C 213.427,45.0269 214.094,46.0269 215.5,46.5C 215.5,46.8333 215.5,47.1667 215.5,47.5C 215.755,49.9674 216.755,51.9674 218.5,53.5C 218.755,55.9674 219.755,57.9674 221.5,59.5C 221.5,60.1667 221.5,60.8333 221.5,61.5C 221.427,63.0269 222.094,64.0269 223.5,64.5C 226.687,71.387 229.687,78.387 232.5,85.5C 232.427,87.0269 233.094,88.0269 234.5,88.5C 234.5,89.1667 234.5,89.8333 234.5,90.5C 234.427,92.0269 235.094,93.0269 236.5,93.5C 237.01,96.0857 238.01,98.419 239.5,100.5C 239.755,102.967 240.755,104.967 242.5,106.5C 242.263,107.791 242.596,108.791 243.5,109.5C 239.627,111.43 235.294,112.097 230.5,111.5C 230.167,111.5 229.833,111.5 229.5,111.5C 229.672,110.508 229.338,109.842 228.5,109.5C 228.248,105.673 226.915,102.34 224.5,99.5C 224.204,97.597 223.537,95.9303 222.5,94.5C 222.672,93.5084 222.338,92.8417 221.5,92.5C 216.01,91.8339 210.343,91.5005 204.5,91.5C 198.458,91.5045 192.792,92.1712 187.5,93.5C 185.787,94.6354 185.12,96.302 185.5,98.5C 183.926,100.102 183.259,102.102 183.5,104.5C 182.069,105.78 181.402,107.447 181.5,109.5C 180.833,110.167 180.167,110.833 179.5,111.5C 174.706,112.097 170.373,111.43 166.5,109.5C 167.906,109.027 168.573,108.027 168.5,106.5C 168.5,105.833 168.5,105.167 168.5,104.5C 169.931,103.097 171.098,101.431 172,99.5C 172.49,98.2068 172.657,96.8734 172.5,95.5C 173.89,94.1007 174.89,92.4341 175.5,90.5C 175.833,89.1667 176.167,87.8333 176.5,86.5C 177.906,86.0269 178.573,85.0269 178.5,83.5C 178.5,83.1667 178.5,82.8333 178.5,82.5C 180.213,81.3646 180.88,79.698 180.5,77.5C 181.338,77.1583 181.672,76.4916 181.5,75.5C 182.906,75.0269 183.573,74.0269 183.5,72.5C 183.833,71.1667 184.167,69.8333 184.5,68.5C 185.906,68.0269 186.573,67.0269 186.5,65.5C 187.167,63.5 187.833,61.5 188.5,59.5C 189.89,58.1007 190.89,56.4341 191.5,54.5C 191.5,54.1667 191.5,53.8333 191.5,53.5C 193.213,52.3646 193.88,50.698 193.5,48.5C 194.89,47.1007 195.89,45.4341 196.5,43.5C 196.833,42.1667 197.167,40.8333 197.5,39.5C 199.176,38.8166 199.843,37.4832 199.5,35.5C 201.213,34.3646 201.88,32.698 201.5,30.5C 202.537,29.0697 203.204,27.403 203.5,25.5 Z"/></g>
<g><path style="opacity:1" fill="#adb4de" d="M 261.5,28.5 C 264.067,28.7215 266.401,29.3882 268.5,30.5C 265.772,30.8294 263.438,30.1628 261.5,28.5 Z"/></g>
<g><path style="opacity:1" fill="#c2c7e6" d="M 146.5,28.5 C 145.713,30.1042 144.38,30.7709 142.5,30.5C 142.5,33.8333 142.5,37.1667 142.5,40.5C 141.518,37.0381 141.185,33.3714 141.5,29.5C 143.216,29.3713 144.883,29.038 146.5,28.5 Z"/></g>
<g><path style="opacity:1" fill="#868fce" d="M 201.5,30.5 C 201.88,32.698 201.213,34.3646 199.5,35.5C 199.796,33.597 200.463,31.9303 201.5,30.5 Z"/></g>
<g><path style="opacity:1" fill="#7a85c9" d="M 208.5,32.5 C 209.906,32.9731 210.573,33.9731 210.5,35.5C 209.094,35.0269 208.427,34.0269 208.5,32.5 Z"/></g>
<g><path style="opacity:1" fill="#818acc" d="M 199.5,35.5 C 199.843,37.4832 199.176,38.8166 197.5,39.5C 197.66,37.847 198.326,36.5137 199.5,35.5 Z"/></g>
<g><path style="opacity:1" fill="#9da6d7" d="M 210.5,35.5 C 212.245,37.0326 213.245,39.0326 213.5,41.5C 211.755,39.9674 210.755,37.9674 210.5,35.5 Z"/></g>
<g><path style="opacity:1" fill="#bac0e2" d="M 268.5,36.5 C 268.167,39.1667 267.833,41.8333 267.5,44.5C 267.5,45.5 267.5,46.5 267.5,47.5C 267.167,47.5 266.833,47.5 266.5,47.5C 266.335,44.4816 266.502,41.4816 267,38.5C 267.278,37.5842 267.778,36.9175 268.5,36.5 Z"/></g>
<g><path style="opacity:1" fill="#5c6abe" d="M 268.5,30.5 C 269.163,32.6413 269.497,34.9746 269.5,37.5C 269.471,40.2695 268.805,42.6028 267.5,44.5C 267.833,41.8333 268.167,39.1667 268.5,36.5C 268.5,34.5 268.5,32.5 268.5,30.5 Z"/></g>
<g><path style="opacity:1" fill="#9ca3d7" d="M 196.5,43.5 C 195.89,45.4341 194.89,47.1007 193.5,48.5C 193.273,46.0672 194.273,44.4006 196.5,43.5 Z"/></g>
<g><path style="opacity:1" fill="#858ecd" d="M 213.5,43.5 C 214.906,43.9731 215.573,44.9731 215.5,46.5C 214.094,46.0269 213.427,45.0269 213.5,43.5 Z"/></g>
<g><path style="opacity:1" fill="#838bcc" d="M 193.5,48.5 C 193.88,50.698 193.213,52.3646 191.5,53.5C 191.796,51.597 192.463,49.9303 193.5,48.5 Z"/></g>
<g><path style="opacity:1" fill="#7f8acb" d="M 215.5,47.5 C 217.245,49.0326 218.245,51.0326 218.5,53.5C 216.755,51.9674 215.755,49.9674 215.5,47.5 Z"/></g>
<g><path style="opacity:1" fill="#a1a9d9" d="M 206.5,55.5 C 205.883,55.3893 205.383,55.056 205,54.5C 204.722,55.4158 204.222,56.0825 203.5,56.5C 203.5,55.5 203.5,54.5 203.5,53.5C 205.179,53.2852 206.179,53.9519 206.5,55.5 Z"/></g>
<g><path style="opacity:1" fill="#7984c9" d="M 266.5,47.5 C 266.833,47.5 267.167,47.5 267.5,47.5C 267.473,53.0506 266.806,58.3839 265.5,63.5C 265.569,58.1463 265.902,52.813 266.5,47.5 Z"/></g>
<g><path style="opacity:1" fill="#a5acda" d="M 142.5,40.5 C 143.598,46.9793 144.265,53.6459 144.5,60.5C 144.167,60.5 143.833,60.5 143.5,60.5C 142.861,53.8523 142.527,47.1856 142.5,40.5 Z"/></g>
<g><path style="opacity:1" fill="#f5f5f9" d="M 206.5,55.5 C 206.5,55.8333 206.5,56.1667 206.5,56.5C 205.71,63.4707 205.377,70.4707 205.5,77.5C 209.012,76.9455 212.012,77.6122 214.5,79.5C 207.416,80.1255 200.75,79.4589 194.5,77.5C 194.833,76.1667 195.167,74.8333 195.5,73.5C 197.104,72.713 197.771,71.3797 197.5,69.5C 197.427,67.9731 198.094,66.9731 199.5,66.5C 200.751,64.6181 201.918,62.6181 203,60.5C 203.49,59.2068 203.657,57.8734 203.5,56.5C 204.222,56.0825 204.722,55.4158 205,54.5C 205.383,55.056 205.883,55.3893 206.5,55.5 Z"/></g>
<g><path style="opacity:1" fill="#a3abd9" d="M 191.5,54.5 C 190.89,56.4341 189.89,58.1007 188.5,59.5C 188.273,57.0672 189.273,55.4006 191.5,54.5 Z"/></g>
<g><path style="opacity:1" fill="#9aa2d6" d="M 218.5,53.5 C 220.245,55.0326 221.245,57.0326 221.5,59.5C 219.755,57.9674 218.755,55.9674 218.5,53.5 Z"/></g>
<g><path style="opacity:1" fill="#c0c5e5" d="M 203.5,56.5 C 203.657,57.8734 203.49,59.2068 203,60.5C 201.918,62.6181 200.751,64.6181 199.5,66.5C 199.77,62.6424 201.103,59.309 203.5,56.5 Z"/></g>
<g><path style="opacity:1" fill="#9098d2" d="M 208.5,61.5 C 209.906,61.9731 210.573,62.9731 210.5,64.5C 209.094,64.0269 208.427,63.0269 208.5,61.5 Z"/></g>
<g><path style="opacity:1" fill="#7e88cb" d="M 221.5,61.5 C 222.906,61.9731 223.573,62.9731 223.5,64.5C 222.094,64.0269 221.427,63.0269 221.5,61.5 Z"/></g>
<g><path style="opacity:1" fill="#e4e6f2" d="M 206.5,56.5 C 207.537,57.9303 208.204,59.597 208.5,61.5C 208.427,63.0269 209.094,64.0269 210.5,64.5C 211.694,67.4507 212.694,70.4507 213.5,73.5C 213.427,75.0269 214.094,76.0269 215.5,76.5C 215.5,76.8333 215.5,77.1667 215.5,77.5C 215.672,78.4916 215.338,79.1583 214.5,79.5C 212.012,77.6122 209.012,76.9455 205.5,77.5C 205.377,70.4707 205.71,63.4707 206.5,56.5 Z"/></g>
<g><path style="opacity:1" fill="#969fd5" d="M 186.5,65.5 C 186.573,67.0269 185.906,68.0269 184.5,68.5C 184.427,66.9731 185.094,65.9731 186.5,65.5 Z"/></g>
<g><path style="opacity:1" fill="#7b85ca" d="M 143.5,60.5 C 143.833,60.5 144.167,60.5 144.5,60.5C 145.824,68.4622 146.824,76.4622 147.5,84.5C 147.5,86.8333 147.5,89.1667 147.5,91.5C 146.187,81.2943 144.853,70.9609 143.5,60.5 Z"/></g>
<g><path style="opacity:1" fill="#7c88cb" d="M 197.5,69.5 C 197.771,71.3797 197.104,72.713 195.5,73.5C 195.66,71.847 196.326,70.5137 197.5,69.5 Z"/></g>
<g><path style="opacity:1" fill="#939bd2" d="M 183.5,72.5 C 183.573,74.0269 182.906,75.0269 181.5,75.5C 181.427,73.9731 182.094,72.9731 183.5,72.5 Z"/></g>
<g><path style="opacity:1" fill="#8d96d0" d="M 213.5,73.5 C 214.906,73.9731 215.573,74.9731 215.5,76.5C 214.094,76.0269 213.427,75.0269 213.5,73.5 Z"/></g>
<g><path style="opacity:1" fill="#b2b9df" d="M 194.5,77.5 C 200.75,79.4589 207.416,80.1255 214.5,79.5C 215.338,79.1583 215.672,78.4916 215.5,77.5C 216.167,77.5 216.5,77.8333 216.5,78.5C 213.062,79.8232 209.229,80.4898 205,80.5C 200.771,80.4898 196.938,79.8232 193.5,78.5C 193.5,77.8333 193.833,77.5 194.5,77.5 Z"/></g>
<g><path style="opacity:1" fill="#808acc" d="M 180.5,77.5 C 180.88,79.698 180.213,81.3646 178.5,82.5C 178.796,80.597 179.463,78.9303 180.5,77.5 Z"/></g>
<g><path style="opacity:1" fill="#6a77c4" d="M 193.5,78.5 C 196.938,79.8232 200.771,80.4898 205,80.5C 209.229,80.4898 213.062,79.8232 216.5,78.5C 217.404,79.209 217.737,80.209 217.5,81.5C 209.167,81.5 200.833,81.5 192.5,81.5C 192.263,80.209 192.596,79.209 193.5,78.5 Z"/></g>
<g><path style="opacity:1" fill="#939cd4" d="M 178.5,83.5 C 178.573,85.0269 177.906,86.0269 176.5,86.5C 176.427,84.9731 177.094,83.9731 178.5,83.5 Z"/></g>
<g><path style="opacity:1" fill="#9099d2" d="M 232.5,85.5 C 233.906,85.9731 234.573,86.9731 234.5,88.5C 233.094,88.0269 232.427,87.0269 232.5,85.5 Z"/></g>
<g><path style="opacity:1" fill="#b7bde1" d="M 147.5,84.5 C 149.117,89.916 149.784,95.5827 149.5,101.5C 149.167,101.5 148.833,101.5 148.5,101.5C 148.747,98.0613 148.414,94.728 147.5,91.5C 147.5,89.1667 147.5,86.8333 147.5,84.5 Z"/></g>
<g><path style="opacity:1" fill="#6371c1" d="M 221.5,92.5 C 210.321,92.1721 199.321,92.5054 188.5,93.5C 188.167,93.5 187.833,93.5 187.5,93.5C 192.792,92.1712 198.458,91.5045 204.5,91.5C 210.343,91.5005 216.01,91.8339 221.5,92.5 Z"/></g>
<g><path style="opacity:1" fill="#979fd5" d="M 175.5,90.5 C 174.89,92.4341 173.89,94.1007 172.5,95.5C 172.273,93.0672 173.273,91.4006 175.5,90.5 Z"/></g>
<g><path style="opacity:1" fill="#b9bfe2" d="M 188.5,93.5 C 199.321,92.5054 210.321,92.1721 221.5,92.5C 222.338,92.8417 222.672,93.5084 222.5,94.5C 216.925,93.5476 211.259,93.2143 205.5,93.5C 199.833,93.5 194.167,93.5 188.5,93.5 Z"/></g>
<g><path style="opacity:1" fill="#7d87ca" d="M 234.5,90.5 C 235.906,90.9731 236.573,91.9731 236.5,93.5C 235.094,93.0269 234.427,92.0269 234.5,90.5 Z"/></g>
<g><path style="opacity:1" fill="#7983c9" d="M 187.5,93.5 C 187.204,95.403 186.537,97.0697 185.5,98.5C 185.12,96.302 185.787,94.6354 187.5,93.5 Z"/></g>
<g><path style="opacity:1" fill="#8890cf" d="M 172.5,95.5 C 172.657,96.8734 172.49,98.2068 172,99.5C 171.098,101.431 169.931,103.097 168.5,104.5C 169.083,101.053 170.416,98.0534 172.5,95.5 Z"/></g>
<g><path style="opacity:1" fill="#8c95d0" d="M 263.5,81.5 C 263.199,88.2117 262.532,94.8784 261.5,101.5C 261.167,101.5 260.833,101.5 260.5,101.5C 260.585,94.5652 261.585,87.8985 263.5,81.5 Z"/></g>
<g><path style="opacity:1" fill="#b0b6de" d="M 185.5,98.5 C 185.741,100.898 185.074,102.898 183.5,104.5C 183.259,102.102 183.926,100.102 185.5,98.5 Z"/></g>
<g><path style="opacity:1" fill="#b6bbe1" d="M 224.5,99.5 C 226.915,102.34 228.248,105.673 228.5,109.5C 226.085,106.66 224.752,103.327 224.5,99.5 Z"/></g>
<g><path style="opacity:1" fill="#939bd3" d="M 239.5,100.5 C 241.245,102.033 242.245,104.033 242.5,106.5C 240.755,104.967 239.755,102.967 239.5,100.5 Z"/></g>
<g><path style="opacity:1" fill="#757fc7" d="M 168.5,106.5 C 168.573,108.027 167.906,109.027 166.5,109.5C 166.285,107.821 166.952,106.821 168.5,106.5 Z"/></g>
<g><path style="opacity:1" fill="#6977c3" d="M 166.5,109.5 C 170.373,111.43 174.706,112.097 179.5,111.5C 175.03,112.486 170.363,112.819 165.5,112.5C 165.263,111.209 165.596,110.209 166.5,109.5 Z"/></g>
<g><path style="opacity:1" fill="#6473c1" d="M 243.5,109.5 C 244.167,109.5 244.5,109.833 244.5,110.5C 242.603,111.805 240.269,112.471 237.5,112.5C 234.975,112.497 232.641,112.163 230.5,111.5C 235.294,112.097 239.627,111.43 243.5,109.5 Z"/></g>
<g><path style="opacity:1" fill="#bac0e3" d="M 150.5,111.5 C 151.377,113.728 152.71,115.728 154.5,117.5C 152.596,117.262 151.262,116.262 150.5,114.5C 150.5,113.5 150.5,112.5 150.5,111.5 Z"/></g>
<g><path style="opacity:1" fill="#c1c6e5" d="M 181.5,109.5 C 181.67,110.822 181.337,111.989 180.5,113C 175.316,113.816 170.316,113.65 165.5,112.5C 170.363,112.819 175.03,112.486 179.5,111.5C 180.167,110.833 180.833,110.167 181.5,109.5 Z"/></g>
<g><path style="opacity:1" fill="#b6bde1" d="M 244.5,110.5 C 245.404,111.209 245.737,112.209 245.5,113.5C 239.729,114.113 234.396,113.446 229.5,111.5C 229.833,111.5 230.167,111.5 230.5,111.5C 232.641,112.163 234.975,112.497 237.5,112.5C 240.269,112.471 242.603,111.805 244.5,110.5 Z"/></g>
<g><path style="opacity:1" fill="#7682c8" d="M 148.5,101.5 C 148.833,101.5 149.167,101.5 149.5,101.5C 149.833,104.833 150.167,108.167 150.5,111.5C 150.5,112.5 150.5,113.5 150.5,114.5C 148.946,110.433 148.28,106.1 148.5,101.5 Z"/></g>
<g><path style="opacity:1" fill="#6f7bc5" d="M 260.5,101.5 C 260.833,101.5 261.167,101.5 261.5,101.5C 261.665,104.85 261.498,108.183 261,111.5C 260.768,112.737 260.268,113.737 259.5,114.5C 259.586,110.143 259.92,105.81 260.5,101.5 Z"/></g>
<g><path style="opacity:1" fill="#8791cf" d="M 156.5,118.5 C 158.027,118.427 159.027,119.094 159.5,120.5C 157.973,120.573 156.973,119.906 156.5,118.5 Z"/></g>
<g><path style="opacity:1" fill="#6b76c3" d="M 255.5,117.5 C 254.514,119.408 252.848,120.408 250.5,120.5C 251.659,118.75 253.326,117.75 255.5,117.5 Z"/></g>
<g><path style="opacity:1" fill="#bcc1e4" d="M 163.5,122.5 C 166.313,122.025 168.313,123.025 169.5,125.5C 167.456,124.492 165.456,123.492 163.5,122.5 Z"/></g>
<g><path style="opacity:1" fill="#6973c3" d="M 250.5,120.5 C 250.53,121.497 250.03,122.164 249,122.5C 246.268,123.886 243.435,124.886 240.5,125.5C 243.368,123.088 246.701,121.421 250.5,120.5 Z"/></g>
<g><path style="opacity:1" fill="#8b94d0" d="M 169.5,125.5 C 171.027,125.427 172.027,126.094 172.5,127.5C 170.973,127.573 169.973,126.906 169.5,125.5 Z"/></g>
<g><path style="opacity:1" fill="#838dcd" d="M 236.5,127.5 C 236.027,128.906 235.027,129.573 233.5,129.5C 233.973,128.094 234.973,127.427 236.5,127.5 Z"/></g>
<g><path style="opacity:1" fill="#aeb4de" d="M 177.5,129.5 C 179.027,129.427 180.027,130.094 180.5,131.5C 178.973,131.573 177.973,130.906 177.5,129.5 Z"/></g>
<g><path style="opacity:1" fill="#9ca4d6" d="M 230.5,130.5 C 230.027,131.906 229.027,132.573 227.5,132.5C 227.973,131.094 228.973,130.427 230.5,130.5 Z"/></g>
<g><path style="opacity:1" fill="#939cd3" d="M 182.5,132.5 C 184.027,132.427 185.027,133.094 185.5,134.5C 183.973,134.573 182.973,133.906 182.5,132.5 Z"/></g>
<g><path style="opacity:1" fill="#7e88cb" d="M 227.5,132.5 C 227.027,133.906 226.027,134.573 224.5,134.5C 224.973,133.094 225.973,132.427 227.5,132.5 Z"/></g>
<g><path style="opacity:1" fill="#c0c5e5" d="M 187.5,135.5 C 190.313,135.025 192.313,136.025 193.5,138.5C 191.456,137.492 189.456,136.492 187.5,135.5 Z"/></g>
<g><path style="opacity:1" fill="#7b84ca" d="M 224.5,134.5 C 222.377,136.797 219.71,138.13 216.5,138.5C 218.612,136.229 221.279,134.896 224.5,134.5 Z"/></g>
<g><path style="opacity:1" fill="#bfc4e5" d="M 193.5,138.5 C 196.639,138.599 198.973,139.932 200.5,142.5C 197.669,141.921 195.336,140.588 193.5,138.5 Z"/></g>
<g><path style="opacity:1" fill="#8994d0" d="M 212.5,140.5 C 212.027,141.906 211.027,142.573 209.5,142.5C 209.973,141.094 210.973,140.427 212.5,140.5 Z"/></g>
<g><path style="opacity:1" fill="#7e88cb" d="M 200.5,142.5 C 202.435,143.15 204.435,143.483 206.5,143.5C 207.391,142.89 208.391,142.557 209.5,142.5C 208.508,144.026 207.008,144.693 205,144.5C 202.992,144.693 201.492,144.026 200.5,142.5 Z"/></g>
<g><path style="opacity:1" fill="#7c87ca" d="M 292.5,188.5 C 294.5,188.5 295.5,189.5 295.5,191.5C 294.167,190.833 293.167,189.833 292.5,188.5 Z"/></g>
<g><path style="opacity:1" fill="#cbd0e9" d="M 358.5,185.5 C 362.5,185.5 366.5,185.5 370.5,185.5C 370.5,209.167 370.5,232.833 370.5,256.5C 366.5,256.5 362.5,256.5 358.5,256.5C 358.5,232.833 358.5,209.167 358.5,185.5 Z"/></g>
<g><path style="opacity:1" fill="#fbfbfc" d="M 359.5,186.5 C 362.833,186.5 366.167,186.5 369.5,186.5C 369.5,209.5 369.5,232.5 369.5,255.5C 366.167,255.5 362.833,255.5 359.5,255.5C 359.5,232.5 359.5,209.5 359.5,186.5 Z"/></g>
<g><path style="opacity:1" fill="#f5f6fa" d="M 291.5,188.5 C 291.833,188.5 292.167,188.5 292.5,188.5C 293.167,189.833 294.167,190.833 295.5,191.5C 295.702,193.95 295.369,196.283 294.5,198.5C 291.57,199.299 288.57,199.632 285.5,199.5C 285.167,199.5 284.833,199.5 284.5,199.5C 284.167,198.833 283.833,198.167 283.5,197.5C 282.677,191.325 285.344,188.325 291.5,188.5 Z"/></g>
<g><path style="opacity:1" fill="#fafafb" d="M 51.5,191.5 C 51.2594,193.898 51.9261,195.898 53.5,197.5C 54.6414,200.254 55.9748,202.921 57.5,205.5C 57.1201,207.698 57.7868,209.365 59.5,210.5C 59.5,210.833 59.5,211.167 59.5,211.5C 60.692,218.098 63.0253,224.098 66.5,229.5C 66.5,229.833 66.5,230.167 66.5,230.5C 66.2594,232.898 66.9261,234.898 68.5,236.5C 68.5,236.833 68.5,237.167 68.5,237.5C 69.3864,238.776 70.3864,238.776 71.5,237.5C 73.777,232.669 75.4436,227.669 76.5,222.5C 76.5,222.167 76.5,221.833 76.5,221.5C 80.5052,215.509 83.1718,208.842 84.5,201.5C 84.5,201.167 84.5,200.833 84.5,200.5C 86.5837,197.947 87.917,194.947 88.5,191.5C 93.4053,190.555 98.4053,190.221 103.5,190.5C 103.5,212.167 103.5,233.833 103.5,255.5C 100.167,255.5 96.8333,255.5 93.5,255.5C 93.5,243.833 93.5,232.167 93.5,220.5C 93.5,218.5 93.5,216.5 93.5,214.5C 94.8003,211.976 94.8003,209.309 93.5,206.5C 91.244,207.421 90.244,209.088 90.5,211.5C 90.5,212.167 90.5,212.833 90.5,213.5C 88.446,216.008 87.446,219.008 87.5,222.5C 85.7868,223.635 85.1201,225.302 85.5,227.5C 84.0762,229.515 83.4095,231.848 83.5,234.5C 83.1667,234.5 82.8333,234.5 82.5,234.5C 80.9028,236.848 79.9028,239.514 79.5,242.5C 79.5,242.833 79.5,243.167 79.5,243.5C 77.3455,245.617 76.3455,248.284 76.5,251.5C 75.9332,253.03 75.2666,254.53 74.5,256C 71.3035,256.805 68.3035,256.638 65.5,255.5C 65.539,252.911 64.539,250.911 62.5,249.5C 62.6716,248.508 62.3382,247.842 61.5,247.5C 61.7406,245.102 61.0739,243.102 59.5,241.5C 59.0652,238.843 58.0652,236.509 56.5,234.5C 56.3803,231.422 55.3803,228.755 53.5,226.5C 53.5905,223.848 52.9238,221.515 51.5,219.5C 51.2041,217.597 50.5375,215.93 49.5,214.5C 49.2287,212.688 48.562,211.022 47.5,209.5C 46.5006,225.152 46.1673,240.819 46.5,256.5C 42.351,257.08 38.6843,256.414 35.5,254.5C 36.4973,233.34 36.8306,212.007 36.5,190.5C 41.5947,190.221 46.5947,190.555 51.5,191.5 Z"/></g>
<g><path style="opacity:1" fill="#6773c3" d="M 88.5,189.5 C 94.31,188.51 100.31,188.177 106.5,188.5C 106.5,211.5 106.5,234.5 106.5,257.5C 101.637,257.819 96.97,257.486 92.5,256.5C 96.5,256.5 100.5,256.5 104.5,256.5C 104.5,234.167 104.5,211.833 104.5,189.5C 99.1667,189.5 93.8333,189.5 88.5,189.5 Z"/></g>
<g><path style="opacity:1" fill="#b1b7df" d="M 291.5,188.5 C 285.344,188.325 282.677,191.325 283.5,197.5C 282.539,195.735 282.205,193.735 282.5,191.5C 284.649,187.652 287.649,186.652 291.5,188.5 Z"/></g>
<g><path style="opacity:1" fill="#8d97d1" d="M 51.5,189.5 C 46.1667,189.5 40.8333,189.5 35.5,189.5C 35.5,211.167 35.5,232.833 35.5,254.5C 38.6843,256.414 42.351,257.08 46.5,256.5C 46.8333,256.5 47.1667,256.5 47.5,256.5C 43.3656,257.485 39.0323,257.818 34.5,257.5C 34.5,234.5 34.5,211.5 34.5,188.5C 40.358,188.178 46.0247,188.511 51.5,189.5 Z"/></g>
<g><path style="opacity:1" fill="#e1e3f1" d="M 51.5,189.5 C 51.5,190.167 51.5,190.833 51.5,191.5C 46.5947,190.555 41.5947,190.221 36.5,190.5C 36.8306,212.007 36.4973,233.34 35.5,254.5C 35.5,232.833 35.5,211.167 35.5,189.5C 40.8333,189.5 46.1667,189.5 51.5,189.5 Z"/></g>
<g><path style="opacity:1" fill="#a7addb" d="M 88.5,189.5 C 88.5,190.167 88.5,190.833 88.5,191.5C 87.917,194.947 86.5837,197.947 84.5,200.5C 85.4624,196.605 86.7957,192.939 88.5,189.5 Z"/></g>
<g><path style="opacity:1" fill="#d3d6ec" d="M 88.5,189.5 C 93.8333,189.5 99.1667,189.5 104.5,189.5C 104.5,211.833 104.5,234.167 104.5,256.5C 100.5,256.5 96.5,256.5 92.5,256.5C 92.5,244.5 92.5,232.5 92.5,220.5C 92.8333,220.5 93.1667,220.5 93.5,220.5C 93.5,232.167 93.5,243.833 93.5,255.5C 96.8333,255.5 100.167,255.5 103.5,255.5C 103.5,233.833 103.5,212.167 103.5,190.5C 98.4053,190.221 93.4053,190.555 88.5,191.5C 88.5,190.833 88.5,190.167 88.5,189.5 Z"/></g>
<g><path style="opacity:1" fill="#cbcfe9" d="M 51.5,191.5 C 52.6737,192.514 53.3404,193.847 53.5,195.5C 53.5,196.167 53.5,196.833 53.5,197.5C 51.9261,195.898 51.2594,193.898 51.5,191.5 Z"/></g>
<g><path style="opacity:1" fill="#f9f9fb" d="M 182.5,206.5 C 184.948,207.473 187.615,207.806 190.5,207.5C 190.5,209.833 190.5,212.167 190.5,214.5C 187.615,214.194 184.948,214.527 182.5,215.5C 182.172,226.014 182.506,236.347 183.5,246.5C 183.833,247.167 184.167,247.833 184.5,248.5C 186.265,249.461 188.265,249.795 190.5,249.5C 190.868,252.533 190.202,255.2 188.5,257.5C 184.434,257.693 180.434,257.36 176.5,256.5C 176.027,255.094 175.027,254.427 173.5,254.5C 173.672,253.508 173.338,252.842 172.5,252.5C 171.961,240.009 171.294,227.676 170.5,215.5C 168.393,214.532 166.059,214.198 163.5,214.5C 163.5,212.167 163.5,209.833 163.5,207.5C 166.059,207.802 168.393,207.468 170.5,206.5C 171.482,203.038 171.815,199.371 171.5,195.5C 174.833,195.5 178.167,195.5 181.5,195.5C 181.185,199.371 181.518,203.038 182.5,206.5 Z"/></g>
<g><path style="opacity:1" fill="#7883c9" d="M 53.5,195.5 C 55.7851,198.335 57.1184,201.668 57.5,205.5C 55.9748,202.921 54.6414,200.254 53.5,197.5C 53.5,196.833 53.5,196.167 53.5,195.5 Z"/></g>
<g><path style="opacity:1" fill="#bfc4e4" d="M 182.5,194.5 C 182.5,198.5 182.5,202.5 182.5,206.5C 181.518,203.038 181.185,199.371 181.5,195.5C 178.167,195.5 174.833,195.5 171.5,195.5C 171.815,199.371 171.482,203.038 170.5,206.5C 170.5,202.5 170.5,198.5 170.5,194.5C 174.5,194.5 178.5,194.5 182.5,194.5 Z"/></g>
<g><path style="opacity:1" fill="#6874c2" d="M 282.5,191.5 C 282.205,193.735 282.539,195.735 283.5,197.5C 283.833,198.167 284.167,198.833 284.5,199.5C 283.504,199.586 282.671,199.252 282,198.5C 281.204,195.961 281.371,193.628 282.5,191.5 Z"/></g>
<g><path style="opacity:1" fill="#adb4dd" d="M 294.5,198.5 C 294.389,199.117 294.056,199.617 293.5,200C 290.633,200.801 287.966,200.634 285.5,199.5C 288.57,199.632 291.57,199.299 294.5,198.5 Z"/></g>
<g><path style="opacity:1" fill="#c1c6e5" d="M 128.5,206.5 C 130.978,205.836 133.645,205.503 136.5,205.5C 140.469,205.294 144.135,205.961 147.5,207.5C 141.203,206.68 134.869,206.347 128.5,206.5 Z"/></g>
<g><path style="opacity:1" fill="#8c97d0" d="M 128.5,206.5 C 127.329,207.345 125.995,208.011 124.5,208.5C 125.183,206.824 126.517,206.157 128.5,206.5 Z"/></g>
<g><path style="opacity:1" fill="#f7f8fa" d="M 128.5,206.5 C 134.869,206.347 141.203,206.68 147.5,207.5C 148.656,209.387 150.323,210.721 152.5,211.5C 153.891,213.921 154.725,216.588 155,219.5C 155.17,230.008 155.67,240.341 156.5,250.5C 156.833,251.833 157.167,253.167 157.5,254.5C 154.038,255.482 150.371,255.815 146.5,255.5C 146.5,254.5 146.5,253.5 146.5,252.5C 144.821,252.285 143.821,252.952 143.5,254.5C 137.445,257.566 131.112,258.233 124.5,256.5C 121.907,255.246 119.573,253.58 117.5,251.5C 117.573,249.973 116.906,248.973 115.5,248.5C 115.5,244.5 115.5,240.5 115.5,236.5C 116.5,236.167 117.167,235.5 117.5,234.5C 119.833,232.833 121.833,230.833 123.5,228.5C 125.403,228.204 127.07,227.537 128.5,226.5C 128.5,226.167 128.5,225.833 128.5,225.5C 133.833,225.5 139.167,225.5 144.5,225.5C 144.806,222.615 144.473,219.948 143.5,217.5C 142.5,217.167 141.833,216.5 141.5,215.5C 139.866,214.839 138.033,214.506 136,214.5C 133.705,214.547 131.871,215.213 130.5,216.5C 128.75,217.659 127.75,219.326 127.5,221.5C 123.833,221.5 120.167,221.5 116.5,221.5C 116.325,219.379 116.659,217.379 117.5,215.5C 118.906,215.027 119.573,214.027 119.5,212.5C 120.585,210.413 122.251,209.08 124.5,208.5C 125.995,208.011 127.329,207.345 128.5,206.5 Z"/></g>
<g><path style="opacity:1" fill="#9099d2" d="M 182.5,194.5 C 183.483,198.298 183.817,202.298 183.5,206.5C 186.385,206.194 189.052,206.527 191.5,207.5C 191.167,207.5 190.833,207.5 190.5,207.5C 187.615,207.806 184.948,207.473 182.5,206.5C 182.5,202.5 182.5,198.5 182.5,194.5 Z"/></g>
<g><path style="opacity:1" fill="#f8f8fb" d="M 226.5,206.5 C 230.412,207.459 233.746,209.459 236.5,212.5C 237.468,215.1 238.801,217.434 240.5,219.5C 240.5,224.5 240.5,229.5 240.5,234.5C 229.833,234.5 219.167,234.5 208.5,234.5C 208.037,240.517 210.371,244.85 215.5,247.5C 219.268,248.787 222.935,248.787 226.5,247.5C 227.167,247.5 227.833,247.5 228.5,247.5C 230.404,247.262 231.738,246.262 232.5,244.5C 233.833,243.167 235.167,243.167 236.5,244.5C 238.352,245.52 239.685,247.02 240.5,249C 238.982,250.351 237.649,251.851 236.5,253.5C 233.563,254.472 230.897,255.805 228.5,257.5C 222.013,257.848 215.68,257.182 209.5,255.5C 209.027,254.094 208.027,253.427 206.5,253.5C 204.846,252.25 203.179,250.916 201.5,249.5C 197.871,241.262 196.538,232.595 197.5,223.5C 198.537,222.07 199.204,220.403 199.5,218.5C 199.328,217.508 199.662,216.842 200.5,216.5C 202.262,215.738 203.262,214.404 203.5,212.5C 205.749,211.92 207.415,210.587 208.5,208.5C 214.346,206.767 220.346,206.1 226.5,206.5 Z"/></g>
<g><path style="opacity:1" fill="#f4f5f9" d="M 275.5,205.5 C 275.5,208.833 275.5,212.167 275.5,215.5C 272.171,215.215 269.171,215.882 266.5,217.5C 264.629,217.859 263.129,218.859 262,220.5C 261.5,232.495 261.333,244.495 261.5,256.5C 261.167,256.5 260.833,256.5 260.5,256.5C 256.833,256.5 253.167,256.5 249.5,256.5C 249.5,240.167 249.5,223.833 249.5,207.5C 253.167,207.5 256.833,207.5 260.5,207.5C 260.281,208.675 260.614,209.675 261.5,210.5C 263.213,210.121 264.213,209.121 264.5,207.5C 264.918,206.778 265.584,206.278 266.5,206C 269.482,205.502 272.482,205.335 275.5,205.5 Z"/></g>
<g><path style="opacity:1" fill="#f7f7fa" d="M 344.5,214.5 C 344.791,227.497 345.791,240.163 347.5,252.5C 347.5,253.167 347.5,253.833 347.5,254.5C 342.401,255.313 337.401,255.313 332.5,254.5C 332.5,254.833 332.5,255.167 332.5,255.5C 326.6,257.642 320.6,257.976 314.5,256.5C 312.847,256.34 311.514,255.674 310.5,254.5C 309.833,253.167 308.833,252.167 307.5,251.5C 307.34,249.847 306.674,248.514 305.5,247.5C 304.98,242.118 305.98,237.118 308.5,232.5C 308.833,231.5 309.5,230.833 310.5,230.5C 312.027,230.573 313.027,229.906 313.5,228.5C 315.403,228.204 317.07,227.537 318.5,226.5C 318.5,226.167 318.5,225.833 318.5,225.5C 323.833,225.5 329.167,225.5 334.5,225.5C 335.156,224.378 335.489,223.045 335.5,221.5C 335.415,219.667 334.748,218.334 333.5,217.5C 333.167,217.5 332.833,217.5 332.5,217.5C 330.944,215.012 328.611,214.012 325.5,214.5C 323.36,214.556 321.694,215.223 320.5,216.5C 318.088,216.694 317.088,218.027 317.5,220.5C 313.833,220.5 310.167,220.5 306.5,220.5C 306.517,218.435 306.85,216.435 307.5,214.5C 308.882,212.451 310.548,210.785 312.5,209.5C 314.544,208.492 316.544,207.492 318.5,206.5C 326.02,204.662 333.354,205.495 340.5,209C 342.464,210.451 343.797,212.284 344.5,214.5 Z"/></g>
<g><path style="opacity:1" fill="#d7dbee" d="M 93.5,214.5 C 93.6621,212.473 93.4955,210.473 93,208.5C 92.1482,209.571 91.3149,210.571 90.5,211.5C 90.244,209.088 91.244,207.421 93.5,206.5C 94.8003,209.309 94.8003,211.976 93.5,214.5 Z"/></g>
<g><path style="opacity:1" fill="#b1b7df" d="M 226.5,206.5 C 220.346,206.1 214.346,206.767 208.5,208.5C 209.347,207.034 210.68,206.2 212.5,206C 217.352,205.185 222.019,205.352 226.5,206.5 Z"/></g>
<g><path style="opacity:1" fill="#a1a9d9" d="M 275.5,205.5 C 276.483,209.298 276.817,213.298 276.5,217.5C 273.167,217.5 269.833,217.5 266.5,217.5C 269.171,215.882 272.171,215.215 275.5,215.5C 275.5,212.167 275.5,208.833 275.5,205.5 Z"/></g>
<g><path style="opacity:1" fill="#f9f9fb" d="M 283.5,207.5 C 287.167,207.5 290.833,207.5 294.5,207.5C 294.5,223.833 294.5,240.167 294.5,256.5C 290.833,256.5 287.167,256.5 283.5,256.5C 283.5,240.167 283.5,223.833 283.5,207.5 Z"/></g>
<g><path style="opacity:1" fill="#9098d1" d="M 318.5,206.5 C 316.544,207.492 314.544,208.492 312.5,209.5C 313.687,207.025 315.687,206.025 318.5,206.5 Z"/></g>
<g><path style="opacity:1" fill="#969fd5" d="M 57.5,205.5 C 58.5375,206.93 59.2041,208.597 59.5,210.5C 57.7868,209.365 57.1201,207.698 57.5,205.5 Z"/></g>
<g><path style="opacity:1" fill="#babfe3" d="M 147.5,207.5 C 150.063,207.731 151.73,209.065 152.5,211.5C 150.323,210.721 148.656,209.387 147.5,207.5 Z"/></g>
<g><path style="opacity:1" fill="#a7afdc" d="M 260.5,207.5 C 261.833,208.833 263.167,208.833 264.5,207.5C 264.213,209.121 263.213,210.121 261.5,210.5C 260.614,209.675 260.281,208.675 260.5,207.5 Z"/></g>
<g><path style="opacity:1" fill="#afb5de" d="M 84.5,201.5 C 83.1718,208.842 80.5052,215.509 76.5,221.5C 78.2298,214.279 80.8965,207.613 84.5,201.5 Z"/></g>
<g><path style="opacity:1" fill="#8c97d0" d="M 260.5,207.5 C 256.833,207.5 253.167,207.5 249.5,207.5C 249.5,223.833 249.5,240.167 249.5,256.5C 253.167,256.5 256.833,256.5 260.5,256.5C 256.702,257.483 252.702,257.817 248.5,257.5C 248.5,240.5 248.5,223.5 248.5,206.5C 252.702,206.183 256.702,206.517 260.5,207.5 Z"/></g>
<g><path style="opacity:1" fill="#929cd4" d="M 283.5,207.5 C 287.298,206.517 291.298,206.183 295.5,206.5C 295.5,223.5 295.5,240.5 295.5,257.5C 291.298,257.817 287.298,257.483 283.5,256.5C 287.167,256.5 290.833,256.5 294.5,256.5C 294.5,240.167 294.5,223.833 294.5,207.5C 290.833,207.5 287.167,207.5 283.5,207.5 Z"/></g>
<g><path style="opacity:1" fill="#b9bee2" d="M 208.5,208.5 C 207.415,210.587 205.749,211.92 203.5,212.5C 204.585,210.413 206.251,209.08 208.5,208.5 Z"/></g>
<g><path style="opacity:1" fill="#9ea6d7" d="M 93.5,214.5 C 93.5,216.5 93.5,218.5 93.5,220.5C 93.1667,220.5 92.8333,220.5 92.5,220.5C 92.6641,217.813 92.4974,215.146 92,212.5C 91.6174,213.056 91.1174,213.389 90.5,213.5C 90.5,212.833 90.5,212.167 90.5,211.5C 91.3149,210.571 92.1482,209.571 93,208.5C 93.4955,210.473 93.6621,212.473 93.5,214.5 Z"/></g>
<g><path style="opacity:1" fill="#a2aada" d="M 49.5,214.5 C 48.8826,214.389 48.3826,214.056 48,213.5C 47.5001,227.829 47.3334,242.163 47.5,256.5C 47.1667,256.5 46.8333,256.5 46.5,256.5C 46.1673,240.819 46.5006,225.152 47.5,209.5C 48.562,211.022 49.2287,212.688 49.5,214.5 Z"/></g>
<g><path style="opacity:1" fill="#a3abda" d="M 203.5,212.5 C 203.262,214.404 202.262,215.738 200.5,216.5C 200.738,214.596 201.738,213.262 203.5,212.5 Z"/></g>
<g><path style="opacity:1" fill="#9ea6d8" d="M 59.5,211.5 C 62.2169,217.312 64.5502,223.312 66.5,229.5C 63.0253,224.098 60.692,218.098 59.5,211.5 Z"/></g>
<g><path style="opacity:1" fill="#b7bde2" d="M 119.5,212.5 C 119.573,214.027 118.906,215.027 117.5,215.5C 117.5,215.167 117.5,214.833 117.5,214.5C 117.833,213.5 118.5,212.833 119.5,212.5 Z"/></g>
<g><path style="opacity:1" fill="#8c95d0" d="M 141.5,215.5 C 137.731,215.244 134.064,215.577 130.5,216.5C 131.871,215.213 133.705,214.547 136,214.5C 138.033,214.506 139.866,214.839 141.5,215.5 Z"/></g>
<g><path style="opacity:1" fill="#aeb4de" d="M 170.5,206.5 C 168.393,207.468 166.059,207.802 163.5,207.5C 163.5,209.833 163.5,212.167 163.5,214.5C 166.059,214.198 168.393,214.532 170.5,215.5C 167.833,215.5 165.167,215.5 162.5,215.5C 159.316,207.674 161.982,204.674 170.5,206.5 Z"/></g>
<g><path style="opacity:1" fill="#bec4e5" d="M 190.5,207.5 C 190.833,207.5 191.167,207.5 191.5,207.5C 191.5,210.167 191.5,212.833 191.5,215.5C 188.5,215.5 185.5,215.5 182.5,215.5C 184.948,214.527 187.615,214.194 190.5,214.5C 190.5,212.167 190.5,209.833 190.5,207.5 Z"/></g>
<g><path style="opacity:1" fill="#959ed4" d="M 223.5,215.5 C 219.885,215.155 216.552,215.822 213.5,217.5C 213.953,216.542 214.619,215.708 215.5,215C 218.367,214.199 221.034,214.366 223.5,215.5 Z"/></g>
<g><path style="opacity:1" fill="#949cd4" d="M 236.5,212.5 C 238.942,214.121 240.275,216.454 240.5,219.5C 238.801,217.434 237.468,215.1 236.5,212.5 Z"/></g>
<g><path style="opacity:1" fill="#6976c4" d="M 92.5,220.5 C 92.5,232.5 92.5,244.5 92.5,256.5C 91.8333,243.167 91.1667,229.833 90.5,216.5C 90.5,215.5 90.5,214.5 90.5,213.5C 91.1174,213.389 91.6174,213.056 92,212.5C 92.4974,215.146 92.6641,217.813 92.5,220.5 Z"/></g>
<g><path style="opacity:1" fill="#7a86c9" d="M 182.5,215.5 C 185.5,215.5 188.5,215.5 191.5,215.5C 189.052,216.473 186.385,216.806 183.5,216.5C 183.5,226.5 183.5,236.5 183.5,246.5C 182.506,236.347 182.172,226.014 182.5,215.5 Z"/></g>
<g><path style="opacity:1" fill="#8f98d2" d="M 49.5,214.5 C 50.5375,215.93 51.2041,217.597 51.5,219.5C 50.0937,219.027 49.427,218.027 49.5,216.5C 49.5,215.833 49.5,215.167 49.5,214.5 Z"/></g>
<g><path style="opacity:1" fill="#c4c9e7" d="M 170.5,215.5 C 171.294,227.676 171.961,240.009 172.5,252.5C 171.833,251.5 171.167,250.5 170.5,249.5C 170.5,238.167 170.5,226.833 170.5,215.5 Z"/></g>
<g><path style="opacity:1" fill="#4152b3" d="M 223.5,216.5 C 228.026,218.204 230.026,221.537 229.5,226.5C 229.167,226.5 228.833,226.5 228.5,226.5C 223.944,224.558 218.944,223.892 213.5,224.5C 214.23,218.507 217.564,215.84 223.5,216.5 Z"/></g>
<g><path style="opacity:1" fill="#7882c9" d="M 213.5,217.5 C 212.047,220.298 211.047,223.298 210.5,226.5C 209.662,226.158 209.328,225.492 209.5,224.5C 209.555,221.386 210.888,219.052 213.5,217.5 Z"/></g>
<g><path style="opacity:1" fill="#bbc0e3" d="M 90.5,213.5 C 90.5,214.5 90.5,215.5 90.5,216.5C 89.5,218.5 88.5,220.5 87.5,222.5C 87.446,219.008 88.446,216.008 90.5,213.5 Z"/></g>
<g><path style="opacity:1" fill="#727fc7" d="M 162.5,215.5 C 165.167,215.5 167.833,215.5 170.5,215.5C 170.5,226.833 170.5,238.167 170.5,249.5C 169.505,238.679 169.172,227.679 169.5,216.5C 166.941,216.802 164.607,216.468 162.5,215.5 Z"/></g>
<g><path style="opacity:1" fill="#7a85ca" d="M 199.5,218.5 C 199.204,220.403 198.537,222.07 197.5,223.5C 197.12,221.302 197.787,219.635 199.5,218.5 Z"/></g>
<g><path style="opacity:1" fill="#afb5de" d="M 320.5,216.5 C 319.308,218.113 318.308,219.78 317.5,221.5C 313.629,221.815 309.962,221.482 306.5,220.5C 310.167,220.5 313.833,220.5 317.5,220.5C 317.088,218.027 318.088,216.694 320.5,216.5 Z"/></g>
<g><path style="opacity:1" fill="#6c79c4" d="M 117.5,214.5 C 117.5,214.833 117.5,215.167 117.5,215.5C 116.659,217.379 116.325,219.379 116.5,221.5C 120.167,221.5 123.833,221.5 127.5,221.5C 123.702,222.483 119.702,222.817 115.5,222.5C 115.337,220.143 115.503,217.81 116,215.5C 116.383,214.944 116.883,214.611 117.5,214.5 Z"/></g>
<g><path style="opacity:1" fill="#6c79c5" d="M 307.5,214.5 C 306.85,216.435 306.517,218.435 306.5,220.5C 309.962,221.482 313.629,221.815 317.5,221.5C 313.702,222.483 309.702,222.817 305.5,222.5C 305.337,220.143 305.503,217.81 306,215.5C 306.383,214.944 306.883,214.611 307.5,214.5 Z"/></g>
<g><path style="opacity:1" fill="#929bd3" d="M 51.5,219.5 C 52.9238,221.515 53.5905,223.848 53.5,226.5C 52.0762,224.485 51.4095,222.152 51.5,219.5 Z"/></g>
<g><path style="opacity:1" fill="#c3c8e6" d="M 333.5,217.5 C 334.748,218.334 335.415,219.667 335.5,221.5C 335.489,223.045 335.156,224.378 334.5,225.5C 334.721,222.721 334.388,220.054 333.5,217.5 Z"/></g>
<g><path style="opacity:1" fill="#8b96d1" d="M 156.5,221.5 C 157.257,232.35 157.924,243.35 158.5,254.5C 158.167,254.5 157.833,254.5 157.5,254.5C 157.167,253.167 156.833,251.833 156.5,250.5C 156.5,240.833 156.5,231.167 156.5,221.5 Z"/></g>
<g><path style="opacity:1" fill="#3244ae" d="M 265.5,219.5 C 267.831,219.859 267.665,220.526 265,221.5C 265.15,233.543 264.316,245.21 262.5,256.5C 262.333,244.829 262.5,233.162 263,221.5C 263.708,220.619 264.542,219.953 265.5,219.5 Z"/></g>
<g><path style="opacity:1" fill="#b1b7df" d="M 344.5,214.5 C 345.966,215.347 346.8,216.68 347,218.5C 347.5,229.828 347.667,241.162 347.5,252.5C 345.791,240.163 344.791,227.497 344.5,214.5 Z"/></g>
<g><path style="opacity:1" fill="#b6bbe1" d="M 87.5,222.5 C 87.2041,224.403 86.5375,226.07 85.5,227.5C 85.1201,225.302 85.7868,223.635 87.5,222.5 Z"/></g>
<g><path style="opacity:1" fill="#5e6dbf" d="M 143.5,217.5 C 144.473,219.948 144.806,222.615 144.5,225.5C 139.167,225.5 133.833,225.5 128.5,225.5C 133.305,224.513 138.305,224.179 143.5,224.5C 143.5,222.167 143.5,219.833 143.5,217.5 Z"/></g>
<g><path style="opacity:1" fill="#3245ae" d="M 223.5,215.5 C 223.5,215.833 223.5,216.167 223.5,216.5C 217.564,215.84 214.23,218.507 213.5,224.5C 218.944,223.892 223.944,224.558 228.5,226.5C 222.5,226.5 216.5,226.5 210.5,226.5C 211.047,223.298 212.047,220.298 213.5,217.5C 216.552,215.822 219.885,215.155 223.5,215.5 Z"/></g>
<g><path style="opacity:1" fill="#6170c1" d="M 266.5,217.5 C 266.167,218.167 265.833,218.833 265.5,219.5C 264.542,219.953 263.708,220.619 263,221.5C 262.5,233.162 262.333,244.829 262.5,256.5C 262.167,256.5 261.833,256.5 261.5,256.5C 261.333,244.495 261.5,232.495 262,220.5C 263.129,218.859 264.629,217.859 266.5,217.5 Z"/></g>
<g><path style="opacity:1" fill="#606ebf" d="M 332.5,217.5 C 332.833,217.5 333.167,217.5 333.5,217.5C 334.388,220.054 334.721,222.721 334.5,225.5C 329.167,225.5 323.833,225.5 318.5,225.5C 323.305,224.513 328.305,224.179 333.5,224.5C 333.552,222.097 333.219,219.764 332.5,217.5 Z"/></g>
<g><path style="opacity:1" fill="#abb2dd" d="M 76.5,222.5 C 75.4436,227.669 73.777,232.669 71.5,237.5C 70.3864,238.776 69.3864,238.776 68.5,237.5C 69.3764,237.631 70.0431,237.298 70.5,236.5C 72.3299,231.65 74.3299,226.984 76.5,222.5 Z"/></g>
<g><path style="opacity:1" fill="#d7daed" d="M 152.5,211.5 C 155.917,213.891 157.25,217.225 156.5,221.5C 156.5,231.167 156.5,240.833 156.5,250.5C 155.67,240.341 155.17,230.008 155,219.5C 154.725,216.588 153.891,213.921 152.5,211.5 Z"/></g>
<g><path style="opacity:1" fill="#a0a9d8" d="M 209.5,224.5 C 209.328,225.492 209.662,226.158 210.5,226.5C 216.5,226.5 222.5,226.5 228.5,226.5C 228.833,226.5 229.167,226.5 229.5,226.5C 222.687,227.491 215.687,227.825 208.5,227.5C 208.263,226.209 208.596,225.209 209.5,224.5 Z"/></g>
<g><path style="opacity:1" fill="#9ca4d7" d="M 128.5,226.5 C 127.07,227.537 125.403,228.204 123.5,228.5C 124.635,226.787 126.302,226.12 128.5,226.5 Z"/></g>
<g><path style="opacity:1" fill="#9fa7d9" d="M 318.5,226.5 C 317.07,227.537 315.403,228.204 313.5,228.5C 314.635,226.787 316.302,226.12 318.5,226.5 Z"/></g>
<g><path style="opacity:1" fill="#bac0e3" d="M 313.5,228.5 C 313.027,229.906 312.027,230.573 310.5,230.5C 310.973,229.094 311.973,228.427 313.5,228.5 Z"/></g>
<g><path style="opacity:1" fill="#838dcd" d="M 85.5,227.5 C 85.5905,230.152 84.9238,232.485 83.5,234.5C 83.4095,231.848 84.0762,229.515 85.5,227.5 Z"/></g>
<g><path style="opacity:1" fill="#c9cde9" d="M 123.5,228.5 C 121.833,230.833 119.833,232.833 117.5,234.5C 117.5,234.167 117.5,233.833 117.5,233.5C 118.911,231.086 120.911,229.419 123.5,228.5 Z"/></g>
<g><path style="opacity:1" fill="#6775c3" d="M 49.5,214.5 C 49.5,215.167 49.5,215.833 49.5,216.5C 48.8333,229.833 48.1667,243.167 47.5,256.5C 47.3334,242.163 47.5001,227.829 48,213.5C 48.3826,214.056 48.8826,214.389 49.5,214.5 Z"/></g>
<g><path style="opacity:1" fill="#7984c9" d="M 53.5,226.5 C 55.3803,228.755 56.3803,231.422 56.5,234.5C 54.6197,232.245 53.6197,229.578 53.5,226.5 Z"/></g>
<g><path style="opacity:1" fill="#a8b0dc" d="M 240.5,219.5 C 241.957,224.598 242.624,229.931 242.5,235.5C 231.48,235.168 220.48,235.501 209.5,236.5C 210.218,240.716 212.218,244.049 215.5,246.5C 215.5,246.833 215.5,247.167 215.5,247.5C 210.371,244.85 208.037,240.517 208.5,234.5C 219.167,234.5 229.833,234.5 240.5,234.5C 240.5,229.5 240.5,224.5 240.5,219.5 Z"/></g>
<g><path style="opacity:1" fill="#b2b8df" d="M 325.5,233.5 C 328.625,232.521 331.958,232.187 335.5,232.5C 335.815,236.371 335.482,240.038 334.5,243.5C 334.5,240.167 334.5,236.833 334.5,233.5C 331.5,233.5 328.5,233.5 325.5,233.5 Z"/></g>
<g><path style="opacity:1" fill="#afb5de" d="M 66.5,230.5 C 68.0739,232.102 68.7406,234.102 68.5,236.5C 66.9261,234.898 66.2594,232.898 66.5,230.5 Z"/></g>
<g><path style="opacity:1" fill="#8b95d1" d="M 117.5,233.5 C 117.5,233.833 117.5,234.167 117.5,234.5C 117.167,235.5 116.5,236.167 115.5,236.5C 115.427,234.973 116.094,233.973 117.5,233.5 Z"/></g>
<g><path style="opacity:1" fill="#3e4fb2" d="M 131.5,234.5 C 135.5,234.5 139.5,234.5 143.5,234.5C 143.5,237.5 143.5,240.5 143.5,243.5C 142.473,245.194 141.139,246.527 139.5,247.5C 136.57,248.299 133.57,248.632 130.5,248.5C 130.167,247.5 129.5,246.833 128.5,246.5C 126.984,242.615 127.318,238.948 129.5,235.5C 129.842,234.662 130.508,234.328 131.5,234.5 Z"/></g>
<g><path style="opacity:1" fill="#5e6dbf" d="M 131.5,234.5 C 131.842,233.662 132.508,233.328 133.5,233.5C 137.167,233.5 140.833,233.5 144.5,233.5C 144.5,236.833 144.5,240.167 144.5,243.5C 144.167,243.5 143.833,243.5 143.5,243.5C 143.5,240.5 143.5,237.5 143.5,234.5C 139.5,234.5 135.5,234.5 131.5,234.5 Z"/></g>
<g><path style="opacity:1" fill="#3c4eb2" d="M 321.5,234.5 C 325.5,234.5 329.5,234.5 333.5,234.5C 333.5,237.5 333.5,240.5 333.5,243.5C 332.833,244.833 331.833,245.833 330.5,246.5C 327.236,247.324 323.902,247.658 320.5,247.5C 319.5,247.167 318.833,246.5 318.5,245.5C 317.807,241.247 318.807,237.581 321.5,234.5 Z"/></g>
<g><path style="opacity:1" fill="#6472c1" d="M 321.5,234.5 C 322.568,233.566 323.901,233.232 325.5,233.5C 328.5,233.5 331.5,233.5 334.5,233.5C 334.5,236.833 334.5,240.167 334.5,243.5C 334.167,243.5 333.833,243.5 333.5,243.5C 333.5,240.5 333.5,237.5 333.5,234.5C 329.5,234.5 325.5,234.5 321.5,234.5 Z"/></g>
<g><path style="opacity:1" fill="#6e79c5" d="M 56.5,234.5 C 58.0652,236.509 59.0652,238.843 59.5,241.5C 57.1663,239.824 56.1663,237.491 56.5,234.5 Z"/></g>
<g><path style="opacity:1" fill="#abb2dd" d="M 133.5,233.5 C 137.298,232.517 141.298,232.183 145.5,232.5C 145.815,236.371 145.482,240.038 144.5,243.5C 144.5,240.167 144.5,236.833 144.5,233.5C 140.833,233.5 137.167,233.5 133.5,233.5 Z"/></g>
<g><path style="opacity:1" fill="#a4abda" d="M 129.5,235.5 C 127.318,238.948 126.984,242.615 128.5,246.5C 127.883,246.389 127.383,246.056 127,245.5C 126.333,242.833 126.333,240.167 127,237.5C 127.708,236.619 128.542,235.953 129.5,235.5 Z"/></g>
<g><path style="opacity:1" fill="#747fc8" d="M 321.5,234.5 C 318.807,237.581 317.807,241.247 318.5,245.5C 317.883,245.389 317.383,245.056 317,244.5C 315.574,239.692 317.074,236.359 321.5,234.5 Z"/></g>
<g><path style="opacity:1" fill="#acb2dd" d="M 82.5,234.5 C 82.3969,237.636 81.3969,240.302 79.5,242.5C 79.9028,239.514 80.9028,236.848 82.5,234.5 Z"/></g>
<g><path style="opacity:1" fill="#8791cf" d="M 197.5,223.5 C 196.538,232.595 197.871,241.262 201.5,249.5C 199.254,247.351 197.754,244.684 197,241.5C 196.181,235.319 196.347,229.319 197.5,223.5 Z"/></g>
<g><path style="opacity:1" fill="#9ca5d7" d="M 236.5,244.5 C 235.167,243.167 233.833,243.167 232.5,244.5C 232.62,243.414 233.287,242.747 234.5,242.5C 235.713,242.747 236.38,243.414 236.5,244.5 Z"/></g>
<g><path style="opacity:1" fill="#828ccd" d="M 59.5,241.5 C 61.0739,243.102 61.7406,245.102 61.5,247.5C 59.9261,245.898 59.2594,243.898 59.5,241.5 Z"/></g>
<g><path style="opacity:1" fill="#9ba3d6" d="M 308.5,232.5 C 305.98,237.118 304.98,242.118 305.5,247.5C 304.357,244.024 304.19,240.358 305,236.5C 305.66,234.676 306.827,233.343 308.5,232.5 Z"/></g>
<g><path style="opacity:1" fill="#afb5de" d="M 79.5,243.5 C 78.962,245.117 78.6287,246.784 78.5,248.5C 77.8333,249.5 77.1667,250.5 76.5,251.5C 76.3455,248.284 77.3455,245.617 79.5,243.5 Z"/></g>
<g><path style="opacity:1" fill="#abb1dd" d="M 232.5,244.5 C 231.738,246.262 230.404,247.262 228.5,247.5C 229.262,245.738 230.596,244.738 232.5,244.5 Z"/></g>
<g><path style="opacity:1" fill="#c1c6e5" d="M 143.5,243.5 C 143.833,243.5 144.167,243.5 144.5,243.5C 144.033,246.297 142.367,247.631 139.5,247.5C 141.139,246.527 142.473,245.194 143.5,243.5 Z"/></g>
<g><path style="opacity:1" fill="#6a77c4" d="M 215.5,247.5 C 215.5,247.167 215.5,246.833 215.5,246.5C 219.099,247.344 222.766,247.677 226.5,247.5C 222.935,248.787 219.268,248.787 215.5,247.5 Z"/></g>
<g><path style="opacity:1" fill="#848ece" d="M 330.5,246.5 C 330.389,247.117 330.056,247.617 329.5,248C 326.304,248.805 323.304,248.638 320.5,247.5C 323.902,247.658 327.236,247.324 330.5,246.5 Z"/></g>
<g><path style="opacity:1" fill="#c7cbe7" d="M 139.5,247.5 C 139.389,248.117 139.056,248.617 138.5,249C 135.633,249.801 132.966,249.634 130.5,248.5C 133.57,248.632 136.57,248.299 139.5,247.5 Z"/></g>
<g><path style="opacity:1" fill="#7c87ca" d="M 115.5,248.5 C 116.906,248.973 117.573,249.973 117.5,251.5C 116.094,251.027 115.427,250.027 115.5,248.5 Z"/></g>
<g><path style="opacity:1" fill="#b6bce1" d="M 62.5,249.5 C 64.539,250.911 65.539,252.911 65.5,255.5C 64.8333,255.167 64.1667,254.833 63.5,254.5C 63.3713,252.784 63.038,251.117 62.5,249.5 Z"/></g>
<g><path style="opacity:1" fill="#bfc3e4" d="M 184.5,248.5 C 187.167,248.5 189.833,248.5 192.5,248.5C 192.664,251.187 192.497,253.854 192,256.5C 191.617,257.056 191.117,257.389 190.5,257.5C 189.833,257.5 189.167,257.5 188.5,257.5C 190.202,255.2 190.868,252.533 190.5,249.5C 188.265,249.795 186.265,249.461 184.5,248.5 Z"/></g>
<g><path style="opacity:1" fill="#7983c9" d="M 307.5,251.5 C 308.833,252.167 309.833,253.167 310.5,254.5C 308.5,254.5 307.5,253.5 307.5,251.5 Z"/></g>
<g><path style="opacity:1" fill="#a6addb" d="M 173.5,254.5 C 175.027,254.427 176.027,255.094 176.5,256.5C 174.973,256.573 173.973,255.906 173.5,254.5 Z"/></g>
<g><path style="opacity:1" fill="#b2b8df" d="M 206.5,253.5 C 208.027,253.427 209.027,254.094 209.5,255.5C 207.973,255.573 206.973,254.906 206.5,253.5 Z"/></g>
<g><path style="opacity:1" fill="#d3d6ec" d="M 157.5,254.5 C 157.833,254.5 158.167,254.5 158.5,254.5C 156.777,255.8 154.61,256.467 152,256.5C 148.984,256.273 146.15,255.606 143.5,254.5C 143.821,252.952 144.821,252.285 146.5,252.5C 146.5,253.5 146.5,254.5 146.5,255.5C 150.371,255.815 154.038,255.482 157.5,254.5 Z"/></g>
<g><path style="opacity:1" fill="#7983c9" d="M 236.5,253.5 C 234.566,256.058 231.899,257.391 228.5,257.5C 230.897,255.805 233.563,254.472 236.5,253.5 Z"/></g>
<g><path style="opacity:1" fill="#ced2eb" d="M 332.5,254.5 C 337.401,255.313 342.401,255.313 347.5,254.5C 348.043,254.56 348.376,254.893 348.5,255.5C 343.026,256.834 337.692,256.501 332.5,254.5 Z"/></g>
<g><path style="opacity:1" fill="#6471c1" d="M 78.5,248.5 C 78.2535,251.587 77.2535,254.42 75.5,257C 71.8333,257.667 68.1667,257.667 64.5,257C 63.7476,256.329 63.4142,255.496 63.5,254.5C 64.1667,254.833 64.8333,255.167 65.5,255.5C 68.3035,256.638 71.3035,256.805 74.5,256C 75.2666,254.53 75.9332,253.03 76.5,251.5C 77.1667,250.5 77.8333,249.5 78.5,248.5 Z"/></g>
<g><path style="opacity:1" fill="#b1b7df" d="M 209.5,255.5 C 215.68,257.182 222.013,257.848 228.5,257.5C 223.684,258.65 218.684,258.816 213.5,258C 211.934,257.392 210.6,256.558 209.5,255.5 Z"/></g>
<g><path style="opacity:1" fill="#7d88cb" d="M 358.5,185.5 C 358.5,209.167 358.5,232.833 358.5,256.5C 362.5,256.5 366.5,256.5 370.5,256.5C 366.366,257.485 362.032,257.818 357.5,257.5C 357.169,233.328 357.502,209.328 358.5,185.5 Z"/></g>
<g><path style="opacity:1" fill="#929bd3" d="M 143.5,254.5 C 142.657,256.173 141.324,257.34 139.5,258C 134.833,258.667 130.167,258.667 125.5,258C 124.944,257.617 124.611,257.117 124.5,256.5C 131.112,258.233 137.445,257.566 143.5,254.5 Z"/></g>
<g><path style="opacity:1" fill="#97a0d4" d="M 176.5,256.5 C 180.434,257.36 184.434,257.693 188.5,257.5C 189.167,257.5 189.833,257.5 190.5,257.5C 186.354,258.647 182.02,258.814 177.5,258C 176.944,257.617 176.611,257.117 176.5,256.5 Z"/></g>
<g><path style="opacity:1" fill="#8f98d2" d="M 332.5,255.5 C 331.942,256.79 330.942,257.623 329.5,258C 324.833,258.667 320.167,258.667 315.5,258C 314.944,257.617 314.611,257.117 314.5,256.5C 320.6,257.976 326.6,257.642 332.5,255.5 Z"/></g>
</svg>
