<svg xmlns="http://www.w3.org/2000/svg" version="1.1" width="1461" height="560" preserveAspectRatio="none" viewBox="0 0 1461 560"><g mask="url(&quot;#SvgjsMask1027&quot;)" fill="none"><rect width="1461" height="560" x="0" y="0" fill="#0e2a47"></rect><path d="M52.46 -56.04L117.41 -18.54L117.41 56.46L52.46 93.96L-12.49 56.46L-12.49 -18.54zM52.46 168.96L117.41 206.46L117.41 281.46L52.46 318.96L-12.49 281.46L-12.49 206.46zM52.46 393.96L117.41 431.46L117.41 506.46L52.46 543.96L-12.49 506.46L-12.49 431.46zM182.37 -56.04L247.32 -18.54L247.32 56.46L182.37 93.96L117.41 56.46L117.41 -18.54zM247.32 281.46L312.27 318.96L312.27 393.96L247.32 431.46L182.37 393.96L182.37 318.96zM312.27 -56.04L377.23 -18.54L377.23 56.46L312.27 93.96L247.32 56.46L247.32 -18.54zM377.23 281.46L442.18 318.96L442.18 393.96L377.23 431.46L312.27 393.96L312.27 318.96zM312.27 393.96L377.23 431.46L377.23 506.46L312.27 543.96L247.32 506.46L247.32 431.46zM377.23 506.46L442.18 543.96L442.18 618.96L377.23 656.46L312.27 618.96L312.27 543.96zM442.18 -56.04L507.14 -18.54L507.14 56.46L442.18 93.96L377.23 56.46L377.23 -18.54zM442.18 168.96L507.14 206.46L507.14 281.46L442.18 318.96L377.23 281.46L377.23 206.46zM507.14 281.46L572.09 318.96L572.09 393.96L507.14 431.46L442.18 393.96L442.18 318.96zM572.09 -56.04L637.04 -18.54L637.04 56.46L572.09 93.96L507.14 56.46L507.14 -18.54zM637.04 56.46L702 93.96L702 168.96L637.04 206.46L572.09 168.96L572.09 93.96zM766.95 281.46L831.91 318.96L831.91 393.96L766.95 431.46L702 393.96L702 318.96zM702 393.96L766.95 431.46L766.95 506.46L702 543.96L637.04 506.46L637.04 431.46zM961.81 -56.04L1026.77 -18.54L1026.77 56.46L961.81 93.96L896.86 56.46L896.86 -18.54zM1026.77 56.46L1091.72 93.96L1091.72 168.96L1026.77 206.46L961.81 168.96L961.81 93.96zM1026.77 281.46L1091.72 318.96L1091.72 393.96L1026.77 431.46L961.81 393.96L961.81 318.96zM1026.77 506.46L1091.72 543.96L1091.72 618.96L1026.77 656.46L961.81 618.96L961.81 543.96zM1091.72 -56.04L1156.67 -18.54L1156.67 56.46L1091.72 93.96L1026.77 56.46L1026.77 -18.54zM1156.67 56.46L1221.63 93.96L1221.63 168.96L1156.67 206.46L1091.72 168.96L1091.72 93.96zM1091.72 168.96L1156.67 206.46L1156.67 281.46L1091.72 318.96L1026.77 281.46L1026.77 206.46zM1156.67 281.46L1221.63 318.96L1221.63 393.96L1156.67 431.46L1091.72 393.96L1091.72 318.96zM1156.67 506.46L1221.63 543.96L1221.63 618.96L1156.67 656.46L1091.72 618.96L1091.72 543.96zM1221.63 -56.04L1286.58 -18.54L1286.58 56.46L1221.63 93.96L1156.67 56.46L1156.67 -18.54zM1221.63 168.96L1286.58 206.46L1286.58 281.46L1221.63 318.96L1156.67 281.46L1156.67 206.46zM1286.58 281.46L1351.53 318.96L1351.53 393.96L1286.58 431.46L1221.63 393.96L1221.63 318.96zM1351.54 168.96L1416.49 206.46L1416.49 281.46L1351.54 318.96L1286.58 281.46L1286.58 206.46zM1416.49 281.46L1481.44 318.96L1481.44 393.96L1416.49 431.46L1351.54 393.96L1351.54 318.96zM1351.54 393.96L1416.49 431.46L1416.49 506.46L1351.54 543.96L1286.58 506.46L1286.58 431.46zM1481.44 -56.04L1546.4 -18.54L1546.4 56.46L1481.44 93.96L1416.49 56.46L1416.49 -18.54zM1481.44 168.96L1546.4 206.46L1546.4 281.46L1481.44 318.96L1416.49 281.46L1416.49 206.46zM1481.44 393.96L1546.4 431.46L1546.4 506.46L1481.44 543.96L1416.49 506.46L1416.49 431.46zM1546.4 506.46L1611.35 543.96L1611.35 618.96L1546.4 656.46L1481.44 618.96L1481.44 543.96z" stroke="#03305d" stroke-width="2"></path><path d="M44.96 -56.04 a7.5 7.5 0 1 0 15 0 a7.5 7.5 0 1 0 -15 0zM109.91 -18.54 a7.5 7.5 0 1 0 15 0 a7.5 7.5 0 1 0 -15 0zM109.91 56.46 a7.5 7.5 0 1 0 15 0 a7.5 7.5 0 1 0 -15 0zM44.96 93.96 a7.5 7.5 0 1 0 15 0 a7.5 7.5 0 1 0 -15 0zM-19.99 56.46 a7.5 7.5 0 1 0 15 0 a7.5 7.5 0 1 0 -15 0zM-19.99 -18.54 a7.5 7.5 0 1 0 15 0 a7.5 7.5 0 1 0 -15 0zM44.96 168.96 a7.5 7.5 0 1 0 15 0 a7.5 7.5 0 1 0 -15 0zM109.91 206.46 a7.5 7.5 0 1 0 15 0 a7.5 7.5 0 1 0 -15 0zM109.91 281.46 a7.5 7.5 0 1 0 15 0 a7.5 7.5 0 1 0 -15 0zM44.96 318.96 a7.5 7.5 0 1 0 15 0 a7.5 7.5 0 1 0 -15 0zM-19.99 281.46 a7.5 7.5 0 1 0 15 0 a7.5 7.5 0 1 0 -15 0zM-19.99 206.46 a7.5 7.5 0 1 0 15 0 a7.5 7.5 0 1 0 -15 0zM44.96 393.96 a7.5 7.5 0 1 0 15 0 a7.5 7.5 0 1 0 -15 0zM109.91 431.46 a7.5 7.5 0 1 0 15 0 a7.5 7.5 0 1 0 -15 0zM109.91 506.46 a7.5 7.5 0 1 0 15 0 a7.5 7.5 0 1 0 -15 0zM44.96 543.96 a7.5 7.5 0 1 0 15 0 a7.5 7.5 0 1 0 -15 0zM-19.99 506.46 a7.5 7.5 0 1 0 15 0 a7.5 7.5 0 1 0 -15 0zM-19.99 431.46 a7.5 7.5 0 1 0 15 0 a7.5 7.5 0 1 0 -15 0zM174.87 -56.04 a7.5 7.5 0 1 0 15 0 a7.5 7.5 0 1 0 -15 0zM239.82 -18.54 a7.5 7.5 0 1 0 15 0 a7.5 7.5 0 1 0 -15 0zM239.82 56.46 a7.5 7.5 0 1 0 15 0 a7.5 7.5 0 1 0 -15 0zM174.87 93.96 a7.5 7.5 0 1 0 15 0 a7.5 7.5 0 1 0 -15 0zM239.82 281.46 a7.5 7.5 0 1 0 15 0 a7.5 7.5 0 1 0 -15 0zM304.77 318.96 a7.5 7.5 0 1 0 15 0 a7.5 7.5 0 1 0 -15 0zM304.77 393.96 a7.5 7.5 0 1 0 15 0 a7.5 7.5 0 1 0 -15 0zM239.82 431.46 a7.5 7.5 0 1 0 15 0 a7.5 7.5 0 1 0 -15 0zM174.87 393.96 a7.5 7.5 0 1 0 15 0 a7.5 7.5 0 1 0 -15 0zM174.87 318.96 a7.5 7.5 0 1 0 15 0 a7.5 7.5 0 1 0 -15 0zM304.77 -56.04 a7.5 7.5 0 1 0 15 0 a7.5 7.5 0 1 0 -15 0zM369.73 -18.54 a7.5 7.5 0 1 0 15 0 a7.5 7.5 0 1 0 -15 0zM369.73 56.46 a7.5 7.5 0 1 0 15 0 a7.5 7.5 0 1 0 -15 0zM304.77 93.96 a7.5 7.5 0 1 0 15 0 a7.5 7.5 0 1 0 -15 0zM369.73 281.46 a7.5 7.5 0 1 0 15 0 a7.5 7.5 0 1 0 -15 0zM434.68 318.96 a7.5 7.5 0 1 0 15 0 a7.5 7.5 0 1 0 -15 0zM434.68 393.96 a7.5 7.5 0 1 0 15 0 a7.5 7.5 0 1 0 -15 0zM369.73 431.46 a7.5 7.5 0 1 0 15 0 a7.5 7.5 0 1 0 -15 0zM369.73 506.46 a7.5 7.5 0 1 0 15 0 a7.5 7.5 0 1 0 -15 0zM304.77 543.96 a7.5 7.5 0 1 0 15 0 a7.5 7.5 0 1 0 -15 0zM239.82 506.46 a7.5 7.5 0 1 0 15 0 a7.5 7.5 0 1 0 -15 0zM434.68 543.96 a7.5 7.5 0 1 0 15 0 a7.5 7.5 0 1 0 -15 0zM434.68 618.96 a7.5 7.5 0 1 0 15 0 a7.5 7.5 0 1 0 -15 0zM369.73 656.46 a7.5 7.5 0 1 0 15 0 a7.5 7.5 0 1 0 -15 0zM304.77 618.96 a7.5 7.5 0 1 0 15 0 a7.5 7.5 0 1 0 -15 0zM434.68 -56.04 a7.5 7.5 0 1 0 15 0 a7.5 7.5 0 1 0 -15 0zM499.64 -18.54 a7.5 7.5 0 1 0 15 0 a7.5 7.5 0 1 0 -15 0zM499.64 56.46 a7.5 7.5 0 1 0 15 0 a7.5 7.5 0 1 0 -15 0zM434.68 93.96 a7.5 7.5 0 1 0 15 0 a7.5 7.5 0 1 0 -15 0zM434.68 168.96 a7.5 7.5 0 1 0 15 0 a7.5 7.5 0 1 0 -15 0zM499.64 206.46 a7.5 7.5 0 1 0 15 0 a7.5 7.5 0 1 0 -15 0zM499.64 281.46 a7.5 7.5 0 1 0 15 0 a7.5 7.5 0 1 0 -15 0zM369.73 206.46 a7.5 7.5 0 1 0 15 0 a7.5 7.5 0 1 0 -15 0zM564.59 318.96 a7.5 7.5 0 1 0 15 0 a7.5 7.5 0 1 0 -15 0zM564.59 393.96 a7.5 7.5 0 1 0 15 0 a7.5 7.5 0 1 0 -15 0zM499.64 431.46 a7.5 7.5 0 1 0 15 0 a7.5 7.5 0 1 0 -15 0zM564.59 -56.04 a7.5 7.5 0 1 0 15 0 a7.5 7.5 0 1 0 -15 0zM629.54 -18.54 a7.5 7.5 0 1 0 15 0 a7.5 7.5 0 1 0 -15 0zM629.54 56.46 a7.5 7.5 0 1 0 15 0 a7.5 7.5 0 1 0 -15 0zM564.59 93.96 a7.5 7.5 0 1 0 15 0 a7.5 7.5 0 1 0 -15 0zM694.5 93.96 a7.5 7.5 0 1 0 15 0 a7.5 7.5 0 1 0 -15 0zM694.5 168.96 a7.5 7.5 0 1 0 15 0 a7.5 7.5 0 1 0 -15 0zM629.54 206.46 a7.5 7.5 0 1 0 15 0 a7.5 7.5 0 1 0 -15 0zM564.59 168.96 a7.5 7.5 0 1 0 15 0 a7.5 7.5 0 1 0 -15 0zM759.45 281.46 a7.5 7.5 0 1 0 15 0 a7.5 7.5 0 1 0 -15 0zM824.41 318.96 a7.5 7.5 0 1 0 15 0 a7.5 7.5 0 1 0 -15 0zM824.41 393.96 a7.5 7.5 0 1 0 15 0 a7.5 7.5 0 1 0 -15 0zM759.45 431.46 a7.5 7.5 0 1 0 15 0 a7.5 7.5 0 1 0 -15 0zM694.5 393.96 a7.5 7.5 0 1 0 15 0 a7.5 7.5 0 1 0 -15 0zM694.5 318.96 a7.5 7.5 0 1 0 15 0 a7.5 7.5 0 1 0 -15 0zM759.45 506.46 a7.5 7.5 0 1 0 15 0 a7.5 7.5 0 1 0 -15 0zM694.5 543.96 a7.5 7.5 0 1 0 15 0 a7.5 7.5 0 1 0 -15 0zM629.54 506.46 a7.5 7.5 0 1 0 15 0 a7.5 7.5 0 1 0 -15 0zM629.54 431.46 a7.5 7.5 0 1 0 15 0 a7.5 7.5 0 1 0 -15 0zM954.31 -56.04 a7.5 7.5 0 1 0 15 0 a7.5 7.5 0 1 0 -15 0zM1019.27 -18.54 a7.5 7.5 0 1 0 15 0 a7.5 7.5 0 1 0 -15 0zM1019.27 56.46 a7.5 7.5 0 1 0 15 0 a7.5 7.5 0 1 0 -15 0zM954.31 93.96 a7.5 7.5 0 1 0 15 0 a7.5 7.5 0 1 0 -15 0zM889.36 56.46 a7.5 7.5 0 1 0 15 0 a7.5 7.5 0 1 0 -15 0zM889.36 -18.54 a7.5 7.5 0 1 0 15 0 a7.5 7.5 0 1 0 -15 0zM1084.22 93.96 a7.5 7.5 0 1 0 15 0 a7.5 7.5 0 1 0 -15 0zM1084.22 168.96 a7.5 7.5 0 1 0 15 0 a7.5 7.5 0 1 0 -15 0zM1019.27 206.46 a7.5 7.5 0 1 0 15 0 a7.5 7.5 0 1 0 -15 0zM954.31 168.96 a7.5 7.5 0 1 0 15 0 a7.5 7.5 0 1 0 -15 0zM1019.27 281.46 a7.5 7.5 0 1 0 15 0 a7.5 7.5 0 1 0 -15 0zM1084.22 318.96 a7.5 7.5 0 1 0 15 0 a7.5 7.5 0 1 0 -15 0zM1084.22 393.96 a7.5 7.5 0 1 0 15 0 a7.5 7.5 0 1 0 -15 0zM1019.27 431.46 a7.5 7.5 0 1 0 15 0 a7.5 7.5 0 1 0 -15 0zM954.31 393.96 a7.5 7.5 0 1 0 15 0 a7.5 7.5 0 1 0 -15 0zM954.31 318.96 a7.5 7.5 0 1 0 15 0 a7.5 7.5 0 1 0 -15 0zM1019.27 506.46 a7.5 7.5 0 1 0 15 0 a7.5 7.5 0 1 0 -15 0zM1084.22 543.96 a7.5 7.5 0 1 0 15 0 a7.5 7.5 0 1 0 -15 0zM1084.22 618.96 a7.5 7.5 0 1 0 15 0 a7.5 7.5 0 1 0 -15 0zM1019.27 656.46 a7.5 7.5 0 1 0 15 0 a7.5 7.5 0 1 0 -15 0zM954.31 618.96 a7.5 7.5 0 1 0 15 0 a7.5 7.5 0 1 0 -15 0zM954.31 543.96 a7.5 7.5 0 1 0 15 0 a7.5 7.5 0 1 0 -15 0zM1084.22 -56.04 a7.5 7.5 0 1 0 15 0 a7.5 7.5 0 1 0 -15 0zM1149.17 -18.54 a7.5 7.5 0 1 0 15 0 a7.5 7.5 0 1 0 -15 0zM1149.17 56.46 a7.5 7.5 0 1 0 15 0 a7.5 7.5 0 1 0 -15 0zM1214.13 93.96 a7.5 7.5 0 1 0 15 0 a7.5 7.5 0 1 0 -15 0zM1214.13 168.96 a7.5 7.5 0 1 0 15 0 a7.5 7.5 0 1 0 -15 0zM1149.17 206.46 a7.5 7.5 0 1 0 15 0 a7.5 7.5 0 1 0 -15 0zM1149.17 281.46 a7.5 7.5 0 1 0 15 0 a7.5 7.5 0 1 0 -15 0zM1214.13 318.96 a7.5 7.5 0 1 0 15 0 a7.5 7.5 0 1 0 -15 0zM1214.13 393.96 a7.5 7.5 0 1 0 15 0 a7.5 7.5 0 1 0 -15 0zM1149.17 431.46 a7.5 7.5 0 1 0 15 0 a7.5 7.5 0 1 0 -15 0zM1149.17 506.46 a7.5 7.5 0 1 0 15 0 a7.5 7.5 0 1 0 -15 0zM1214.13 543.96 a7.5 7.5 0 1 0 15 0 a7.5 7.5 0 1 0 -15 0zM1214.13 618.96 a7.5 7.5 0 1 0 15 0 a7.5 7.5 0 1 0 -15 0zM1149.17 656.46 a7.5 7.5 0 1 0 15 0 a7.5 7.5 0 1 0 -15 0zM1214.13 -56.04 a7.5 7.5 0 1 0 15 0 a7.5 7.5 0 1 0 -15 0zM1279.08 -18.54 a7.5 7.5 0 1 0 15 0 a7.5 7.5 0 1 0 -15 0zM1279.08 56.46 a7.5 7.5 0 1 0 15 0 a7.5 7.5 0 1 0 -15 0zM1279.08 206.46 a7.5 7.5 0 1 0 15 0 a7.5 7.5 0 1 0 -15 0zM1279.08 281.46 a7.5 7.5 0 1 0 15 0 a7.5 7.5 0 1 0 -15 0zM1344.03 318.96 a7.5 7.5 0 1 0 15 0 a7.5 7.5 0 1 0 -15 0zM1344.03 393.96 a7.5 7.5 0 1 0 15 0 a7.5 7.5 0 1 0 -15 0zM1279.08 431.46 a7.5 7.5 0 1 0 15 0 a7.5 7.5 0 1 0 -15 0zM1344.04 168.96 a7.5 7.5 0 1 0 15 0 a7.5 7.5 0 1 0 -15 0zM1408.99 206.46 a7.5 7.5 0 1 0 15 0 a7.5 7.5 0 1 0 -15 0zM1408.99 281.46 a7.5 7.5 0 1 0 15 0 a7.5 7.5 0 1 0 -15 0zM1344.04 318.96 a7.5 7.5 0 1 0 15 0 a7.5 7.5 0 1 0 -15 0zM1473.94 318.96 a7.5 7.5 0 1 0 15 0 a7.5 7.5 0 1 0 -15 0zM1473.94 393.96 a7.5 7.5 0 1 0 15 0 a7.5 7.5 0 1 0 -15 0zM1408.99 431.46 a7.5 7.5 0 1 0 15 0 a7.5 7.5 0 1 0 -15 0zM1344.04 393.96 a7.5 7.5 0 1 0 15 0 a7.5 7.5 0 1 0 -15 0zM1408.99 506.46 a7.5 7.5 0 1 0 15 0 a7.5 7.5 0 1 0 -15 0zM1344.04 543.96 a7.5 7.5 0 1 0 15 0 a7.5 7.5 0 1 0 -15 0zM1279.08 506.46 a7.5 7.5 0 1 0 15 0 a7.5 7.5 0 1 0 -15 0zM1473.94 -56.04 a7.5 7.5 0 1 0 15 0 a7.5 7.5 0 1 0 -15 0zM1538.9 -18.54 a7.5 7.5 0 1 0 15 0 a7.5 7.5 0 1 0 -15 0zM1538.9 56.46 a7.5 7.5 0 1 0 15 0 a7.5 7.5 0 1 0 -15 0zM1473.94 93.96 a7.5 7.5 0 1 0 15 0 a7.5 7.5 0 1 0 -15 0zM1408.99 56.46 a7.5 7.5 0 1 0 15 0 a7.5 7.5 0 1 0 -15 0zM1408.99 -18.54 a7.5 7.5 0 1 0 15 0 a7.5 7.5 0 1 0 -15 0zM1473.94 168.96 a7.5 7.5 0 1 0 15 0 a7.5 7.5 0 1 0 -15 0zM1538.9 206.46 a7.5 7.5 0 1 0 15 0 a7.5 7.5 0 1 0 -15 0zM1538.9 281.46 a7.5 7.5 0 1 0 15 0 a7.5 7.5 0 1 0 -15 0zM1538.9 431.46 a7.5 7.5 0 1 0 15 0 a7.5 7.5 0 1 0 -15 0zM1538.9 506.46 a7.5 7.5 0 1 0 15 0 a7.5 7.5 0 1 0 -15 0zM1473.94 543.96 a7.5 7.5 0 1 0 15 0 a7.5 7.5 0 1 0 -15 0zM1603.85 543.96 a7.5 7.5 0 1 0 15 0 a7.5 7.5 0 1 0 -15 0zM1603.85 618.96 a7.5 7.5 0 1 0 15 0 a7.5 7.5 0 1 0 -15 0zM1538.9 656.46 a7.5 7.5 0 1 0 15 0 a7.5 7.5 0 1 0 -15 0zM1473.94 618.96 a7.5 7.5 0 1 0 15 0 a7.5 7.5 0 1 0 -15 0z" fill="#03305d"></path><path d="M0 -26L22.52 -13L22.52 13L0 26L-22.52 13L-22.52 -13zM22.52 13L45.03 26L45.03 52L22.52 65L0 52L0 26zM0 52L22.52 65L22.52 91L0 104L-22.52 91L-22.52 65zM22.52 91L45.03 104L45.03 130L22.52 143L0 130L0 104zM0 130L22.52 143L22.52 169L0 182L-22.52 169L-22.52 143zM22.52 169L45.03 182L45.03 208L22.52 221L0 208L0 182zM0 208L22.52 221L22.52 247L0 260L-22.52 247L-22.52 221zM22.52 247L45.03 260L45.03 286L22.52 299L0 286L0 260zM0 286L22.52 299L22.52 325L0 338L-22.52 325L-22.52 299zM22.52 325L45.03 338L45.03 364L22.52 377L0 364L0 338zM0 364L22.52 377L22.52 403L0 416L-22.52 403L-22.52 377zM22.52 403L45.03 416L45.03 442L22.52 455L0 442L0 416zM0 442L22.52 455L22.52 481L0 494L-22.52 481L-22.52 455zM22.52 481L45.03 494L45.03 520L22.52 533L0 520L0 494zM0 520L22.52 533L22.52 559L0 572L-22.52 559L-22.52 533zM45.03 -26L67.55 -13L67.55 13L45.03 26L22.52 13L22.52 -13zM67.55 13L90.07 26L90.07 52L67.55 65L45.03 52L45.03 26zM45.03 52L67.55 65L67.55 91L45.03 104L22.52 91L22.52 65zM67.55 91L90.07 104L90.07 130L67.55 143L45.03 130L45.03 104zM45.03 130L67.55 143L67.55 169L45.03 182L22.52 169L22.52 143zM67.55 169L90.07 182L90.07 208L67.55 221L45.03 208L45.03 182zM45.03 208L67.55 221L67.55 247L45.03 260L22.52 247L22.52 221zM67.55 247L90.07 260L90.07 286L67.55 299L45.03 286L45.03 260zM45.03 286L67.55 299L67.55 325L45.03 338L22.52 325L22.52 299zM67.55 325L90.07 338L90.07 364L67.55 377L45.03 364L45.03 338zM45.03 364L67.55 377L67.55 403L45.03 416L22.52 403L22.52 377zM67.55 403L90.07 416L90.07 442L67.55 455L45.03 442L45.03 416zM45.03 442L67.55 455L67.55 481L45.03 494L22.52 481L22.52 455zM67.55 481L90.07 494L90.07 520L67.55 533L45.03 520L45.03 494zM45.03 520L67.55 533L67.55 559L45.03 572L22.52 559L22.52 533zM90.07 -26L112.59 -13L112.59 13L90.07 26L67.55 13L67.55 -13zM112.59 13L135.1 26L135.1 52L112.59 65L90.07 52L90.07 26zM90.07 52L112.59 65L112.59 91L90.07 104L67.55 91L67.55 65zM112.59 91L135.1 104L135.1 130L112.59 143L90.07 130L90.07 104zM90.07 130L112.59 143L112.59 169L90.07 182L67.55 169L67.55 143zM112.59 169L135.1 182L135.1 208L112.59 221L90.07 208L90.07 182zM90.07 208L112.59 221L112.59 247L90.07 260L67.55 247L67.55 221zM112.59 247L135.1 260L135.1 286L112.59 299L90.07 286L90.07 260zM90.07 286L112.59 299L112.59 325L90.07 338L67.55 325L67.55 299zM112.59 325L135.1 338L135.1 364L112.59 377L90.07 364L90.07 338zM90.07 364L112.59 377L112.59 403L90.07 416L67.55 403L67.55 377zM112.59 403L135.1 416L135.1 442L112.59 455L90.07 442L90.07 416zM90.07 442L112.59 455L112.59 481L90.07 494L67.55 481L67.55 455zM112.59 481L135.1 494L135.1 520L112.59 533L90.07 520L90.07 494zM90.07 520L112.59 533L112.59 559L90.07 572L67.55 559L67.55 533zM135.1 -26L157.62 -13L157.62 13L135.1 26L112.59 13L112.59 -13zM157.62 13L180.14 26L180.14 52L157.62 65L135.1 52L135.1 26zM135.1 52L157.62 65L157.62 91L135.1 104L112.59 91L112.59 65zM157.62 91L180.14 104L180.14 130L157.62 143L135.1 130L135.1 104zM135.1 130L157.62 143L157.62 169L135.1 182L112.59 169L112.59 143zM157.62 169L180.14 182L180.14 208L157.62 221L135.1 208L135.1 182zM135.1 208L157.62 221L157.62 247L135.1 260L112.59 247L112.59 221zM157.62 247L180.14 260L180.14 286L157.62 299L135.1 286L135.1 260zM135.1 286L157.62 299L157.62 325L135.1 338L112.59 325L112.59 299zM157.62 325L180.14 338L180.14 364L157.62 377L135.1 364L135.1 338zM135.1 364L157.62 377L157.62 403L135.1 416L112.59 403L112.59 377zM157.62 403L180.14 416L180.14 442L157.62 455L135.1 442L135.1 416zM135.1 442L157.62 455L157.62 481L135.1 494L112.59 481L112.59 455zM157.62 481L180.14 494L180.14 520L157.62 533L135.1 520L135.1 494zM135.1 520L157.62 533L157.62 559L135.1 572L112.59 559L112.59 533zM180.14 -26L202.66 -13L202.66 13L180.14 26L157.62 13L157.62 -13zM202.66 13L225.17 26L225.17 52L202.66 65L180.14 52L180.14 26zM180.14 52L202.66 65L202.66 91L180.14 104L157.62 91L157.62 65zM202.66 91L225.17 104L225.17 130L202.66 143L180.14 130L180.14 104zM180.14 130L202.66 143L202.66 169L180.14 182L157.62 169L157.62 143zM202.66 169L225.17 182L225.17 208L202.66 221L180.14 208L180.14 182zM180.14 208L202.66 221L202.66 247L180.14 260L157.62 247L157.62 221zM202.66 247L225.17 260L225.17 286L202.66 299L180.14 286L180.14 260zM180.14 286L202.66 299L202.66 325L180.14 338L157.62 325L157.62 299zM202.66 325L225.17 338L225.17 364L202.66 377L180.14 364L180.14 338zM180.14 364L202.66 377L202.66 403L180.14 416L157.62 403L157.62 377zM202.66 403L225.17 416L225.17 442L202.66 455L180.14 442L180.14 416zM180.14 442L202.66 455L202.66 481L180.14 494L157.62 481L157.62 455zM202.66 481L225.17 494L225.17 520L202.66 533L180.14 520L180.14 494zM180.14 520L202.66 533L202.66 559L180.14 572L157.62 559L157.62 533zM225.17 -26L247.69 -13L247.69 13L225.17 26L202.66 13L202.66 -13zM247.69 13L270.21 26L270.21 52L247.69 65L225.17 52L225.17 26zM225.17 52L247.69 65L247.69 91L225.17 104L202.66 91L202.66 65zM247.69 91L270.21 104L270.21 130L247.69 143L225.17 130L225.17 104zM225.17 130L247.69 143L247.69 169L225.17 182L202.66 169L202.66 143zM247.69 169L270.21 182L270.21 208L247.69 221L225.17 208L225.17 182zM225.17 208L247.69 221L247.69 247L225.17 260L202.66 247L202.66 221zM247.69 247L270.21 260L270.21 286L247.69 299L225.17 286L225.17 260zM225.17 286L247.69 299L247.69 325L225.17 338L202.66 325L202.66 299zM247.69 325L270.21 338L270.21 364L247.69 377L225.17 364L225.17 338zM225.17 364L247.69 377L247.69 403L225.17 416L202.66 403L202.66 377zM247.69 403L270.21 416L270.21 442L247.69 455L225.17 442L225.17 416zM225.17 442L247.69 455L247.69 481L225.17 494L202.66 481L202.66 455zM247.69 481L270.21 494L270.21 520L247.69 533L225.17 520L225.17 494zM225.17 520L247.69 533L247.69 559L225.17 572L202.66 559L202.66 533zM270.21 -26L292.72 -13L292.72 13L270.21 26L247.69 13L247.69 -13zM292.72 13L315.24 26L315.24 52L292.72 65L270.21 52L270.21 26zM270.21 52L292.72 65L292.72 91L270.21 104L247.69 91L247.69 65zM292.72 91L315.24 104L315.24 130L292.72 143L270.21 130L270.21 104zM270.21 130L292.72 143L292.72 169L270.21 182L247.69 169L247.69 143zM292.72 169L315.24 182L315.24 208L292.72 221L270.21 208L270.21 182zM270.21 208L292.72 221L292.72 247L270.21 260L247.69 247L247.69 221zM292.72 247L315.24 260L315.24 286L292.72 299L270.21 286L270.21 260zM270.21 286L292.72 299L292.72 325L270.21 338L247.69 325L247.69 299zM292.72 325L315.24 338L315.24 364L292.72 377L270.21 364L270.21 338zM270.21 364L292.72 377L292.72 403L270.21 416L247.69 403L247.69 377zM292.72 403L315.24 416L315.24 442L292.72 455L270.21 442L270.21 416zM270.21 442L292.72 455L292.72 481L270.21 494L247.69 481L247.69 455zM292.72 481L315.24 494L315.24 520L292.72 533L270.21 520L270.21 494zM270.21 520L292.72 533L292.72 559L270.21 572L247.69 559L247.69 533zM315.24 -26L337.76 -13L337.76 13L315.24 26L292.72 13L292.72 -13zM337.76 13L360.28 26L360.28 52L337.76 65L315.24 52L315.24 26zM315.24 52L337.76 65L337.76 91L315.24 104L292.72 91L292.72 65zM337.76 91L360.28 104L360.28 130L337.76 143L315.24 130L315.24 104zM315.24 130L337.76 143L337.76 169L315.24 182L292.72 169L292.72 143zM337.76 169L360.28 182L360.28 208L337.76 221L315.24 208L315.24 182zM315.24 208L337.76 221L337.76 247L315.24 260L292.72 247L292.72 221zM337.76 247L360.28 260L360.28 286L337.76 299L315.24 286L315.24 260zM315.24 286L337.76 299L337.76 325L315.24 338L292.72 325L292.72 299zM337.76 325L360.28 338L360.28 364L337.76 377L315.24 364L315.24 338zM315.24 364L337.76 377L337.76 403L315.24 416L292.72 403L292.72 377zM337.76 403L360.28 416L360.28 442L337.76 455L315.24 442L315.24 416zM315.24 442L337.76 455L337.76 481L315.24 494L292.72 481L292.72 455zM337.76 481L360.28 494L360.28 520L337.76 533L315.24 520L315.24 494zM315.24 520L337.76 533L337.76 559L315.24 572L292.72 559L292.72 533zM360.28 -26L382.79 -13L382.79 13L360.28 26L337.76 13L337.76 -13zM382.79 13L405.31 26L405.31 52L382.79 65L360.28 52L360.28 26zM360.28 52L382.79 65L382.79 91L360.28 104L337.76 91L337.76 65zM382.79 91L405.31 104L405.31 130L382.79 143L360.28 130L360.28 104zM360.28 130L382.79 143L382.79 169L360.28 182L337.76 169L337.76 143zM382.79 169L405.31 182L405.31 208L382.79 221L360.28 208L360.28 182zM360.28 208L382.79 221L382.79 247L360.28 260L337.76 247L337.76 221zM382.79 247L405.31 260L405.31 286L382.79 299L360.28 286L360.28 260zM360.28 286L382.79 299L382.79 325L360.28 338L337.76 325L337.76 299zM382.79 325L405.31 338L405.31 364L382.79 377L360.28 364L360.28 338zM360.28 364L382.79 377L382.79 403L360.28 416L337.76 403L337.76 377zM382.79 403L405.31 416L405.31 442L382.79 455L360.28 442L360.28 416zM360.28 442L382.79 455L382.79 481L360.28 494L337.76 481L337.76 455zM382.79 481L405.31 494L405.31 520L382.79 533L360.28 520L360.28 494zM360.28 520L382.79 533L382.79 559L360.28 572L337.76 559L337.76 533zM405.31 -26L427.83 -13L427.83 13L405.31 26L382.79 13L382.79 -13zM427.83 13L450.35 26L450.35 52L427.83 65L405.31 52L405.31 26zM405.31 52L427.83 65L427.83 91L405.31 104L382.79 91L382.79 65zM427.83 91L450.35 104L450.35 130L427.83 143L405.31 130L405.31 104zM405.31 130L427.83 143L427.83 169L405.31 182L382.79 169L382.79 143zM427.83 169L450.35 182L450.35 208L427.83 221L405.31 208L405.31 182zM405.31 208L427.83 221L427.83 247L405.31 260L382.79 247L382.79 221zM427.83 247L450.35 260L450.35 286L427.83 299L405.31 286L405.31 260zM405.31 286L427.83 299L427.83 325L405.31 338L382.79 325L382.79 299zM427.83 325L450.35 338L450.35 364L427.83 377L405.31 364L405.31 338zM405.31 364L427.83 377L427.83 403L405.31 416L382.79 403L382.79 377zM427.83 403L450.35 416L450.35 442L427.83 455L405.31 442L405.31 416zM405.31 442L427.83 455L427.83 481L405.31 494L382.79 481L382.79 455zM427.83 481L450.35 494L450.35 520L427.83 533L405.31 520L405.31 494zM405.31 520L427.83 533L427.83 559L405.31 572L382.79 559L382.79 533zM450.35 -26L472.86 -13L472.86 13L450.35 26L427.83 13L427.83 -13zM472.86 13L495.38 26L495.38 52L472.86 65L450.35 52L450.35 26zM450.35 52L472.86 65L472.86 91L450.35 104L427.83 91L427.83 65zM472.86 91L495.38 104L495.38 130L472.86 143L450.35 130L450.35 104zM450.35 130L472.86 143L472.86 169L450.35 182L427.83 169L427.83 143zM472.86 169L495.38 182L495.38 208L472.86 221L450.35 208L450.35 182zM450.35 208L472.86 221L472.86 247L450.35 260L427.83 247L427.83 221zM472.86 247L495.38 260L495.38 286L472.86 299L450.35 286L450.35 260zM450.35 286L472.86 299L472.86 325L450.35 338L427.83 325L427.83 299zM472.86 325L495.38 338L495.38 364L472.86 377L450.35 364L450.35 338zM450.35 364L472.86 377L472.86 403L450.35 416L427.83 403L427.83 377zM472.86 403L495.38 416L495.38 442L472.86 455L450.35 442L450.35 416zM450.35 442L472.86 455L472.86 481L450.35 494L427.83 481L427.83 455zM472.86 481L495.38 494L495.38 520L472.86 533L450.35 520L450.35 494zM450.35 520L472.86 533L472.86 559L450.35 572L427.83 559L427.83 533zM495.38 -26L517.9 -13L517.9 13L495.38 26L472.86 13L472.86 -13zM517.9 13L540.42 26L540.42 52L517.9 65L495.38 52L495.38 26zM495.38 52L517.9 65L517.9 91L495.38 104L472.86 91L472.86 65zM517.9 91L540.42 104L540.42 130L517.9 143L495.38 130L495.38 104zM495.38 130L517.9 143L517.9 169L495.38 182L472.86 169L472.86 143zM517.9 169L540.42 182L540.42 208L517.9 221L495.38 208L495.38 182zM495.38 208L517.9 221L517.9 247L495.38 260L472.86 247L472.86 221zM517.9 247L540.42 260L540.42 286L517.9 299L495.38 286L495.38 260zM495.38 286L517.9 299L517.9 325L495.38 338L472.86 325L472.86 299zM517.9 325L540.42 338L540.42 364L517.9 377L495.38 364L495.38 338zM495.38 364L517.9 377L517.9 403L495.38 416L472.86 403L472.86 377zM517.9 403L540.42 416L540.42 442L517.9 455L495.38 442L495.38 416zM495.38 442L517.9 455L517.9 481L495.38 494L472.86 481L472.86 455zM517.9 481L540.42 494L540.42 520L517.9 533L495.38 520L495.38 494zM495.38 520L517.9 533L517.9 559L495.38 572L472.86 559L472.86 533zM540.42 -26L562.93 -13L562.93 13L540.42 26L517.9 13L517.9 -13zM562.93 13L585.45 26L585.45 52L562.93 65L540.42 52L540.42 26zM540.42 52L562.93 65L562.93 91L540.42 104L517.9 91L517.9 65zM562.93 91L585.45 104L585.45 130L562.93 143L540.42 130L540.42 104zM540.42 130L562.93 143L562.93 169L540.42 182L517.9 169L517.9 143zM562.93 169L585.45 182L585.45 208L562.93 221L540.42 208L540.42 182zM540.42 208L562.93 221L562.93 247L540.42 260L517.9 247L517.9 221zM562.93 247L585.45 260L585.45 286L562.93 299L540.42 286L540.42 260zM540.42 286L562.93 299L562.93 325L540.42 338L517.9 325L517.9 299zM562.93 325L585.45 338L585.45 364L562.93 377L540.42 364L540.42 338zM540.42 364L562.93 377L562.93 403L540.42 416L517.9 403L517.9 377zM562.93 403L585.45 416L585.45 442L562.93 455L540.42 442L540.42 416zM540.42 442L562.93 455L562.93 481L540.42 494L517.9 481L517.9 455zM562.93 481L585.45 494L585.45 520L562.93 533L540.42 520L540.42 494zM540.42 520L562.93 533L562.93 559L540.42 572L517.9 559L517.9 533zM585.45 -26L607.97 -13L607.97 13L585.45 26L562.93 13L562.93 -13zM607.97 13L630.48 26L630.48 52L607.97 65L585.45 52L585.45 26zM585.45 52L607.97 65L607.97 91L585.45 104L562.93 91L562.93 65zM607.97 91L630.48 104L630.48 130L607.97 143L585.45 130L585.45 104zM585.45 130L607.97 143L607.97 169L585.45 182L562.93 169L562.93 143zM607.97 169L630.48 182L630.48 208L607.97 221L585.45 208L585.45 182zM585.45 208L607.97 221L607.97 247L585.45 260L562.93 247L562.93 221zM607.97 247L630.48 260L630.48 286L607.97 299L585.45 286L585.45 260zM585.45 286L607.97 299L607.97 325L585.45 338L562.93 325L562.93 299zM607.97 325L630.48 338L630.48 364L607.97 377L585.45 364L585.45 338zM585.45 364L607.97 377L607.97 403L585.45 416L562.93 403L562.93 377zM607.97 403L630.48 416L630.48 442L607.97 455L585.45 442L585.45 416zM585.45 442L607.97 455L607.97 481L585.45 494L562.93 481L562.93 455zM607.97 481L630.48 494L630.48 520L607.97 533L585.45 520L585.45 494zM585.45 520L607.97 533L607.97 559L585.45 572L562.93 559L562.93 533zM630.48 -26L653 -13L653 13L630.48 26L607.97 13L607.97 -13zM653 13L675.52 26L675.52 52L653 65L630.48 52L630.48 26zM630.48 52L653 65L653 91L630.48 104L607.97 91L607.97 65zM653 91L675.52 104L675.52 130L653 143L630.48 130L630.48 104zM630.48 130L653 143L653 169L630.48 182L607.97 169L607.97 143zM653 169L675.52 182L675.52 208L653 221L630.48 208L630.48 182zM630.48 208L653 221L653 247L630.48 260L607.97 247L607.97 221zM653 247L675.52 260L675.52 286L653 299L630.48 286L630.48 260zM630.48 286L653 299L653 325L630.48 338L607.97 325L607.97 299zM653 325L675.52 338L675.52 364L653 377L630.48 364L630.48 338zM630.48 364L653 377L653 403L630.48 416L607.97 403L607.97 377zM653 403L675.52 416L675.52 442L653 455L630.48 442L630.48 416zM630.48 442L653 455L653 481L630.48 494L607.97 481L607.97 455zM653 481L675.52 494L675.52 520L653 533L630.48 520L630.48 494zM630.48 520L653 533L653 559L630.48 572L607.97 559L607.97 533zM675.52 -26L698.04 -13L698.04 13L675.52 26L653 13L653 -13zM698.04 13L720.55 26L720.55 52L698.04 65L675.52 52L675.52 26zM675.52 52L698.04 65L698.04 91L675.52 104L653 91L653 65zM698.04 91L720.55 104L720.55 130L698.04 143L675.52 130L675.52 104zM675.52 130L698.04 143L698.04 169L675.52 182L653 169L653 143zM698.04 169L720.55 182L720.55 208L698.04 221L675.52 208L675.52 182zM675.52 208L698.04 221L698.04 247L675.52 260L653 247L653 221zM698.04 247L720.55 260L720.55 286L698.04 299L675.52 286L675.52 260zM675.52 286L698.04 299L698.04 325L675.52 338L653 325L653 299zM698.04 325L720.55 338L720.55 364L698.04 377L675.52 364L675.52 338zM675.52 364L698.04 377L698.04 403L675.52 416L653 403L653 377zM698.04 403L720.55 416L720.55 442L698.04 455L675.52 442L675.52 416zM675.52 442L698.04 455L698.04 481L675.52 494L653 481L653 455zM698.04 481L720.55 494L720.55 520L698.04 533L675.52 520L675.52 494zM675.52 520L698.04 533L698.04 559L675.52 572L653 559L653 533zM720.55 -26L743.07 -13L743.07 13L720.55 26L698.04 13L698.04 -13zM743.07 13L765.59 26L765.59 52L743.07 65L720.55 52L720.55 26zM720.55 52L743.07 65L743.07 91L720.55 104L698.04 91L698.04 65zM743.07 91L765.59 104L765.59 130L743.07 143L720.55 130L720.55 104zM720.55 130L743.07 143L743.07 169L720.55 182L698.04 169L698.04 143zM743.07 169L765.59 182L765.59 208L743.07 221L720.55 208L720.55 182zM720.55 208L743.07 221L743.07 247L720.55 260L698.04 247L698.04 221zM743.07 247L765.59 260L765.59 286L743.07 299L720.55 286L720.55 260zM720.55 286L743.07 299L743.07 325L720.55 338L698.04 325L698.04 299zM743.07 325L765.59 338L765.59 364L743.07 377L720.55 364L720.55 338zM720.55 364L743.07 377L743.07 403L720.55 416L698.04 403L698.04 377zM743.07 403L765.59 416L765.59 442L743.07 455L720.55 442L720.55 416zM720.55 442L743.07 455L743.07 481L720.55 494L698.04 481L698.04 455zM743.07 481L765.59 494L765.59 520L743.07 533L720.55 520L720.55 494zM720.55 520L743.07 533L743.07 559L720.55 572L698.04 559L698.04 533zM765.59 -26L788.11 -13L788.11 13L765.59 26L743.07 13L743.07 -13zM788.11 13L810.62 26L810.62 52L788.11 65L765.59 52L765.59 26zM765.59 52L788.11 65L788.11 91L765.59 104L743.07 91L743.07 65zM788.11 91L810.62 104L810.62 130L788.11 143L765.59 130L765.59 104zM765.59 130L788.11 143L788.11 169L765.59 182L743.07 169L743.07 143zM788.11 169L810.62 182L810.62 208L788.11 221L765.59 208L765.59 182zM765.59 208L788.11 221L788.11 247L765.59 260L743.07 247L743.07 221zM788.11 247L810.62 260L810.62 286L788.11 299L765.59 286L765.59 260zM765.59 286L788.11 299L788.11 325L765.59 338L743.07 325L743.07 299zM788.11 325L810.62 338L810.62 364L788.11 377L765.59 364L765.59 338zM765.59 364L788.11 377L788.11 403L765.59 416L743.07 403L743.07 377zM788.11 403L810.62 416L810.62 442L788.11 455L765.59 442L765.59 416zM765.59 442L788.11 455L788.11 481L765.59 494L743.07 481L743.07 455zM788.11 481L810.62 494L810.62 520L788.11 533L765.59 520L765.59 494zM765.59 520L788.11 533L788.11 559L765.59 572L743.07 559L743.07 533zM810.62 -26L833.14 -13L833.14 13L810.62 26L788.11 13L788.11 -13zM833.14 13L855.66 26L855.66 52L833.14 65L810.62 52L810.62 26zM810.62 52L833.14 65L833.14 91L810.62 104L788.11 91L788.11 65zM833.14 91L855.66 104L855.66 130L833.14 143L810.62 130L810.62 104zM810.62 130L833.14 143L833.14 169L810.62 182L788.11 169L788.11 143zM833.14 169L855.66 182L855.66 208L833.14 221L810.62 208L810.62 182zM810.62 208L833.14 221L833.14 247L810.62 260L788.11 247L788.11 221zM833.14 247L855.66 260L855.66 286L833.14 299L810.62 286L810.62 260zM810.62 286L833.14 299L833.14 325L810.62 338L788.11 325L788.11 299zM833.14 325L855.66 338L855.66 364L833.14 377L810.62 364L810.62 338zM810.62 364L833.14 377L833.14 403L810.62 416L788.11 403L788.11 377zM833.14 403L855.66 416L855.66 442L833.14 455L810.62 442L810.62 416zM810.62 442L833.14 455L833.14 481L810.62 494L788.11 481L788.11 455zM833.14 481L855.66 494L855.66 520L833.14 533L810.62 520L810.62 494zM810.62 520L833.14 533L833.14 559L810.62 572L788.11 559L788.11 533zM855.66 -26L878.17 -13L878.17 13L855.66 26L833.14 13L833.14 -13zM878.17 13L900.69 26L900.69 52L878.17 65L855.66 52L855.66 26zM855.66 52L878.17 65L878.17 91L855.66 104L833.14 91L833.14 65zM878.17 91L900.69 104L900.69 130L878.17 143L855.66 130L855.66 104zM855.66 130L878.17 143L878.17 169L855.66 182L833.14 169L833.14 143zM878.17 169L900.69 182L900.69 208L878.17 221L855.66 208L855.66 182zM855.66 208L878.17 221L878.17 247L855.66 260L833.14 247L833.14 221zM878.17 247L900.69 260L900.69 286L878.17 299L855.66 286L855.66 260zM855.66 286L878.17 299L878.17 325L855.66 338L833.14 325L833.14 299zM878.17 325L900.69 338L900.69 364L878.17 377L855.66 364L855.66 338zM855.66 364L878.17 377L878.17 403L855.66 416L833.14 403L833.14 377zM878.17 403L900.69 416L900.69 442L878.17 455L855.66 442L855.66 416zM855.66 442L878.17 455L878.17 481L855.66 494L833.14 481L833.14 455zM878.17 481L900.69 494L900.69 520L878.17 533L855.66 520L855.66 494zM855.66 520L878.17 533L878.17 559L855.66 572L833.14 559L833.14 533zM900.69 -26L923.21 -13L923.21 13L900.69 26L878.17 13L878.17 -13zM923.21 13L945.73 26L945.73 52L923.21 65L900.69 52L900.69 26zM900.69 52L923.21 65L923.21 91L900.69 104L878.17 91L878.17 65zM923.21 91L945.73 104L945.73 130L923.21 143L900.69 130L900.69 104zM900.69 130L923.21 143L923.21 169L900.69 182L878.17 169L878.17 143zM923.21 169L945.73 182L945.73 208L923.21 221L900.69 208L900.69 182zM900.69 208L923.21 221L923.21 247L900.69 260L878.17 247L878.17 221zM923.21 247L945.73 260L945.73 286L923.21 299L900.69 286L900.69 260zM900.69 286L923.21 299L923.21 325L900.69 338L878.17 325L878.17 299zM923.21 325L945.73 338L945.73 364L923.21 377L900.69 364L900.69 338zM900.69 364L923.21 377L923.21 403L900.69 416L878.17 403L878.17 377zM923.21 403L945.73 416L945.73 442L923.21 455L900.69 442L900.69 416zM900.69 442L923.21 455L923.21 481L900.69 494L878.17 481L878.17 455zM923.21 481L945.73 494L945.73 520L923.21 533L900.69 520L900.69 494zM900.69 520L923.21 533L923.21 559L900.69 572L878.17 559L878.17 533zM945.73 -26L968.24 -13L968.24 13L945.73 26L923.21 13L923.21 -13zM968.24 13L990.76 26L990.76 52L968.24 65L945.73 52L945.73 26zM945.73 52L968.24 65L968.24 91L945.73 104L923.21 91L923.21 65zM968.24 91L990.76 104L990.76 130L968.24 143L945.73 130L945.73 104zM945.73 130L968.24 143L968.24 169L945.73 182L923.21 169L923.21 143zM968.24 169L990.76 182L990.76 208L968.24 221L945.73 208L945.73 182zM945.73 208L968.24 221L968.24 247L945.73 260L923.21 247L923.21 221zM968.24 247L990.76 260L990.76 286L968.24 299L945.73 286L945.73 260zM945.73 286L968.24 299L968.24 325L945.73 338L923.21 325L923.21 299zM968.24 325L990.76 338L990.76 364L968.24 377L945.73 364L945.73 338zM945.73 364L968.24 377L968.24 403L945.73 416L923.21 403L923.21 377zM968.24 403L990.76 416L990.76 442L968.24 455L945.73 442L945.73 416zM945.73 442L968.24 455L968.24 481L945.73 494L923.21 481L923.21 455zM968.24 481L990.76 494L990.76 520L968.24 533L945.73 520L945.73 494zM945.73 520L968.24 533L968.24 559L945.73 572L923.21 559L923.21 533zM990.76 -26L1013.28 -13L1013.28 13L990.76 26L968.24 13L968.24 -13zM1013.28 13L1035.8 26L1035.8 52L1013.28 65L990.76 52L990.76 26zM990.76 52L1013.28 65L1013.28 91L990.76 104L968.24 91L968.24 65zM1013.28 91L1035.8 104L1035.8 130L1013.28 143L990.76 130L990.76 104zM990.76 130L1013.28 143L1013.28 169L990.76 182L968.24 169L968.24 143zM1013.28 169L1035.8 182L1035.8 208L1013.28 221L990.76 208L990.76 182zM990.76 208L1013.28 221L1013.28 247L990.76 260L968.24 247L968.24 221zM1013.28 247L1035.8 260L1035.8 286L1013.28 299L990.76 286L990.76 260zM990.76 286L1013.28 299L1013.28 325L990.76 338L968.24 325L968.24 299zM1013.28 325L1035.8 338L1035.8 364L1013.28 377L990.76 364L990.76 338zM990.76 364L1013.28 377L1013.28 403L990.76 416L968.24 403L968.24 377zM1013.28 403L1035.8 416L1035.8 442L1013.28 455L990.76 442L990.76 416zM990.76 442L1013.28 455L1013.28 481L990.76 494L968.24 481L968.24 455zM1013.28 481L1035.8 494L1035.8 520L1013.28 533L990.76 520L990.76 494zM990.76 520L1013.28 533L1013.28 559L990.76 572L968.24 559L968.24 533zM1035.8 -26L1058.31 -13L1058.31 13L1035.8 26L1013.28 13L1013.28 -13zM1058.31 13L1080.83 26L1080.83 52L1058.31 65L1035.8 52L1035.8 26zM1035.8 52L1058.31 65L1058.31 91L1035.8 104L1013.28 91L1013.28 65zM1058.31 91L1080.83 104L1080.83 130L1058.31 143L1035.8 130L1035.8 104zM1035.8 130L1058.31 143L1058.31 169L1035.8 182L1013.28 169L1013.28 143zM1058.31 169L1080.83 182L1080.83 208L1058.31 221L1035.8 208L1035.8 182zM1035.8 208L1058.31 221L1058.31 247L1035.8 260L1013.28 247L1013.28 221zM1058.31 247L1080.83 260L1080.83 286L1058.31 299L1035.8 286L1035.8 260zM1035.8 286L1058.31 299L1058.31 325L1035.8 338L1013.28 325L1013.28 299zM1058.31 325L1080.83 338L1080.83 364L1058.31 377L1035.8 364L1035.8 338zM1035.8 364L1058.31 377L1058.31 403L1035.8 416L1013.28 403L1013.28 377zM1058.31 403L1080.83 416L1080.83 442L1058.31 455L1035.8 442L1035.8 416zM1035.8 442L1058.31 455L1058.31 481L1035.8 494L1013.28 481L1013.28 455zM1058.31 481L1080.83 494L1080.83 520L1058.31 533L1035.8 520L1035.8 494zM1035.8 520L1058.31 533L1058.31 559L1035.8 572L1013.28 559L1013.28 533zM1080.83 -26L1103.35 -13L1103.35 13L1080.83 26L1058.31 13L1058.31 -13zM1103.35 13L1125.86 26L1125.86 52L1103.35 65L1080.83 52L1080.83 26zM1080.83 52L1103.35 65L1103.35 91L1080.83 104L1058.31 91L1058.31 65zM1103.35 91L1125.86 104L1125.86 130L1103.35 143L1080.83 130L1080.83 104zM1080.83 130L1103.35 143L1103.35 169L1080.83 182L1058.31 169L1058.31 143zM1103.35 169L1125.86 182L1125.86 208L1103.35 221L1080.83 208L1080.83 182zM1080.83 208L1103.35 221L1103.35 247L1080.83 260L1058.31 247L1058.31 221zM1103.35 247L1125.86 260L1125.86 286L1103.35 299L1080.83 286L1080.83 260zM1080.83 286L1103.35 299L1103.35 325L1080.83 338L1058.31 325L1058.31 299zM1103.35 325L1125.86 338L1125.86 364L1103.35 377L1080.83 364L1080.83 338zM1080.83 364L1103.35 377L1103.35 403L1080.83 416L1058.31 403L1058.31 377zM1103.35 403L1125.86 416L1125.86 442L1103.35 455L1080.83 442L1080.83 416zM1080.83 442L1103.35 455L1103.35 481L1080.83 494L1058.31 481L1058.31 455zM1103.35 481L1125.86 494L1125.86 520L1103.35 533L1080.83 520L1080.83 494zM1080.83 520L1103.35 533L1103.35 559L1080.83 572L1058.31 559L1058.31 533zM1125.87 -26L1148.38 -13L1148.38 13L1125.87 26L1103.35 13L1103.35 -13zM1148.38 13L1170.9 26L1170.9 52L1148.38 65L1125.87 52L1125.87 26zM1125.87 52L1148.38 65L1148.38 91L1125.87 104L1103.35 91L1103.35 65zM1148.38 91L1170.9 104L1170.9 130L1148.38 143L1125.87 130L1125.87 104zM1125.87 130L1148.38 143L1148.38 169L1125.87 182L1103.35 169L1103.35 143zM1148.38 169L1170.9 182L1170.9 208L1148.38 221L1125.87 208L1125.87 182zM1125.87 208L1148.38 221L1148.38 247L1125.87 260L1103.35 247L1103.35 221zM1148.38 247L1170.9 260L1170.9 286L1148.38 299L1125.87 286L1125.87 260zM1125.87 286L1148.38 299L1148.38 325L1125.87 338L1103.35 325L1103.35 299zM1148.38 325L1170.9 338L1170.9 364L1148.38 377L1125.87 364L1125.87 338zM1125.87 364L1148.38 377L1148.38 403L1125.87 416L1103.35 403L1103.35 377zM1148.38 403L1170.9 416L1170.9 442L1148.38 455L1125.87 442L1125.87 416zM1125.87 442L1148.38 455L1148.38 481L1125.87 494L1103.35 481L1103.35 455zM1148.38 481L1170.9 494L1170.9 520L1148.38 533L1125.87 520L1125.87 494zM1125.87 520L1148.38 533L1148.38 559L1125.87 572L1103.35 559L1103.35 533zM1170.9 -26L1193.42 -13L1193.42 13L1170.9 26L1148.38 13L1148.38 -13zM1193.42 13L1215.93 26L1215.93 52L1193.42 65L1170.9 52L1170.9 26zM1170.9 52L1193.42 65L1193.42 91L1170.9 104L1148.38 91L1148.38 65zM1193.42 91L1215.93 104L1215.93 130L1193.42 143L1170.9 130L1170.9 104zM1170.9 130L1193.42 143L1193.42 169L1170.9 182L1148.38 169L1148.38 143zM1193.42 169L1215.93 182L1215.93 208L1193.42 221L1170.9 208L1170.9 182zM1170.9 208L1193.42 221L1193.42 247L1170.9 260L1148.38 247L1148.38 221zM1193.42 247L1215.93 260L1215.93 286L1193.42 299L1170.9 286L1170.9 260zM1170.9 286L1193.42 299L1193.42 325L1170.9 338L1148.38 325L1148.38 299zM1193.42 325L1215.93 338L1215.93 364L1193.42 377L1170.9 364L1170.9 338zM1170.9 364L1193.42 377L1193.42 403L1170.9 416L1148.38 403L1148.38 377zM1193.42 403L1215.93 416L1215.93 442L1193.42 455L1170.9 442L1170.9 416zM1170.9 442L1193.42 455L1193.42 481L1170.9 494L1148.38 481L1148.38 455zM1193.42 481L1215.93 494L1215.93 520L1193.42 533L1170.9 520L1170.9 494zM1170.9 520L1193.42 533L1193.42 559L1170.9 572L1148.38 559L1148.38 533zM1215.93 -26L1238.45 -13L1238.45 13L1215.93 26L1193.42 13L1193.42 -13zM1238.45 13L1260.97 26L1260.97 52L1238.45 65L1215.93 52L1215.93 26zM1215.93 52L1238.45 65L1238.45 91L1215.93 104L1193.42 91L1193.42 65zM1238.45 91L1260.97 104L1260.97 130L1238.45 143L1215.93 130L1215.93 104zM1215.93 130L1238.45 143L1238.45 169L1215.93 182L1193.42 169L1193.42 143zM1238.45 169L1260.97 182L1260.97 208L1238.45 221L1215.93 208L1215.93 182zM1215.93 208L1238.45 221L1238.45 247L1215.93 260L1193.42 247L1193.42 221zM1238.45 247L1260.97 260L1260.97 286L1238.45 299L1215.93 286L1215.93 260zM1215.93 286L1238.45 299L1238.45 325L1215.93 338L1193.42 325L1193.42 299zM1238.45 325L1260.97 338L1260.97 364L1238.45 377L1215.93 364L1215.93 338zM1215.93 364L1238.45 377L1238.45 403L1215.93 416L1193.42 403L1193.42 377zM1238.45 403L1260.97 416L1260.97 442L1238.45 455L1215.93 442L1215.93 416zM1215.93 442L1238.45 455L1238.45 481L1215.93 494L1193.42 481L1193.42 455zM1238.45 481L1260.97 494L1260.97 520L1238.45 533L1215.93 520L1215.93 494zM1215.93 520L1238.45 533L1238.45 559L1215.93 572L1193.42 559L1193.42 533zM1260.97 -26L1283.49 -13L1283.49 13L1260.97 26L1238.45 13L1238.45 -13zM1283.49 13L1306 26L1306 52L1283.49 65L1260.97 52L1260.97 26zM1260.97 52L1283.49 65L1283.49 91L1260.97 104L1238.45 91L1238.45 65zM1283.49 91L1306 104L1306 130L1283.49 143L1260.97 130L1260.97 104zM1260.97 130L1283.49 143L1283.49 169L1260.97 182L1238.45 169L1238.45 143zM1283.49 169L1306 182L1306 208L1283.49 221L1260.97 208L1260.97 182zM1260.97 208L1283.49 221L1283.49 247L1260.97 260L1238.45 247L1238.45 221zM1283.49 247L1306 260L1306 286L1283.49 299L1260.97 286L1260.97 260zM1260.97 286L1283.49 299L1283.49 325L1260.97 338L1238.45 325L1238.45 299zM1283.49 325L1306 338L1306 364L1283.49 377L1260.97 364L1260.97 338zM1260.97 364L1283.49 377L1283.49 403L1260.97 416L1238.45 403L1238.45 377zM1283.49 403L1306 416L1306 442L1283.49 455L1260.97 442L1260.97 416zM1260.97 442L1283.49 455L1283.49 481L1260.97 494L1238.45 481L1238.45 455zM1283.49 481L1306 494L1306 520L1283.49 533L1260.97 520L1260.97 494zM1260.97 520L1283.49 533L1283.49 559L1260.97 572L1238.45 559L1238.45 533zM1306 -26L1328.52 -13L1328.52 13L1306 26L1283.49 13L1283.49 -13zM1328.52 13L1351.04 26L1351.04 52L1328.52 65L1306 52L1306 26zM1306 52L1328.52 65L1328.52 91L1306 104L1283.49 91L1283.49 65zM1328.52 91L1351.04 104L1351.04 130L1328.52 143L1306 130L1306 104zM1306 130L1328.52 143L1328.52 169L1306 182L1283.49 169L1283.49 143zM1328.52 169L1351.04 182L1351.04 208L1328.52 221L1306 208L1306 182zM1306 208L1328.52 221L1328.52 247L1306 260L1283.49 247L1283.49 221zM1328.52 247L1351.04 260L1351.04 286L1328.52 299L1306 286L1306 260zM1306 286L1328.52 299L1328.52 325L1306 338L1283.49 325L1283.49 299zM1328.52 325L1351.04 338L1351.04 364L1328.52 377L1306 364L1306 338zM1306 364L1328.52 377L1328.52 403L1306 416L1283.49 403L1283.49 377zM1328.52 403L1351.04 416L1351.04 442L1328.52 455L1306 442L1306 416zM1306 442L1328.52 455L1328.52 481L1306 494L1283.49 481L1283.49 455zM1328.52 481L1351.04 494L1351.04 520L1328.52 533L1306 520L1306 494zM1306 520L1328.52 533L1328.52 559L1306 572L1283.49 559L1283.49 533zM1351.04 -26L1373.56 -13L1373.56 13L1351.04 26L1328.52 13L1328.52 -13zM1373.56 13L1396.07 26L1396.07 52L1373.56 65L1351.04 52L1351.04 26zM1351.04 52L1373.56 65L1373.56 91L1351.04 104L1328.52 91L1328.52 65zM1373.56 91L1396.07 104L1396.07 130L1373.56 143L1351.04 130L1351.04 104zM1351.04 130L1373.56 143L1373.56 169L1351.04 182L1328.52 169L1328.52 143zM1373.56 169L1396.07 182L1396.07 208L1373.56 221L1351.04 208L1351.04 182zM1351.04 208L1373.56 221L1373.56 247L1351.04 260L1328.52 247L1328.52 221zM1373.56 247L1396.07 260L1396.07 286L1373.56 299L1351.04 286L1351.04 260zM1351.04 286L1373.56 299L1373.56 325L1351.04 338L1328.52 325L1328.52 299zM1373.56 325L1396.07 338L1396.07 364L1373.56 377L1351.04 364L1351.04 338zM1351.04 364L1373.56 377L1373.56 403L1351.04 416L1328.52 403L1328.52 377zM1373.56 403L1396.07 416L1396.07 442L1373.56 455L1351.04 442L1351.04 416zM1351.04 442L1373.56 455L1373.56 481L1351.04 494L1328.52 481L1328.52 455zM1373.56 481L1396.07 494L1396.07 520L1373.56 533L1351.04 520L1351.04 494zM1351.04 520L1373.56 533L1373.56 559L1351.04 572L1328.52 559L1328.52 533zM1396.07 -26L1418.59 -13L1418.59 13L1396.07 26L1373.56 13L1373.56 -13zM1418.59 13L1441.11 26L1441.11 52L1418.59 65L1396.07 52L1396.07 26zM1396.07 52L1418.59 65L1418.59 91L1396.07 104L1373.56 91L1373.56 65zM1418.59 91L1441.11 104L1441.11 130L1418.59 143L1396.07 130L1396.07 104zM1396.07 130L1418.59 143L1418.59 169L1396.07 182L1373.56 169L1373.56 143zM1418.59 169L1441.11 182L1441.11 208L1418.59 221L1396.07 208L1396.07 182zM1396.07 208L1418.59 221L1418.59 247L1396.07 260L1373.56 247L1373.56 221zM1418.59 247L1441.11 260L1441.11 286L1418.59 299L1396.07 286L1396.07 260zM1396.07 286L1418.59 299L1418.59 325L1396.07 338L1373.56 325L1373.56 299zM1418.59 325L1441.11 338L1441.11 364L1418.59 377L1396.07 364L1396.07 338zM1396.07 364L1418.59 377L1418.59 403L1396.07 416L1373.56 403L1373.56 377zM1418.59 403L1441.11 416L1441.11 442L1418.59 455L1396.07 442L1396.07 416zM1396.07 442L1418.59 455L1418.59 481L1396.07 494L1373.56 481L1373.56 455zM1418.59 481L1441.11 494L1441.11 520L1418.59 533L1396.07 520L1396.07 494zM1396.07 520L1418.59 533L1418.59 559L1396.07 572L1373.56 559L1373.56 533zM1441.11 -26L1463.62 -13L1463.62 13L1441.11 26L1418.59 13L1418.59 -13zM1463.62 13L1486.14 26L1486.14 52L1463.62 65L1441.11 52L1441.11 26zM1441.11 52L1463.62 65L1463.62 91L1441.11 104L1418.59 91L1418.59 65zM1463.62 91L1486.14 104L1486.14 130L1463.62 143L1441.11 130L1441.11 104zM1441.11 130L1463.62 143L1463.62 169L1441.11 182L1418.59 169L1418.59 143zM1463.62 169L1486.14 182L1486.14 208L1463.62 221L1441.11 208L1441.11 182zM1441.11 208L1463.62 221L1463.62 247L1441.11 260L1418.59 247L1418.59 221zM1463.62 247L1486.14 260L1486.14 286L1463.62 299L1441.11 286L1441.11 260zM1441.11 286L1463.62 299L1463.62 325L1441.11 338L1418.59 325L1418.59 299zM1463.62 325L1486.14 338L1486.14 364L1463.62 377L1441.11 364L1441.11 338zM1441.11 364L1463.62 377L1463.62 403L1441.11 416L1418.59 403L1418.59 377zM1463.62 403L1486.14 416L1486.14 442L1463.62 455L1441.11 442L1441.11 416zM1441.11 442L1463.62 455L1463.62 481L1441.11 494L1418.59 481L1418.59 455zM1463.62 481L1486.14 494L1486.14 520L1463.62 533L1441.11 520L1441.11 494zM1441.11 520L1463.62 533L1463.62 559L1441.11 572L1418.59 559L1418.59 533z" stroke="rgba(10, 53, 173, 1)" stroke-width="2"></path><path d="M-3 -26 a3 3 0 1 0 6 0 a3 3 0 1 0 -6 0zM19.52 -13 a3 3 0 1 0 6 0 a3 3 0 1 0 -6 0zM19.52 13 a3 3 0 1 0 6 0 a3 3 0 1 0 -6 0zM-3 26 a3 3 0 1 0 6 0 a3 3 0 1 0 -6 0zM-25.52 13 a3 3 0 1 0 6 0 a3 3 0 1 0 -6 0zM-25.52 -13 a3 3 0 1 0 6 0 a3 3 0 1 0 -6 0zM42.03 26 a3 3 0 1 0 6 0 a3 3 0 1 0 -6 0zM42.03 52 a3 3 0 1 0 6 0 a3 3 0 1 0 -6 0zM19.52 65 a3 3 0 1 0 6 0 a3 3 0 1 0 -6 0zM-3 52 a3 3 0 1 0 6 0 a3 3 0 1 0 -6 0zM19.52 91 a3 3 0 1 0 6 0 a3 3 0 1 0 -6 0zM-3 104 a3 3 0 1 0 6 0 a3 3 0 1 0 -6 0zM-25.52 91 a3 3 0 1 0 6 0 a3 3 0 1 0 -6 0zM-25.52 65 a3 3 0 1 0 6 0 a3 3 0 1 0 -6 0zM42.03 104 a3 3 0 1 0 6 0 a3 3 0 1 0 -6 0zM42.03 130 a3 3 0 1 0 6 0 a3 3 0 1 0 -6 0zM19.52 143 a3 3 0 1 0 6 0 a3 3 0 1 0 -6 0zM-3 130 a3 3 0 1 0 6 0 a3 3 0 1 0 -6 0zM19.52 169 a3 3 0 1 0 6 0 a3 3 0 1 0 -6 0zM-3 182 a3 3 0 1 0 6 0 a3 3 0 1 0 -6 0zM-25.52 169 a3 3 0 1 0 6 0 a3 3 0 1 0 -6 0zM-25.52 143 a3 3 0 1 0 6 0 a3 3 0 1 0 -6 0zM42.03 182 a3 3 0 1 0 6 0 a3 3 0 1 0 -6 0zM42.03 208 a3 3 0 1 0 6 0 a3 3 0 1 0 -6 0zM19.52 221 a3 3 0 1 0 6 0 a3 3 0 1 0 -6 0zM-3 208 a3 3 0 1 0 6 0 a3 3 0 1 0 -6 0zM19.52 247 a3 3 0 1 0 6 0 a3 3 0 1 0 -6 0zM-3 260 a3 3 0 1 0 6 0 a3 3 0 1 0 -6 0zM-25.52 247 a3 3 0 1 0 6 0 a3 3 0 1 0 -6 0zM-25.52 221 a3 3 0 1 0 6 0 a3 3 0 1 0 -6 0zM42.03 260 a3 3 0 1 0 6 0 a3 3 0 1 0 -6 0zM42.03 286 a3 3 0 1 0 6 0 a3 3 0 1 0 -6 0zM19.52 299 a3 3 0 1 0 6 0 a3 3 0 1 0 -6 0zM-3 286 a3 3 0 1 0 6 0 a3 3 0 1 0 -6 0zM19.52 325 a3 3 0 1 0 6 0 a3 3 0 1 0 -6 0zM-3 338 a3 3 0 1 0 6 0 a3 3 0 1 0 -6 0zM-25.52 325 a3 3 0 1 0 6 0 a3 3 0 1 0 -6 0zM-25.52 299 a3 3 0 1 0 6 0 a3 3 0 1 0 -6 0zM42.03 338 a3 3 0 1 0 6 0 a3 3 0 1 0 -6 0zM42.03 364 a3 3 0 1 0 6 0 a3 3 0 1 0 -6 0zM19.52 377 a3 3 0 1 0 6 0 a3 3 0 1 0 -6 0zM-3 364 a3 3 0 1 0 6 0 a3 3 0 1 0 -6 0zM19.52 403 a3 3 0 1 0 6 0 a3 3 0 1 0 -6 0zM-3 416 a3 3 0 1 0 6 0 a3 3 0 1 0 -6 0zM-25.52 403 a3 3 0 1 0 6 0 a3 3 0 1 0 -6 0zM-25.52 377 a3 3 0 1 0 6 0 a3 3 0 1 0 -6 0zM42.03 416 a3 3 0 1 0 6 0 a3 3 0 1 0 -6 0zM42.03 442 a3 3 0 1 0 6 0 a3 3 0 1 0 -6 0zM19.52 455 a3 3 0 1 0 6 0 a3 3 0 1 0 -6 0zM-3 442 a3 3 0 1 0 6 0 a3 3 0 1 0 -6 0zM19.52 481 a3 3 0 1 0 6 0 a3 3 0 1 0 -6 0zM-3 494 a3 3 0 1 0 6 0 a3 3 0 1 0 -6 0zM-25.52 481 a3 3 0 1 0 6 0 a3 3 0 1 0 -6 0zM-25.52 455 a3 3 0 1 0 6 0 a3 3 0 1 0 -6 0zM42.03 494 a3 3 0 1 0 6 0 a3 3 0 1 0 -6 0zM42.03 520 a3 3 0 1 0 6 0 a3 3 0 1 0 -6 0zM19.52 533 a3 3 0 1 0 6 0 a3 3 0 1 0 -6 0zM-3 520 a3 3 0 1 0 6 0 a3 3 0 1 0 -6 0zM19.52 559 a3 3 0 1 0 6 0 a3 3 0 1 0 -6 0zM-3 572 a3 3 0 1 0 6 0 a3 3 0 1 0 -6 0zM-25.52 559 a3 3 0 1 0 6 0 a3 3 0 1 0 -6 0zM-25.52 533 a3 3 0 1 0 6 0 a3 3 0 1 0 -6 0zM42.03 -26 a3 3 0 1 0 6 0 a3 3 0 1 0 -6 0zM64.55 -13 a3 3 0 1 0 6 0 a3 3 0 1 0 -6 0zM64.55 13 a3 3 0 1 0 6 0 a3 3 0 1 0 -6 0zM87.07 26 a3 3 0 1 0 6 0 a3 3 0 1 0 -6 0zM87.07 52 a3 3 0 1 0 6 0 a3 3 0 1 0 -6 0zM64.55 65 a3 3 0 1 0 6 0 a3 3 0 1 0 -6 0zM64.55 91 a3 3 0 1 0 6 0 a3 3 0 1 0 -6 0zM87.07 104 a3 3 0 1 0 6 0 a3 3 0 1 0 -6 0zM87.07 130 a3 3 0 1 0 6 0 a3 3 0 1 0 -6 0zM64.55 143 a3 3 0 1 0 6 0 a3 3 0 1 0 -6 0zM64.55 169 a3 3 0 1 0 6 0 a3 3 0 1 0 -6 0zM87.07 182 a3 3 0 1 0 6 0 a3 3 0 1 0 -6 0zM87.07 208 a3 3 0 1 0 6 0 a3 3 0 1 0 -6 0zM64.55 221 a3 3 0 1 0 6 0 a3 3 0 1 0 -6 0zM64.55 247 a3 3 0 1 0 6 0 a3 3 0 1 0 -6 0zM87.07 260 a3 3 0 1 0 6 0 a3 3 0 1 0 -6 0zM87.07 286 a3 3 0 1 0 6 0 a3 3 0 1 0 -6 0zM64.55 299 a3 3 0 1 0 6 0 a3 3 0 1 0 -6 0zM64.55 325 a3 3 0 1 0 6 0 a3 3 0 1 0 -6 0zM87.07 338 a3 3 0 1 0 6 0 a3 3 0 1 0 -6 0zM87.07 364 a3 3 0 1 0 6 0 a3 3 0 1 0 -6 0zM64.55 377 a3 3 0 1 0 6 0 a3 3 0 1 0 -6 0zM64.55 403 a3 3 0 1 0 6 0 a3 3 0 1 0 -6 0zM87.07 416 a3 3 0 1 0 6 0 a3 3 0 1 0 -6 0zM87.07 442 a3 3 0 1 0 6 0 a3 3 0 1 0 -6 0zM64.55 455 a3 3 0 1 0 6 0 a3 3 0 1 0 -6 0zM64.55 481 a3 3 0 1 0 6 0 a3 3 0 1 0 -6 0zM87.07 494 a3 3 0 1 0 6 0 a3 3 0 1 0 -6 0zM87.07 520 a3 3 0 1 0 6 0 a3 3 0 1 0 -6 0zM64.55 533 a3 3 0 1 0 6 0 a3 3 0 1 0 -6 0zM64.55 559 a3 3 0 1 0 6 0 a3 3 0 1 0 -6 0zM42.03 572 a3 3 0 1 0 6 0 a3 3 0 1 0 -6 0zM87.07 -26 a3 3 0 1 0 6 0 a3 3 0 1 0 -6 0zM109.59 -13 a3 3 0 1 0 6 0 a3 3 0 1 0 -6 0zM109.59 13 a3 3 0 1 0 6 0 a3 3 0 1 0 -6 0zM132.1 26 a3 3 0 1 0 6 0 a3 3 0 1 0 -6 0zM132.1 52 a3 3 0 1 0 6 0 a3 3 0 1 0 -6 0zM109.59 65 a3 3 0 1 0 6 0 a3 3 0 1 0 -6 0zM109.59 91 a3 3 0 1 0 6 0 a3 3 0 1 0 -6 0zM132.1 104 a3 3 0 1 0 6 0 a3 3 0 1 0 -6 0zM132.1 130 a3 3 0 1 0 6 0 a3 3 0 1 0 -6 0zM109.59 143 a3 3 0 1 0 6 0 a3 3 0 1 0 -6 0zM109.59 169 a3 3 0 1 0 6 0 a3 3 0 1 0 -6 0zM132.1 182 a3 3 0 1 0 6 0 a3 3 0 1 0 -6 0zM132.1 208 a3 3 0 1 0 6 0 a3 3 0 1 0 -6 0zM109.59 221 a3 3 0 1 0 6 0 a3 3 0 1 0 -6 0zM109.59 247 a3 3 0 1 0 6 0 a3 3 0 1 0 -6 0zM132.1 260 a3 3 0 1 0 6 0 a3 3 0 1 0 -6 0zM132.1 286 a3 3 0 1 0 6 0 a3 3 0 1 0 -6 0zM109.59 299 a3 3 0 1 0 6 0 a3 3 0 1 0 -6 0zM109.59 325 a3 3 0 1 0 6 0 a3 3 0 1 0 -6 0zM132.1 338 a3 3 0 1 0 6 0 a3 3 0 1 0 -6 0zM132.1 364 a3 3 0 1 0 6 0 a3 3 0 1 0 -6 0zM109.59 377 a3 3 0 1 0 6 0 a3 3 0 1 0 -6 0zM109.59 403 a3 3 0 1 0 6 0 a3 3 0 1 0 -6 0zM132.1 416 a3 3 0 1 0 6 0 a3 3 0 1 0 -6 0zM132.1 442 a3 3 0 1 0 6 0 a3 3 0 1 0 -6 0zM109.59 455 a3 3 0 1 0 6 0 a3 3 0 1 0 -6 0zM109.59 481 a3 3 0 1 0 6 0 a3 3 0 1 0 -6 0zM132.1 494 a3 3 0 1 0 6 0 a3 3 0 1 0 -6 0zM132.1 520 a3 3 0 1 0 6 0 a3 3 0 1 0 -6 0zM109.59 533 a3 3 0 1 0 6 0 a3 3 0 1 0 -6 0zM109.59 559 a3 3 0 1 0 6 0 a3 3 0 1 0 -6 0zM87.07 572 a3 3 0 1 0 6 0 a3 3 0 1 0 -6 0zM132.1 -26 a3 3 0 1 0 6 0 a3 3 0 1 0 -6 0zM154.62 -13 a3 3 0 1 0 6 0 a3 3 0 1 0 -6 0zM154.62 13 a3 3 0 1 0 6 0 a3 3 0 1 0 -6 0zM177.14 26 a3 3 0 1 0 6 0 a3 3 0 1 0 -6 0zM177.14 52 a3 3 0 1 0 6 0 a3 3 0 1 0 -6 0zM154.62 65 a3 3 0 1 0 6 0 a3 3 0 1 0 -6 0zM154.62 91 a3 3 0 1 0 6 0 a3 3 0 1 0 -6 0zM177.14 104 a3 3 0 1 0 6 0 a3 3 0 1 0 -6 0zM177.14 130 a3 3 0 1 0 6 0 a3 3 0 1 0 -6 0zM154.62 143 a3 3 0 1 0 6 0 a3 3 0 1 0 -6 0zM154.62 169 a3 3 0 1 0 6 0 a3 3 0 1 0 -6 0zM177.14 182 a3 3 0 1 0 6 0 a3 3 0 1 0 -6 0zM177.14 208 a3 3 0 1 0 6 0 a3 3 0 1 0 -6 0zM154.62 221 a3 3 0 1 0 6 0 a3 3 0 1 0 -6 0zM154.62 247 a3 3 0 1 0 6 0 a3 3 0 1 0 -6 0zM177.14 260 a3 3 0 1 0 6 0 a3 3 0 1 0 -6 0zM177.14 286 a3 3 0 1 0 6 0 a3 3 0 1 0 -6 0zM154.62 299 a3 3 0 1 0 6 0 a3 3 0 1 0 -6 0zM154.62 325 a3 3 0 1 0 6 0 a3 3 0 1 0 -6 0zM177.14 338 a3 3 0 1 0 6 0 a3 3 0 1 0 -6 0zM177.14 364 a3 3 0 1 0 6 0 a3 3 0 1 0 -6 0zM154.62 377 a3 3 0 1 0 6 0 a3 3 0 1 0 -6 0zM154.62 403 a3 3 0 1 0 6 0 a3 3 0 1 0 -6 0zM177.14 416 a3 3 0 1 0 6 0 a3 3 0 1 0 -6 0zM177.14 442 a3 3 0 1 0 6 0 a3 3 0 1 0 -6 0zM154.62 455 a3 3 0 1 0 6 0 a3 3 0 1 0 -6 0zM154.62 481 a3 3 0 1 0 6 0 a3 3 0 1 0 -6 0zM177.14 494 a3 3 0 1 0 6 0 a3 3 0 1 0 -6 0zM177.14 520 a3 3 0 1 0 6 0 a3 3 0 1 0 -6 0zM154.62 533 a3 3 0 1 0 6 0 a3 3 0 1 0 -6 0zM154.62 559 a3 3 0 1 0 6 0 a3 3 0 1 0 -6 0zM132.1 572 a3 3 0 1 0 6 0 a3 3 0 1 0 -6 0zM177.14 -26 a3 3 0 1 0 6 0 a3 3 0 1 0 -6 0zM199.66 -13 a3 3 0 1 0 6 0 a3 3 0 1 0 -6 0zM199.66 13 a3 3 0 1 0 6 0 a3 3 0 1 0 -6 0zM222.17 26 a3 3 0 1 0 6 0 a3 3 0 1 0 -6 0zM222.17 52 a3 3 0 1 0 6 0 a3 3 0 1 0 -6 0zM199.66 65 a3 3 0 1 0 6 0 a3 3 0 1 0 -6 0zM199.66 91 a3 3 0 1 0 6 0 a3 3 0 1 0 -6 0zM222.17 104 a3 3 0 1 0 6 0 a3 3 0 1 0 -6 0zM222.17 130 a3 3 0 1 0 6 0 a3 3 0 1 0 -6 0zM199.66 143 a3 3 0 1 0 6 0 a3 3 0 1 0 -6 0zM199.66 169 a3 3 0 1 0 6 0 a3 3 0 1 0 -6 0zM222.17 182 a3 3 0 1 0 6 0 a3 3 0 1 0 -6 0zM222.17 208 a3 3 0 1 0 6 0 a3 3 0 1 0 -6 0zM199.66 221 a3 3 0 1 0 6 0 a3 3 0 1 0 -6 0zM199.66 247 a3 3 0 1 0 6 0 a3 3 0 1 0 -6 0zM222.17 260 a3 3 0 1 0 6 0 a3 3 0 1 0 -6 0zM222.17 286 a3 3 0 1 0 6 0 a3 3 0 1 0 -6 0zM199.66 299 a3 3 0 1 0 6 0 a3 3 0 1 0 -6 0zM199.66 325 a3 3 0 1 0 6 0 a3 3 0 1 0 -6 0zM222.17 338 a3 3 0 1 0 6 0 a3 3 0 1 0 -6 0zM222.17 364 a3 3 0 1 0 6 0 a3 3 0 1 0 -6 0zM199.66 377 a3 3 0 1 0 6 0 a3 3 0 1 0 -6 0zM199.66 403 a3 3 0 1 0 6 0 a3 3 0 1 0 -6 0zM222.17 416 a3 3 0 1 0 6 0 a3 3 0 1 0 -6 0zM222.17 442 a3 3 0 1 0 6 0 a3 3 0 1 0 -6 0zM199.66 455 a3 3 0 1 0 6 0 a3 3 0 1 0 -6 0zM199.66 481 a3 3 0 1 0 6 0 a3 3 0 1 0 -6 0zM222.17 494 a3 3 0 1 0 6 0 a3 3 0 1 0 -6 0zM222.17 520 a3 3 0 1 0 6 0 a3 3 0 1 0 -6 0zM199.66 533 a3 3 0 1 0 6 0 a3 3 0 1 0 -6 0zM199.66 559 a3 3 0 1 0 6 0 a3 3 0 1 0 -6 0zM177.14 572 a3 3 0 1 0 6 0 a3 3 0 1 0 -6 0zM222.17 -26 a3 3 0 1 0 6 0 a3 3 0 1 0 -6 0zM244.69 -13 a3 3 0 1 0 6 0 a3 3 0 1 0 -6 0zM244.69 13 a3 3 0 1 0 6 0 a3 3 0 1 0 -6 0zM267.21 26 a3 3 0 1 0 6 0 a3 3 0 1 0 -6 0zM267.21 52 a3 3 0 1 0 6 0 a3 3 0 1 0 -6 0zM244.69 65 a3 3 0 1 0 6 0 a3 3 0 1 0 -6 0zM244.69 91 a3 3 0 1 0 6 0 a3 3 0 1 0 -6 0zM267.21 104 a3 3 0 1 0 6 0 a3 3 0 1 0 -6 0zM267.21 130 a3 3 0 1 0 6 0 a3 3 0 1 0 -6 0zM244.69 143 a3 3 0 1 0 6 0 a3 3 0 1 0 -6 0zM244.69 169 a3 3 0 1 0 6 0 a3 3 0 1 0 -6 0zM267.21 182 a3 3 0 1 0 6 0 a3 3 0 1 0 -6 0zM267.21 208 a3 3 0 1 0 6 0 a3 3 0 1 0 -6 0zM244.69 221 a3 3 0 1 0 6 0 a3 3 0 1 0 -6 0zM244.69 247 a3 3 0 1 0 6 0 a3 3 0 1 0 -6 0zM267.21 260 a3 3 0 1 0 6 0 a3 3 0 1 0 -6 0zM267.21 286 a3 3 0 1 0 6 0 a3 3 0 1 0 -6 0zM244.69 299 a3 3 0 1 0 6 0 a3 3 0 1 0 -6 0zM244.69 325 a3 3 0 1 0 6 0 a3 3 0 1 0 -6 0zM267.21 338 a3 3 0 1 0 6 0 a3 3 0 1 0 -6 0zM267.21 364 a3 3 0 1 0 6 0 a3 3 0 1 0 -6 0zM244.69 377 a3 3 0 1 0 6 0 a3 3 0 1 0 -6 0zM244.69 403 a3 3 0 1 0 6 0 a3 3 0 1 0 -6 0zM267.21 416 a3 3 0 1 0 6 0 a3 3 0 1 0 -6 0zM267.21 442 a3 3 0 1 0 6 0 a3 3 0 1 0 -6 0zM244.69 455 a3 3 0 1 0 6 0 a3 3 0 1 0 -6 0zM244.69 481 a3 3 0 1 0 6 0 a3 3 0 1 0 -6 0zM267.21 494 a3 3 0 1 0 6 0 a3 3 0 1 0 -6 0zM267.21 520 a3 3 0 1 0 6 0 a3 3 0 1 0 -6 0zM244.69 533 a3 3 0 1 0 6 0 a3 3 0 1 0 -6 0zM244.69 559 a3 3 0 1 0 6 0 a3 3 0 1 0 -6 0zM222.17 572 a3 3 0 1 0 6 0 a3 3 0 1 0 -6 0zM267.21 -26 a3 3 0 1 0 6 0 a3 3 0 1 0 -6 0zM289.72 -13 a3 3 0 1 0 6 0 a3 3 0 1 0 -6 0zM289.72 13 a3 3 0 1 0 6 0 a3 3 0 1 0 -6 0zM312.24 26 a3 3 0 1 0 6 0 a3 3 0 1 0 -6 0zM312.24 52 a3 3 0 1 0 6 0 a3 3 0 1 0 -6 0zM289.72 65 a3 3 0 1 0 6 0 a3 3 0 1 0 -6 0zM289.72 91 a3 3 0 1 0 6 0 a3 3 0 1 0 -6 0zM312.24 104 a3 3 0 1 0 6 0 a3 3 0 1 0 -6 0zM312.24 130 a3 3 0 1 0 6 0 a3 3 0 1 0 -6 0zM289.72 143 a3 3 0 1 0 6 0 a3 3 0 1 0 -6 0zM289.72 169 a3 3 0 1 0 6 0 a3 3 0 1 0 -6 0zM312.24 182 a3 3 0 1 0 6 0 a3 3 0 1 0 -6 0zM312.24 208 a3 3 0 1 0 6 0 a3 3 0 1 0 -6 0zM289.72 221 a3 3 0 1 0 6 0 a3 3 0 1 0 -6 0zM289.72 247 a3 3 0 1 0 6 0 a3 3 0 1 0 -6 0zM312.24 260 a3 3 0 1 0 6 0 a3 3 0 1 0 -6 0zM312.24 286 a3 3 0 1 0 6 0 a3 3 0 1 0 -6 0zM289.72 299 a3 3 0 1 0 6 0 a3 3 0 1 0 -6 0zM289.72 325 a3 3 0 1 0 6 0 a3 3 0 1 0 -6 0zM312.24 338 a3 3 0 1 0 6 0 a3 3 0 1 0 -6 0zM312.24 364 a3 3 0 1 0 6 0 a3 3 0 1 0 -6 0zM289.72 377 a3 3 0 1 0 6 0 a3 3 0 1 0 -6 0zM289.72 403 a3 3 0 1 0 6 0 a3 3 0 1 0 -6 0zM312.24 416 a3 3 0 1 0 6 0 a3 3 0 1 0 -6 0zM312.24 442 a3 3 0 1 0 6 0 a3 3 0 1 0 -6 0zM289.72 455 a3 3 0 1 0 6 0 a3 3 0 1 0 -6 0zM289.72 481 a3 3 0 1 0 6 0 a3 3 0 1 0 -6 0zM312.24 494 a3 3 0 1 0 6 0 a3 3 0 1 0 -6 0zM312.24 520 a3 3 0 1 0 6 0 a3 3 0 1 0 -6 0zM289.72 533 a3 3 0 1 0 6 0 a3 3 0 1 0 -6 0zM289.72 559 a3 3 0 1 0 6 0 a3 3 0 1 0 -6 0zM267.21 572 a3 3 0 1 0 6 0 a3 3 0 1 0 -6 0zM312.24 -26 a3 3 0 1 0 6 0 a3 3 0 1 0 -6 0zM334.76 -13 a3 3 0 1 0 6 0 a3 3 0 1 0 -6 0zM334.76 13 a3 3 0 1 0 6 0 a3 3 0 1 0 -6 0zM357.28 26 a3 3 0 1 0 6 0 a3 3 0 1 0 -6 0zM357.28 52 a3 3 0 1 0 6 0 a3 3 0 1 0 -6 0zM334.76 65 a3 3 0 1 0 6 0 a3 3 0 1 0 -6 0zM334.76 91 a3 3 0 1 0 6 0 a3 3 0 1 0 -6 0zM357.28 104 a3 3 0 1 0 6 0 a3 3 0 1 0 -6 0zM357.28 130 a3 3 0 1 0 6 0 a3 3 0 1 0 -6 0zM334.76 143 a3 3 0 1 0 6 0 a3 3 0 1 0 -6 0zM334.76 169 a3 3 0 1 0 6 0 a3 3 0 1 0 -6 0zM357.28 182 a3 3 0 1 0 6 0 a3 3 0 1 0 -6 0zM357.28 208 a3 3 0 1 0 6 0 a3 3 0 1 0 -6 0zM334.76 221 a3 3 0 1 0 6 0 a3 3 0 1 0 -6 0zM334.76 247 a3 3 0 1 0 6 0 a3 3 0 1 0 -6 0zM357.28 260 a3 3 0 1 0 6 0 a3 3 0 1 0 -6 0zM357.28 286 a3 3 0 1 0 6 0 a3 3 0 1 0 -6 0zM334.76 299 a3 3 0 1 0 6 0 a3 3 0 1 0 -6 0zM334.76 325 a3 3 0 1 0 6 0 a3 3 0 1 0 -6 0zM357.28 338 a3 3 0 1 0 6 0 a3 3 0 1 0 -6 0zM357.28 364 a3 3 0 1 0 6 0 a3 3 0 1 0 -6 0zM334.76 377 a3 3 0 1 0 6 0 a3 3 0 1 0 -6 0zM334.76 403 a3 3 0 1 0 6 0 a3 3 0 1 0 -6 0zM357.28 416 a3 3 0 1 0 6 0 a3 3 0 1 0 -6 0zM357.28 442 a3 3 0 1 0 6 0 a3 3 0 1 0 -6 0zM334.76 455 a3 3 0 1 0 6 0 a3 3 0 1 0 -6 0zM334.76 481 a3 3 0 1 0 6 0 a3 3 0 1 0 -6 0zM357.28 494 a3 3 0 1 0 6 0 a3 3 0 1 0 -6 0zM357.28 520 a3 3 0 1 0 6 0 a3 3 0 1 0 -6 0zM334.76 533 a3 3 0 1 0 6 0 a3 3 0 1 0 -6 0zM334.76 559 a3 3 0 1 0 6 0 a3 3 0 1 0 -6 0zM312.24 572 a3 3 0 1 0 6 0 a3 3 0 1 0 -6 0zM357.28 -26 a3 3 0 1 0 6 0 a3 3 0 1 0 -6 0zM379.79 -13 a3 3 0 1 0 6 0 a3 3 0 1 0 -6 0zM379.79 13 a3 3 0 1 0 6 0 a3 3 0 1 0 -6 0zM402.31 26 a3 3 0 1 0 6 0 a3 3 0 1 0 -6 0zM402.31 52 a3 3 0 1 0 6 0 a3 3 0 1 0 -6 0zM379.79 65 a3 3 0 1 0 6 0 a3 3 0 1 0 -6 0zM379.79 91 a3 3 0 1 0 6 0 a3 3 0 1 0 -6 0zM402.31 104 a3 3 0 1 0 6 0 a3 3 0 1 0 -6 0zM402.31 130 a3 3 0 1 0 6 0 a3 3 0 1 0 -6 0zM379.79 143 a3 3 0 1 0 6 0 a3 3 0 1 0 -6 0zM379.79 169 a3 3 0 1 0 6 0 a3 3 0 1 0 -6 0zM402.31 182 a3 3 0 1 0 6 0 a3 3 0 1 0 -6 0zM402.31 208 a3 3 0 1 0 6 0 a3 3 0 1 0 -6 0zM379.79 221 a3 3 0 1 0 6 0 a3 3 0 1 0 -6 0zM379.79 247 a3 3 0 1 0 6 0 a3 3 0 1 0 -6 0zM402.31 260 a3 3 0 1 0 6 0 a3 3 0 1 0 -6 0zM402.31 286 a3 3 0 1 0 6 0 a3 3 0 1 0 -6 0zM379.79 299 a3 3 0 1 0 6 0 a3 3 0 1 0 -6 0zM379.79 325 a3 3 0 1 0 6 0 a3 3 0 1 0 -6 0zM402.31 338 a3 3 0 1 0 6 0 a3 3 0 1 0 -6 0zM402.31 364 a3 3 0 1 0 6 0 a3 3 0 1 0 -6 0zM379.79 377 a3 3 0 1 0 6 0 a3 3 0 1 0 -6 0zM379.79 403 a3 3 0 1 0 6 0 a3 3 0 1 0 -6 0zM402.31 416 a3 3 0 1 0 6 0 a3 3 0 1 0 -6 0zM402.31 442 a3 3 0 1 0 6 0 a3 3 0 1 0 -6 0zM379.79 455 a3 3 0 1 0 6 0 a3 3 0 1 0 -6 0zM379.79 481 a3 3 0 1 0 6 0 a3 3 0 1 0 -6 0zM402.31 494 a3 3 0 1 0 6 0 a3 3 0 1 0 -6 0zM402.31 520 a3 3 0 1 0 6 0 a3 3 0 1 0 -6 0zM379.79 533 a3 3 0 1 0 6 0 a3 3 0 1 0 -6 0zM379.79 559 a3 3 0 1 0 6 0 a3 3 0 1 0 -6 0zM357.28 572 a3 3 0 1 0 6 0 a3 3 0 1 0 -6 0zM402.31 -26 a3 3 0 1 0 6 0 a3 3 0 1 0 -6 0zM424.83 -13 a3 3 0 1 0 6 0 a3 3 0 1 0 -6 0zM424.83 13 a3 3 0 1 0 6 0 a3 3 0 1 0 -6 0zM447.35 26 a3 3 0 1 0 6 0 a3 3 0 1 0 -6 0zM447.35 52 a3 3 0 1 0 6 0 a3 3 0 1 0 -6 0zM424.83 65 a3 3 0 1 0 6 0 a3 3 0 1 0 -6 0zM424.83 91 a3 3 0 1 0 6 0 a3 3 0 1 0 -6 0zM447.35 104 a3 3 0 1 0 6 0 a3 3 0 1 0 -6 0zM447.35 130 a3 3 0 1 0 6 0 a3 3 0 1 0 -6 0zM424.83 143 a3 3 0 1 0 6 0 a3 3 0 1 0 -6 0zM424.83 169 a3 3 0 1 0 6 0 a3 3 0 1 0 -6 0zM447.35 182 a3 3 0 1 0 6 0 a3 3 0 1 0 -6 0zM447.35 208 a3 3 0 1 0 6 0 a3 3 0 1 0 -6 0zM424.83 221 a3 3 0 1 0 6 0 a3 3 0 1 0 -6 0zM424.83 247 a3 3 0 1 0 6 0 a3 3 0 1 0 -6 0zM447.35 260 a3 3 0 1 0 6 0 a3 3 0 1 0 -6 0zM447.35 286 a3 3 0 1 0 6 0 a3 3 0 1 0 -6 0zM424.83 299 a3 3 0 1 0 6 0 a3 3 0 1 0 -6 0zM424.83 325 a3 3 0 1 0 6 0 a3 3 0 1 0 -6 0zM447.35 338 a3 3 0 1 0 6 0 a3 3 0 1 0 -6 0zM447.35 364 a3 3 0 1 0 6 0 a3 3 0 1 0 -6 0zM424.83 377 a3 3 0 1 0 6 0 a3 3 0 1 0 -6 0zM424.83 403 a3 3 0 1 0 6 0 a3 3 0 1 0 -6 0zM447.35 416 a3 3 0 1 0 6 0 a3 3 0 1 0 -6 0zM447.35 442 a3 3 0 1 0 6 0 a3 3 0 1 0 -6 0zM424.83 455 a3 3 0 1 0 6 0 a3 3 0 1 0 -6 0zM424.83 481 a3 3 0 1 0 6 0 a3 3 0 1 0 -6 0zM447.35 494 a3 3 0 1 0 6 0 a3 3 0 1 0 -6 0zM447.35 520 a3 3 0 1 0 6 0 a3 3 0 1 0 -6 0zM424.83 533 a3 3 0 1 0 6 0 a3 3 0 1 0 -6 0zM424.83 559 a3 3 0 1 0 6 0 a3 3 0 1 0 -6 0zM402.31 572 a3 3 0 1 0 6 0 a3 3 0 1 0 -6 0zM447.35 -26 a3 3 0 1 0 6 0 a3 3 0 1 0 -6 0zM469.86 -13 a3 3 0 1 0 6 0 a3 3 0 1 0 -6 0zM469.86 13 a3 3 0 1 0 6 0 a3 3 0 1 0 -6 0zM492.38 26 a3 3 0 1 0 6 0 a3 3 0 1 0 -6 0zM492.38 52 a3 3 0 1 0 6 0 a3 3 0 1 0 -6 0zM469.86 65 a3 3 0 1 0 6 0 a3 3 0 1 0 -6 0zM469.86 91 a3 3 0 1 0 6 0 a3 3 0 1 0 -6 0zM492.38 104 a3 3 0 1 0 6 0 a3 3 0 1 0 -6 0zM492.38 130 a3 3 0 1 0 6 0 a3 3 0 1 0 -6 0zM469.86 143 a3 3 0 1 0 6 0 a3 3 0 1 0 -6 0zM469.86 169 a3 3 0 1 0 6 0 a3 3 0 1 0 -6 0zM492.38 182 a3 3 0 1 0 6 0 a3 3 0 1 0 -6 0zM492.38 208 a3 3 0 1 0 6 0 a3 3 0 1 0 -6 0zM469.86 221 a3 3 0 1 0 6 0 a3 3 0 1 0 -6 0zM469.86 247 a3 3 0 1 0 6 0 a3 3 0 1 0 -6 0zM492.38 260 a3 3 0 1 0 6 0 a3 3 0 1 0 -6 0zM492.38 286 a3 3 0 1 0 6 0 a3 3 0 1 0 -6 0zM469.86 299 a3 3 0 1 0 6 0 a3 3 0 1 0 -6 0zM469.86 325 a3 3 0 1 0 6 0 a3 3 0 1 0 -6 0zM492.38 338 a3 3 0 1 0 6 0 a3 3 0 1 0 -6 0zM492.38 364 a3 3 0 1 0 6 0 a3 3 0 1 0 -6 0zM469.86 377 a3 3 0 1 0 6 0 a3 3 0 1 0 -6 0zM469.86 403 a3 3 0 1 0 6 0 a3 3 0 1 0 -6 0zM492.38 416 a3 3 0 1 0 6 0 a3 3 0 1 0 -6 0zM492.38 442 a3 3 0 1 0 6 0 a3 3 0 1 0 -6 0zM469.86 455 a3 3 0 1 0 6 0 a3 3 0 1 0 -6 0zM469.86 481 a3 3 0 1 0 6 0 a3 3 0 1 0 -6 0zM492.38 494 a3 3 0 1 0 6 0 a3 3 0 1 0 -6 0zM492.38 520 a3 3 0 1 0 6 0 a3 3 0 1 0 -6 0zM469.86 533 a3 3 0 1 0 6 0 a3 3 0 1 0 -6 0zM469.86 559 a3 3 0 1 0 6 0 a3 3 0 1 0 -6 0zM447.35 572 a3 3 0 1 0 6 0 a3 3 0 1 0 -6 0zM492.38 -26 a3 3 0 1 0 6 0 a3 3 0 1 0 -6 0zM514.9 -13 a3 3 0 1 0 6 0 a3 3 0 1 0 -6 0zM514.9 13 a3 3 0 1 0 6 0 a3 3 0 1 0 -6 0zM537.42 26 a3 3 0 1 0 6 0 a3 3 0 1 0 -6 0zM537.42 52 a3 3 0 1 0 6 0 a3 3 0 1 0 -6 0zM514.9 65 a3 3 0 1 0 6 0 a3 3 0 1 0 -6 0zM514.9 91 a3 3 0 1 0 6 0 a3 3 0 1 0 -6 0zM537.42 104 a3 3 0 1 0 6 0 a3 3 0 1 0 -6 0zM537.42 130 a3 3 0 1 0 6 0 a3 3 0 1 0 -6 0zM514.9 143 a3 3 0 1 0 6 0 a3 3 0 1 0 -6 0zM514.9 169 a3 3 0 1 0 6 0 a3 3 0 1 0 -6 0zM537.42 182 a3 3 0 1 0 6 0 a3 3 0 1 0 -6 0zM537.42 208 a3 3 0 1 0 6 0 a3 3 0 1 0 -6 0zM514.9 221 a3 3 0 1 0 6 0 a3 3 0 1 0 -6 0zM514.9 247 a3 3 0 1 0 6 0 a3 3 0 1 0 -6 0zM537.42 260 a3 3 0 1 0 6 0 a3 3 0 1 0 -6 0zM537.42 286 a3 3 0 1 0 6 0 a3 3 0 1 0 -6 0zM514.9 299 a3 3 0 1 0 6 0 a3 3 0 1 0 -6 0zM514.9 325 a3 3 0 1 0 6 0 a3 3 0 1 0 -6 0zM537.42 338 a3 3 0 1 0 6 0 a3 3 0 1 0 -6 0zM537.42 364 a3 3 0 1 0 6 0 a3 3 0 1 0 -6 0zM514.9 377 a3 3 0 1 0 6 0 a3 3 0 1 0 -6 0zM514.9 403 a3 3 0 1 0 6 0 a3 3 0 1 0 -6 0zM537.42 416 a3 3 0 1 0 6 0 a3 3 0 1 0 -6 0zM537.42 442 a3 3 0 1 0 6 0 a3 3 0 1 0 -6 0zM514.9 455 a3 3 0 1 0 6 0 a3 3 0 1 0 -6 0zM514.9 481 a3 3 0 1 0 6 0 a3 3 0 1 0 -6 0zM537.42 494 a3 3 0 1 0 6 0 a3 3 0 1 0 -6 0zM537.42 520 a3 3 0 1 0 6 0 a3 3 0 1 0 -6 0zM514.9 533 a3 3 0 1 0 6 0 a3 3 0 1 0 -6 0zM514.9 559 a3 3 0 1 0 6 0 a3 3 0 1 0 -6 0zM492.38 572 a3 3 0 1 0 6 0 a3 3 0 1 0 -6 0zM537.42 -26 a3 3 0 1 0 6 0 a3 3 0 1 0 -6 0zM559.93 -13 a3 3 0 1 0 6 0 a3 3 0 1 0 -6 0zM559.93 13 a3 3 0 1 0 6 0 a3 3 0 1 0 -6 0zM582.45 26 a3 3 0 1 0 6 0 a3 3 0 1 0 -6 0zM582.45 52 a3 3 0 1 0 6 0 a3 3 0 1 0 -6 0zM559.93 65 a3 3 0 1 0 6 0 a3 3 0 1 0 -6 0zM559.93 91 a3 3 0 1 0 6 0 a3 3 0 1 0 -6 0zM582.45 104 a3 3 0 1 0 6 0 a3 3 0 1 0 -6 0zM582.45 130 a3 3 0 1 0 6 0 a3 3 0 1 0 -6 0zM559.93 143 a3 3 0 1 0 6 0 a3 3 0 1 0 -6 0zM559.93 169 a3 3 0 1 0 6 0 a3 3 0 1 0 -6 0zM582.45 182 a3 3 0 1 0 6 0 a3 3 0 1 0 -6 0zM582.45 208 a3 3 0 1 0 6 0 a3 3 0 1 0 -6 0zM559.93 221 a3 3 0 1 0 6 0 a3 3 0 1 0 -6 0zM559.93 247 a3 3 0 1 0 6 0 a3 3 0 1 0 -6 0zM582.45 260 a3 3 0 1 0 6 0 a3 3 0 1 0 -6 0zM582.45 286 a3 3 0 1 0 6 0 a3 3 0 1 0 -6 0zM559.93 299 a3 3 0 1 0 6 0 a3 3 0 1 0 -6 0zM559.93 325 a3 3 0 1 0 6 0 a3 3 0 1 0 -6 0zM582.45 338 a3 3 0 1 0 6 0 a3 3 0 1 0 -6 0zM582.45 364 a3 3 0 1 0 6 0 a3 3 0 1 0 -6 0zM559.93 377 a3 3 0 1 0 6 0 a3 3 0 1 0 -6 0zM559.93 403 a3 3 0 1 0 6 0 a3 3 0 1 0 -6 0zM582.45 416 a3 3 0 1 0 6 0 a3 3 0 1 0 -6 0zM582.45 442 a3 3 0 1 0 6 0 a3 3 0 1 0 -6 0zM559.93 455 a3 3 0 1 0 6 0 a3 3 0 1 0 -6 0zM559.93 481 a3 3 0 1 0 6 0 a3 3 0 1 0 -6 0zM582.45 494 a3 3 0 1 0 6 0 a3 3 0 1 0 -6 0zM582.45 520 a3 3 0 1 0 6 0 a3 3 0 1 0 -6 0zM559.93 533 a3 3 0 1 0 6 0 a3 3 0 1 0 -6 0zM559.93 559 a3 3 0 1 0 6 0 a3 3 0 1 0 -6 0zM537.42 572 a3 3 0 1 0 6 0 a3 3 0 1 0 -6 0zM582.45 -26 a3 3 0 1 0 6 0 a3 3 0 1 0 -6 0zM604.97 -13 a3 3 0 1 0 6 0 a3 3 0 1 0 -6 0zM604.97 13 a3 3 0 1 0 6 0 a3 3 0 1 0 -6 0zM627.48 26 a3 3 0 1 0 6 0 a3 3 0 1 0 -6 0zM627.48 52 a3 3 0 1 0 6 0 a3 3 0 1 0 -6 0zM604.97 65 a3 3 0 1 0 6 0 a3 3 0 1 0 -6 0zM604.97 91 a3 3 0 1 0 6 0 a3 3 0 1 0 -6 0zM627.48 104 a3 3 0 1 0 6 0 a3 3 0 1 0 -6 0zM627.48 130 a3 3 0 1 0 6 0 a3 3 0 1 0 -6 0zM604.97 143 a3 3 0 1 0 6 0 a3 3 0 1 0 -6 0zM604.97 169 a3 3 0 1 0 6 0 a3 3 0 1 0 -6 0zM627.48 182 a3 3 0 1 0 6 0 a3 3 0 1 0 -6 0zM627.48 208 a3 3 0 1 0 6 0 a3 3 0 1 0 -6 0zM604.97 221 a3 3 0 1 0 6 0 a3 3 0 1 0 -6 0zM604.97 247 a3 3 0 1 0 6 0 a3 3 0 1 0 -6 0zM627.48 260 a3 3 0 1 0 6 0 a3 3 0 1 0 -6 0zM627.48 286 a3 3 0 1 0 6 0 a3 3 0 1 0 -6 0zM604.97 299 a3 3 0 1 0 6 0 a3 3 0 1 0 -6 0zM604.97 325 a3 3 0 1 0 6 0 a3 3 0 1 0 -6 0zM627.48 338 a3 3 0 1 0 6 0 a3 3 0 1 0 -6 0zM627.48 364 a3 3 0 1 0 6 0 a3 3 0 1 0 -6 0zM604.97 377 a3 3 0 1 0 6 0 a3 3 0 1 0 -6 0zM604.97 403 a3 3 0 1 0 6 0 a3 3 0 1 0 -6 0zM627.48 416 a3 3 0 1 0 6 0 a3 3 0 1 0 -6 0zM627.48 442 a3 3 0 1 0 6 0 a3 3 0 1 0 -6 0zM604.97 455 a3 3 0 1 0 6 0 a3 3 0 1 0 -6 0zM604.97 481 a3 3 0 1 0 6 0 a3 3 0 1 0 -6 0zM627.48 494 a3 3 0 1 0 6 0 a3 3 0 1 0 -6 0zM627.48 520 a3 3 0 1 0 6 0 a3 3 0 1 0 -6 0zM604.97 533 a3 3 0 1 0 6 0 a3 3 0 1 0 -6 0zM604.97 559 a3 3 0 1 0 6 0 a3 3 0 1 0 -6 0zM582.45 572 a3 3 0 1 0 6 0 a3 3 0 1 0 -6 0zM627.48 -26 a3 3 0 1 0 6 0 a3 3 0 1 0 -6 0zM650 -13 a3 3 0 1 0 6 0 a3 3 0 1 0 -6 0zM650 13 a3 3 0 1 0 6 0 a3 3 0 1 0 -6 0zM672.52 26 a3 3 0 1 0 6 0 a3 3 0 1 0 -6 0zM672.52 52 a3 3 0 1 0 6 0 a3 3 0 1 0 -6 0zM650 65 a3 3 0 1 0 6 0 a3 3 0 1 0 -6 0zM650 91 a3 3 0 1 0 6 0 a3 3 0 1 0 -6 0zM672.52 104 a3 3 0 1 0 6 0 a3 3 0 1 0 -6 0zM672.52 130 a3 3 0 1 0 6 0 a3 3 0 1 0 -6 0zM650 143 a3 3 0 1 0 6 0 a3 3 0 1 0 -6 0zM650 169 a3 3 0 1 0 6 0 a3 3 0 1 0 -6 0zM672.52 182 a3 3 0 1 0 6 0 a3 3 0 1 0 -6 0zM672.52 208 a3 3 0 1 0 6 0 a3 3 0 1 0 -6 0zM650 221 a3 3 0 1 0 6 0 a3 3 0 1 0 -6 0zM650 247 a3 3 0 1 0 6 0 a3 3 0 1 0 -6 0zM672.52 260 a3 3 0 1 0 6 0 a3 3 0 1 0 -6 0zM672.52 286 a3 3 0 1 0 6 0 a3 3 0 1 0 -6 0zM650 299 a3 3 0 1 0 6 0 a3 3 0 1 0 -6 0zM650 325 a3 3 0 1 0 6 0 a3 3 0 1 0 -6 0zM672.52 338 a3 3 0 1 0 6 0 a3 3 0 1 0 -6 0zM672.52 364 a3 3 0 1 0 6 0 a3 3 0 1 0 -6 0zM650 377 a3 3 0 1 0 6 0 a3 3 0 1 0 -6 0zM650 403 a3 3 0 1 0 6 0 a3 3 0 1 0 -6 0zM672.52 416 a3 3 0 1 0 6 0 a3 3 0 1 0 -6 0zM672.52 442 a3 3 0 1 0 6 0 a3 3 0 1 0 -6 0zM650 455 a3 3 0 1 0 6 0 a3 3 0 1 0 -6 0zM650 481 a3 3 0 1 0 6 0 a3 3 0 1 0 -6 0zM672.52 494 a3 3 0 1 0 6 0 a3 3 0 1 0 -6 0zM672.52 520 a3 3 0 1 0 6 0 a3 3 0 1 0 -6 0zM650 533 a3 3 0 1 0 6 0 a3 3 0 1 0 -6 0zM650 559 a3 3 0 1 0 6 0 a3 3 0 1 0 -6 0zM627.48 572 a3 3 0 1 0 6 0 a3 3 0 1 0 -6 0zM672.52 -26 a3 3 0 1 0 6 0 a3 3 0 1 0 -6 0zM695.04 -13 a3 3 0 1 0 6 0 a3 3 0 1 0 -6 0zM695.04 13 a3 3 0 1 0 6 0 a3 3 0 1 0 -6 0zM717.55 26 a3 3 0 1 0 6 0 a3 3 0 1 0 -6 0zM717.55 52 a3 3 0 1 0 6 0 a3 3 0 1 0 -6 0zM695.04 65 a3 3 0 1 0 6 0 a3 3 0 1 0 -6 0zM695.04 91 a3 3 0 1 0 6 0 a3 3 0 1 0 -6 0zM717.55 104 a3 3 0 1 0 6 0 a3 3 0 1 0 -6 0zM717.55 130 a3 3 0 1 0 6 0 a3 3 0 1 0 -6 0zM695.04 143 a3 3 0 1 0 6 0 a3 3 0 1 0 -6 0zM695.04 169 a3 3 0 1 0 6 0 a3 3 0 1 0 -6 0zM717.55 182 a3 3 0 1 0 6 0 a3 3 0 1 0 -6 0zM717.55 208 a3 3 0 1 0 6 0 a3 3 0 1 0 -6 0zM695.04 221 a3 3 0 1 0 6 0 a3 3 0 1 0 -6 0zM695.04 247 a3 3 0 1 0 6 0 a3 3 0 1 0 -6 0zM717.55 260 a3 3 0 1 0 6 0 a3 3 0 1 0 -6 0zM717.55 286 a3 3 0 1 0 6 0 a3 3 0 1 0 -6 0zM695.04 299 a3 3 0 1 0 6 0 a3 3 0 1 0 -6 0zM695.04 325 a3 3 0 1 0 6 0 a3 3 0 1 0 -6 0zM717.55 338 a3 3 0 1 0 6 0 a3 3 0 1 0 -6 0zM717.55 364 a3 3 0 1 0 6 0 a3 3 0 1 0 -6 0zM695.04 377 a3 3 0 1 0 6 0 a3 3 0 1 0 -6 0zM695.04 403 a3 3 0 1 0 6 0 a3 3 0 1 0 -6 0zM717.55 416 a3 3 0 1 0 6 0 a3 3 0 1 0 -6 0zM717.55 442 a3 3 0 1 0 6 0 a3 3 0 1 0 -6 0zM695.04 455 a3 3 0 1 0 6 0 a3 3 0 1 0 -6 0zM695.04 481 a3 3 0 1 0 6 0 a3 3 0 1 0 -6 0zM717.55 494 a3 3 0 1 0 6 0 a3 3 0 1 0 -6 0zM717.55 520 a3 3 0 1 0 6 0 a3 3 0 1 0 -6 0zM695.04 533 a3 3 0 1 0 6 0 a3 3 0 1 0 -6 0zM695.04 559 a3 3 0 1 0 6 0 a3 3 0 1 0 -6 0zM672.52 572 a3 3 0 1 0 6 0 a3 3 0 1 0 -6 0zM717.55 -26 a3 3 0 1 0 6 0 a3 3 0 1 0 -6 0zM740.07 -13 a3 3 0 1 0 6 0 a3 3 0 1 0 -6 0zM740.07 13 a3 3 0 1 0 6 0 a3 3 0 1 0 -6 0zM762.59 26 a3 3 0 1 0 6 0 a3 3 0 1 0 -6 0zM762.59 52 a3 3 0 1 0 6 0 a3 3 0 1 0 -6 0zM740.07 65 a3 3 0 1 0 6 0 a3 3 0 1 0 -6 0zM740.07 91 a3 3 0 1 0 6 0 a3 3 0 1 0 -6 0zM762.59 104 a3 3 0 1 0 6 0 a3 3 0 1 0 -6 0zM762.59 130 a3 3 0 1 0 6 0 a3 3 0 1 0 -6 0zM740.07 143 a3 3 0 1 0 6 0 a3 3 0 1 0 -6 0zM740.07 169 a3 3 0 1 0 6 0 a3 3 0 1 0 -6 0zM762.59 182 a3 3 0 1 0 6 0 a3 3 0 1 0 -6 0zM762.59 208 a3 3 0 1 0 6 0 a3 3 0 1 0 -6 0zM740.07 221 a3 3 0 1 0 6 0 a3 3 0 1 0 -6 0zM740.07 247 a3 3 0 1 0 6 0 a3 3 0 1 0 -6 0zM762.59 260 a3 3 0 1 0 6 0 a3 3 0 1 0 -6 0zM762.59 286 a3 3 0 1 0 6 0 a3 3 0 1 0 -6 0zM740.07 299 a3 3 0 1 0 6 0 a3 3 0 1 0 -6 0zM740.07 325 a3 3 0 1 0 6 0 a3 3 0 1 0 -6 0zM762.59 338 a3 3 0 1 0 6 0 a3 3 0 1 0 -6 0zM762.59 364 a3 3 0 1 0 6 0 a3 3 0 1 0 -6 0zM740.07 377 a3 3 0 1 0 6 0 a3 3 0 1 0 -6 0zM740.07 403 a3 3 0 1 0 6 0 a3 3 0 1 0 -6 0zM762.59 416 a3 3 0 1 0 6 0 a3 3 0 1 0 -6 0zM762.59 442 a3 3 0 1 0 6 0 a3 3 0 1 0 -6 0zM740.07 455 a3 3 0 1 0 6 0 a3 3 0 1 0 -6 0zM740.07 481 a3 3 0 1 0 6 0 a3 3 0 1 0 -6 0zM762.59 494 a3 3 0 1 0 6 0 a3 3 0 1 0 -6 0zM762.59 520 a3 3 0 1 0 6 0 a3 3 0 1 0 -6 0zM740.07 533 a3 3 0 1 0 6 0 a3 3 0 1 0 -6 0zM740.07 559 a3 3 0 1 0 6 0 a3 3 0 1 0 -6 0zM717.55 572 a3 3 0 1 0 6 0 a3 3 0 1 0 -6 0zM762.59 -26 a3 3 0 1 0 6 0 a3 3 0 1 0 -6 0zM785.11 -13 a3 3 0 1 0 6 0 a3 3 0 1 0 -6 0zM785.11 13 a3 3 0 1 0 6 0 a3 3 0 1 0 -6 0zM807.62 26 a3 3 0 1 0 6 0 a3 3 0 1 0 -6 0zM807.62 52 a3 3 0 1 0 6 0 a3 3 0 1 0 -6 0zM785.11 65 a3 3 0 1 0 6 0 a3 3 0 1 0 -6 0zM785.11 91 a3 3 0 1 0 6 0 a3 3 0 1 0 -6 0zM807.62 104 a3 3 0 1 0 6 0 a3 3 0 1 0 -6 0zM807.62 130 a3 3 0 1 0 6 0 a3 3 0 1 0 -6 0zM785.11 143 a3 3 0 1 0 6 0 a3 3 0 1 0 -6 0zM785.11 169 a3 3 0 1 0 6 0 a3 3 0 1 0 -6 0zM807.62 182 a3 3 0 1 0 6 0 a3 3 0 1 0 -6 0zM807.62 208 a3 3 0 1 0 6 0 a3 3 0 1 0 -6 0zM785.11 221 a3 3 0 1 0 6 0 a3 3 0 1 0 -6 0zM785.11 247 a3 3 0 1 0 6 0 a3 3 0 1 0 -6 0zM807.62 260 a3 3 0 1 0 6 0 a3 3 0 1 0 -6 0zM807.62 286 a3 3 0 1 0 6 0 a3 3 0 1 0 -6 0zM785.11 299 a3 3 0 1 0 6 0 a3 3 0 1 0 -6 0zM785.11 325 a3 3 0 1 0 6 0 a3 3 0 1 0 -6 0zM807.62 338 a3 3 0 1 0 6 0 a3 3 0 1 0 -6 0zM807.62 364 a3 3 0 1 0 6 0 a3 3 0 1 0 -6 0zM785.11 377 a3 3 0 1 0 6 0 a3 3 0 1 0 -6 0zM785.11 403 a3 3 0 1 0 6 0 a3 3 0 1 0 -6 0zM807.62 416 a3 3 0 1 0 6 0 a3 3 0 1 0 -6 0zM807.62 442 a3 3 0 1 0 6 0 a3 3 0 1 0 -6 0zM785.11 455 a3 3 0 1 0 6 0 a3 3 0 1 0 -6 0zM785.11 481 a3 3 0 1 0 6 0 a3 3 0 1 0 -6 0zM807.62 494 a3 3 0 1 0 6 0 a3 3 0 1 0 -6 0zM807.62 520 a3 3 0 1 0 6 0 a3 3 0 1 0 -6 0zM785.11 533 a3 3 0 1 0 6 0 a3 3 0 1 0 -6 0zM785.11 559 a3 3 0 1 0 6 0 a3 3 0 1 0 -6 0zM762.59 572 a3 3 0 1 0 6 0 a3 3 0 1 0 -6 0zM807.62 -26 a3 3 0 1 0 6 0 a3 3 0 1 0 -6 0zM830.14 -13 a3 3 0 1 0 6 0 a3 3 0 1 0 -6 0zM830.14 13 a3 3 0 1 0 6 0 a3 3 0 1 0 -6 0zM852.66 26 a3 3 0 1 0 6 0 a3 3 0 1 0 -6 0zM852.66 52 a3 3 0 1 0 6 0 a3 3 0 1 0 -6 0zM830.14 65 a3 3 0 1 0 6 0 a3 3 0 1 0 -6 0zM830.14 91 a3 3 0 1 0 6 0 a3 3 0 1 0 -6 0zM852.66 104 a3 3 0 1 0 6 0 a3 3 0 1 0 -6 0zM852.66 130 a3 3 0 1 0 6 0 a3 3 0 1 0 -6 0zM830.14 143 a3 3 0 1 0 6 0 a3 3 0 1 0 -6 0zM830.14 169 a3 3 0 1 0 6 0 a3 3 0 1 0 -6 0zM852.66 182 a3 3 0 1 0 6 0 a3 3 0 1 0 -6 0zM852.66 208 a3 3 0 1 0 6 0 a3 3 0 1 0 -6 0zM830.14 221 a3 3 0 1 0 6 0 a3 3 0 1 0 -6 0zM830.14 247 a3 3 0 1 0 6 0 a3 3 0 1 0 -6 0zM852.66 260 a3 3 0 1 0 6 0 a3 3 0 1 0 -6 0zM852.66 286 a3 3 0 1 0 6 0 a3 3 0 1 0 -6 0zM830.14 299 a3 3 0 1 0 6 0 a3 3 0 1 0 -6 0zM830.14 325 a3 3 0 1 0 6 0 a3 3 0 1 0 -6 0zM852.66 338 a3 3 0 1 0 6 0 a3 3 0 1 0 -6 0zM852.66 364 a3 3 0 1 0 6 0 a3 3 0 1 0 -6 0zM830.14 377 a3 3 0 1 0 6 0 a3 3 0 1 0 -6 0zM830.14 403 a3 3 0 1 0 6 0 a3 3 0 1 0 -6 0zM852.66 416 a3 3 0 1 0 6 0 a3 3 0 1 0 -6 0zM852.66 442 a3 3 0 1 0 6 0 a3 3 0 1 0 -6 0zM830.14 455 a3 3 0 1 0 6 0 a3 3 0 1 0 -6 0zM830.14 481 a3 3 0 1 0 6 0 a3 3 0 1 0 -6 0zM852.66 494 a3 3 0 1 0 6 0 a3 3 0 1 0 -6 0zM852.66 520 a3 3 0 1 0 6 0 a3 3 0 1 0 -6 0zM830.14 533 a3 3 0 1 0 6 0 a3 3 0 1 0 -6 0zM830.14 559 a3 3 0 1 0 6 0 a3 3 0 1 0 -6 0zM807.62 572 a3 3 0 1 0 6 0 a3 3 0 1 0 -6 0zM852.66 -26 a3 3 0 1 0 6 0 a3 3 0 1 0 -6 0zM875.17 -13 a3 3 0 1 0 6 0 a3 3 0 1 0 -6 0zM875.17 13 a3 3 0 1 0 6 0 a3 3 0 1 0 -6 0zM897.69 26 a3 3 0 1 0 6 0 a3 3 0 1 0 -6 0zM897.69 52 a3 3 0 1 0 6 0 a3 3 0 1 0 -6 0zM875.17 65 a3 3 0 1 0 6 0 a3 3 0 1 0 -6 0zM875.17 91 a3 3 0 1 0 6 0 a3 3 0 1 0 -6 0zM897.69 104 a3 3 0 1 0 6 0 a3 3 0 1 0 -6 0zM897.69 130 a3 3 0 1 0 6 0 a3 3 0 1 0 -6 0zM875.17 143 a3 3 0 1 0 6 0 a3 3 0 1 0 -6 0zM875.17 169 a3 3 0 1 0 6 0 a3 3 0 1 0 -6 0zM897.69 182 a3 3 0 1 0 6 0 a3 3 0 1 0 -6 0zM897.69 208 a3 3 0 1 0 6 0 a3 3 0 1 0 -6 0zM875.17 221 a3 3 0 1 0 6 0 a3 3 0 1 0 -6 0zM875.17 247 a3 3 0 1 0 6 0 a3 3 0 1 0 -6 0zM897.69 260 a3 3 0 1 0 6 0 a3 3 0 1 0 -6 0zM897.69 286 a3 3 0 1 0 6 0 a3 3 0 1 0 -6 0zM875.17 299 a3 3 0 1 0 6 0 a3 3 0 1 0 -6 0zM875.17 325 a3 3 0 1 0 6 0 a3 3 0 1 0 -6 0zM897.69 338 a3 3 0 1 0 6 0 a3 3 0 1 0 -6 0zM897.69 364 a3 3 0 1 0 6 0 a3 3 0 1 0 -6 0zM875.17 377 a3 3 0 1 0 6 0 a3 3 0 1 0 -6 0zM875.17 403 a3 3 0 1 0 6 0 a3 3 0 1 0 -6 0zM897.69 416 a3 3 0 1 0 6 0 a3 3 0 1 0 -6 0zM897.69 442 a3 3 0 1 0 6 0 a3 3 0 1 0 -6 0zM875.17 455 a3 3 0 1 0 6 0 a3 3 0 1 0 -6 0zM875.17 481 a3 3 0 1 0 6 0 a3 3 0 1 0 -6 0zM897.69 494 a3 3 0 1 0 6 0 a3 3 0 1 0 -6 0zM897.69 520 a3 3 0 1 0 6 0 a3 3 0 1 0 -6 0zM875.17 533 a3 3 0 1 0 6 0 a3 3 0 1 0 -6 0zM875.17 559 a3 3 0 1 0 6 0 a3 3 0 1 0 -6 0zM852.66 572 a3 3 0 1 0 6 0 a3 3 0 1 0 -6 0zM897.69 -26 a3 3 0 1 0 6 0 a3 3 0 1 0 -6 0zM920.21 -13 a3 3 0 1 0 6 0 a3 3 0 1 0 -6 0zM920.21 13 a3 3 0 1 0 6 0 a3 3 0 1 0 -6 0zM942.73 26 a3 3 0 1 0 6 0 a3 3 0 1 0 -6 0zM942.73 52 a3 3 0 1 0 6 0 a3 3 0 1 0 -6 0zM920.21 65 a3 3 0 1 0 6 0 a3 3 0 1 0 -6 0zM920.21 91 a3 3 0 1 0 6 0 a3 3 0 1 0 -6 0zM942.73 104 a3 3 0 1 0 6 0 a3 3 0 1 0 -6 0zM942.73 130 a3 3 0 1 0 6 0 a3 3 0 1 0 -6 0zM920.21 143 a3 3 0 1 0 6 0 a3 3 0 1 0 -6 0zM920.21 169 a3 3 0 1 0 6 0 a3 3 0 1 0 -6 0zM942.73 182 a3 3 0 1 0 6 0 a3 3 0 1 0 -6 0zM942.73 208 a3 3 0 1 0 6 0 a3 3 0 1 0 -6 0zM920.21 221 a3 3 0 1 0 6 0 a3 3 0 1 0 -6 0zM920.21 247 a3 3 0 1 0 6 0 a3 3 0 1 0 -6 0zM942.73 260 a3 3 0 1 0 6 0 a3 3 0 1 0 -6 0zM942.73 286 a3 3 0 1 0 6 0 a3 3 0 1 0 -6 0zM920.21 299 a3 3 0 1 0 6 0 a3 3 0 1 0 -6 0zM920.21 325 a3 3 0 1 0 6 0 a3 3 0 1 0 -6 0zM942.73 338 a3 3 0 1 0 6 0 a3 3 0 1 0 -6 0zM942.73 364 a3 3 0 1 0 6 0 a3 3 0 1 0 -6 0zM920.21 377 a3 3 0 1 0 6 0 a3 3 0 1 0 -6 0zM920.21 403 a3 3 0 1 0 6 0 a3 3 0 1 0 -6 0zM942.73 416 a3 3 0 1 0 6 0 a3 3 0 1 0 -6 0zM942.73 442 a3 3 0 1 0 6 0 a3 3 0 1 0 -6 0zM920.21 455 a3 3 0 1 0 6 0 a3 3 0 1 0 -6 0zM920.21 481 a3 3 0 1 0 6 0 a3 3 0 1 0 -6 0zM942.73 494 a3 3 0 1 0 6 0 a3 3 0 1 0 -6 0zM942.73 520 a3 3 0 1 0 6 0 a3 3 0 1 0 -6 0zM920.21 533 a3 3 0 1 0 6 0 a3 3 0 1 0 -6 0zM920.21 559 a3 3 0 1 0 6 0 a3 3 0 1 0 -6 0zM897.69 572 a3 3 0 1 0 6 0 a3 3 0 1 0 -6 0zM942.73 -26 a3 3 0 1 0 6 0 a3 3 0 1 0 -6 0zM965.24 -13 a3 3 0 1 0 6 0 a3 3 0 1 0 -6 0zM965.24 13 a3 3 0 1 0 6 0 a3 3 0 1 0 -6 0zM987.76 26 a3 3 0 1 0 6 0 a3 3 0 1 0 -6 0zM987.76 52 a3 3 0 1 0 6 0 a3 3 0 1 0 -6 0zM965.24 65 a3 3 0 1 0 6 0 a3 3 0 1 0 -6 0zM965.24 91 a3 3 0 1 0 6 0 a3 3 0 1 0 -6 0zM987.76 104 a3 3 0 1 0 6 0 a3 3 0 1 0 -6 0zM987.76 130 a3 3 0 1 0 6 0 a3 3 0 1 0 -6 0zM965.24 143 a3 3 0 1 0 6 0 a3 3 0 1 0 -6 0zM965.24 169 a3 3 0 1 0 6 0 a3 3 0 1 0 -6 0zM987.76 182 a3 3 0 1 0 6 0 a3 3 0 1 0 -6 0zM987.76 208 a3 3 0 1 0 6 0 a3 3 0 1 0 -6 0zM965.24 221 a3 3 0 1 0 6 0 a3 3 0 1 0 -6 0zM965.24 247 a3 3 0 1 0 6 0 a3 3 0 1 0 -6 0zM987.76 260 a3 3 0 1 0 6 0 a3 3 0 1 0 -6 0zM987.76 286 a3 3 0 1 0 6 0 a3 3 0 1 0 -6 0zM965.24 299 a3 3 0 1 0 6 0 a3 3 0 1 0 -6 0zM965.24 325 a3 3 0 1 0 6 0 a3 3 0 1 0 -6 0zM987.76 338 a3 3 0 1 0 6 0 a3 3 0 1 0 -6 0zM987.76 364 a3 3 0 1 0 6 0 a3 3 0 1 0 -6 0zM965.24 377 a3 3 0 1 0 6 0 a3 3 0 1 0 -6 0zM965.24 403 a3 3 0 1 0 6 0 a3 3 0 1 0 -6 0zM987.76 416 a3 3 0 1 0 6 0 a3 3 0 1 0 -6 0zM987.76 442 a3 3 0 1 0 6 0 a3 3 0 1 0 -6 0zM965.24 455 a3 3 0 1 0 6 0 a3 3 0 1 0 -6 0zM965.24 481 a3 3 0 1 0 6 0 a3 3 0 1 0 -6 0zM987.76 494 a3 3 0 1 0 6 0 a3 3 0 1 0 -6 0zM987.76 520 a3 3 0 1 0 6 0 a3 3 0 1 0 -6 0zM965.24 533 a3 3 0 1 0 6 0 a3 3 0 1 0 -6 0zM965.24 559 a3 3 0 1 0 6 0 a3 3 0 1 0 -6 0zM942.73 572 a3 3 0 1 0 6 0 a3 3 0 1 0 -6 0zM987.76 -26 a3 3 0 1 0 6 0 a3 3 0 1 0 -6 0zM1010.28 -13 a3 3 0 1 0 6 0 a3 3 0 1 0 -6 0zM1010.28 13 a3 3 0 1 0 6 0 a3 3 0 1 0 -6 0zM1032.8 26 a3 3 0 1 0 6 0 a3 3 0 1 0 -6 0zM1032.8 52 a3 3 0 1 0 6 0 a3 3 0 1 0 -6 0zM1010.28 65 a3 3 0 1 0 6 0 a3 3 0 1 0 -6 0zM1010.28 91 a3 3 0 1 0 6 0 a3 3 0 1 0 -6 0zM1032.8 104 a3 3 0 1 0 6 0 a3 3 0 1 0 -6 0zM1032.8 130 a3 3 0 1 0 6 0 a3 3 0 1 0 -6 0zM1010.28 143 a3 3 0 1 0 6 0 a3 3 0 1 0 -6 0zM1010.28 169 a3 3 0 1 0 6 0 a3 3 0 1 0 -6 0zM1032.8 182 a3 3 0 1 0 6 0 a3 3 0 1 0 -6 0zM1032.8 208 a3 3 0 1 0 6 0 a3 3 0 1 0 -6 0zM1010.28 221 a3 3 0 1 0 6 0 a3 3 0 1 0 -6 0zM1010.28 247 a3 3 0 1 0 6 0 a3 3 0 1 0 -6 0zM1032.8 260 a3 3 0 1 0 6 0 a3 3 0 1 0 -6 0zM1032.8 286 a3 3 0 1 0 6 0 a3 3 0 1 0 -6 0zM1010.28 299 a3 3 0 1 0 6 0 a3 3 0 1 0 -6 0zM1010.28 325 a3 3 0 1 0 6 0 a3 3 0 1 0 -6 0zM1032.8 338 a3 3 0 1 0 6 0 a3 3 0 1 0 -6 0zM1032.8 364 a3 3 0 1 0 6 0 a3 3 0 1 0 -6 0zM1010.28 377 a3 3 0 1 0 6 0 a3 3 0 1 0 -6 0zM1010.28 403 a3 3 0 1 0 6 0 a3 3 0 1 0 -6 0zM1032.8 416 a3 3 0 1 0 6 0 a3 3 0 1 0 -6 0zM1032.8 442 a3 3 0 1 0 6 0 a3 3 0 1 0 -6 0zM1010.28 455 a3 3 0 1 0 6 0 a3 3 0 1 0 -6 0zM1010.28 481 a3 3 0 1 0 6 0 a3 3 0 1 0 -6 0zM1032.8 494 a3 3 0 1 0 6 0 a3 3 0 1 0 -6 0zM1032.8 520 a3 3 0 1 0 6 0 a3 3 0 1 0 -6 0zM1010.28 533 a3 3 0 1 0 6 0 a3 3 0 1 0 -6 0zM1010.28 559 a3 3 0 1 0 6 0 a3 3 0 1 0 -6 0zM987.76 572 a3 3 0 1 0 6 0 a3 3 0 1 0 -6 0zM1032.8 -26 a3 3 0 1 0 6 0 a3 3 0 1 0 -6 0zM1055.31 -13 a3 3 0 1 0 6 0 a3 3 0 1 0 -6 0zM1055.31 13 a3 3 0 1 0 6 0 a3 3 0 1 0 -6 0zM1077.83 26 a3 3 0 1 0 6 0 a3 3 0 1 0 -6 0zM1077.83 52 a3 3 0 1 0 6 0 a3 3 0 1 0 -6 0zM1055.31 65 a3 3 0 1 0 6 0 a3 3 0 1 0 -6 0zM1055.31 91 a3 3 0 1 0 6 0 a3 3 0 1 0 -6 0zM1077.83 104 a3 3 0 1 0 6 0 a3 3 0 1 0 -6 0zM1077.83 130 a3 3 0 1 0 6 0 a3 3 0 1 0 -6 0zM1055.31 143 a3 3 0 1 0 6 0 a3 3 0 1 0 -6 0zM1055.31 169 a3 3 0 1 0 6 0 a3 3 0 1 0 -6 0zM1077.83 182 a3 3 0 1 0 6 0 a3 3 0 1 0 -6 0zM1077.83 208 a3 3 0 1 0 6 0 a3 3 0 1 0 -6 0zM1055.31 221 a3 3 0 1 0 6 0 a3 3 0 1 0 -6 0zM1055.31 247 a3 3 0 1 0 6 0 a3 3 0 1 0 -6 0zM1077.83 260 a3 3 0 1 0 6 0 a3 3 0 1 0 -6 0zM1077.83 286 a3 3 0 1 0 6 0 a3 3 0 1 0 -6 0zM1055.31 299 a3 3 0 1 0 6 0 a3 3 0 1 0 -6 0zM1055.31 325 a3 3 0 1 0 6 0 a3 3 0 1 0 -6 0zM1077.83 338 a3 3 0 1 0 6 0 a3 3 0 1 0 -6 0zM1077.83 364 a3 3 0 1 0 6 0 a3 3 0 1 0 -6 0zM1055.31 377 a3 3 0 1 0 6 0 a3 3 0 1 0 -6 0zM1055.31 403 a3 3 0 1 0 6 0 a3 3 0 1 0 -6 0zM1077.83 416 a3 3 0 1 0 6 0 a3 3 0 1 0 -6 0zM1077.83 442 a3 3 0 1 0 6 0 a3 3 0 1 0 -6 0zM1055.31 455 a3 3 0 1 0 6 0 a3 3 0 1 0 -6 0zM1055.31 481 a3 3 0 1 0 6 0 a3 3 0 1 0 -6 0zM1077.83 494 a3 3 0 1 0 6 0 a3 3 0 1 0 -6 0zM1077.83 520 a3 3 0 1 0 6 0 a3 3 0 1 0 -6 0zM1055.31 533 a3 3 0 1 0 6 0 a3 3 0 1 0 -6 0zM1055.31 559 a3 3 0 1 0 6 0 a3 3 0 1 0 -6 0zM1032.8 572 a3 3 0 1 0 6 0 a3 3 0 1 0 -6 0zM1077.83 -26 a3 3 0 1 0 6 0 a3 3 0 1 0 -6 0zM1100.35 -13 a3 3 0 1 0 6 0 a3 3 0 1 0 -6 0zM1100.35 13 a3 3 0 1 0 6 0 a3 3 0 1 0 -6 0zM1122.86 26 a3 3 0 1 0 6 0 a3 3 0 1 0 -6 0zM1122.86 52 a3 3 0 1 0 6 0 a3 3 0 1 0 -6 0zM1100.35 65 a3 3 0 1 0 6 0 a3 3 0 1 0 -6 0zM1100.35 91 a3 3 0 1 0 6 0 a3 3 0 1 0 -6 0zM1122.86 104 a3 3 0 1 0 6 0 a3 3 0 1 0 -6 0zM1122.86 130 a3 3 0 1 0 6 0 a3 3 0 1 0 -6 0zM1100.35 143 a3 3 0 1 0 6 0 a3 3 0 1 0 -6 0zM1100.35 169 a3 3 0 1 0 6 0 a3 3 0 1 0 -6 0zM1122.86 182 a3 3 0 1 0 6 0 a3 3 0 1 0 -6 0zM1122.86 208 a3 3 0 1 0 6 0 a3 3 0 1 0 -6 0zM1100.35 221 a3 3 0 1 0 6 0 a3 3 0 1 0 -6 0zM1100.35 247 a3 3 0 1 0 6 0 a3 3 0 1 0 -6 0zM1122.86 260 a3 3 0 1 0 6 0 a3 3 0 1 0 -6 0zM1122.86 286 a3 3 0 1 0 6 0 a3 3 0 1 0 -6 0zM1100.35 299 a3 3 0 1 0 6 0 a3 3 0 1 0 -6 0zM1100.35 325 a3 3 0 1 0 6 0 a3 3 0 1 0 -6 0zM1122.86 338 a3 3 0 1 0 6 0 a3 3 0 1 0 -6 0zM1122.86 364 a3 3 0 1 0 6 0 a3 3 0 1 0 -6 0zM1100.35 377 a3 3 0 1 0 6 0 a3 3 0 1 0 -6 0zM1100.35 403 a3 3 0 1 0 6 0 a3 3 0 1 0 -6 0zM1122.86 416 a3 3 0 1 0 6 0 a3 3 0 1 0 -6 0zM1122.86 442 a3 3 0 1 0 6 0 a3 3 0 1 0 -6 0zM1100.35 455 a3 3 0 1 0 6 0 a3 3 0 1 0 -6 0zM1100.35 481 a3 3 0 1 0 6 0 a3 3 0 1 0 -6 0zM1122.86 494 a3 3 0 1 0 6 0 a3 3 0 1 0 -6 0zM1122.86 520 a3 3 0 1 0 6 0 a3 3 0 1 0 -6 0zM1100.35 533 a3 3 0 1 0 6 0 a3 3 0 1 0 -6 0zM1100.35 559 a3 3 0 1 0 6 0 a3 3 0 1 0 -6 0zM1077.83 572 a3 3 0 1 0 6 0 a3 3 0 1 0 -6 0zM1122.87 -26 a3 3 0 1 0 6 0 a3 3 0 1 0 -6 0zM1145.38 -13 a3 3 0 1 0 6 0 a3 3 0 1 0 -6 0zM1145.38 13 a3 3 0 1 0 6 0 a3 3 0 1 0 -6 0zM1122.87 26 a3 3 0 1 0 6 0 a3 3 0 1 0 -6 0zM1167.9 26 a3 3 0 1 0 6 0 a3 3 0 1 0 -6 0zM1167.9 52 a3 3 0 1 0 6 0 a3 3 0 1 0 -6 0zM1145.38 65 a3 3 0 1 0 6 0 a3 3 0 1 0 -6 0zM1122.87 52 a3 3 0 1 0 6 0 a3 3 0 1 0 -6 0zM1145.38 91 a3 3 0 1 0 6 0 a3 3 0 1 0 -6 0zM1122.87 104 a3 3 0 1 0 6 0 a3 3 0 1 0 -6 0zM1167.9 104 a3 3 0 1 0 6 0 a3 3 0 1 0 -6 0zM1167.9 130 a3 3 0 1 0 6 0 a3 3 0 1 0 -6 0zM1145.38 143 a3 3 0 1 0 6 0 a3 3 0 1 0 -6 0zM1122.87 130 a3 3 0 1 0 6 0 a3 3 0 1 0 -6 0zM1145.38 169 a3 3 0 1 0 6 0 a3 3 0 1 0 -6 0zM1122.87 182 a3 3 0 1 0 6 0 a3 3 0 1 0 -6 0zM1167.9 182 a3 3 0 1 0 6 0 a3 3 0 1 0 -6 0zM1167.9 208 a3 3 0 1 0 6 0 a3 3 0 1 0 -6 0zM1145.38 221 a3 3 0 1 0 6 0 a3 3 0 1 0 -6 0zM1122.87 208 a3 3 0 1 0 6 0 a3 3 0 1 0 -6 0zM1145.38 247 a3 3 0 1 0 6 0 a3 3 0 1 0 -6 0zM1122.87 260 a3 3 0 1 0 6 0 a3 3 0 1 0 -6 0zM1167.9 260 a3 3 0 1 0 6 0 a3 3 0 1 0 -6 0zM1167.9 286 a3 3 0 1 0 6 0 a3 3 0 1 0 -6 0zM1145.38 299 a3 3 0 1 0 6 0 a3 3 0 1 0 -6 0zM1122.87 286 a3 3 0 1 0 6 0 a3 3 0 1 0 -6 0zM1145.38 325 a3 3 0 1 0 6 0 a3 3 0 1 0 -6 0zM1122.87 338 a3 3 0 1 0 6 0 a3 3 0 1 0 -6 0zM1167.9 338 a3 3 0 1 0 6 0 a3 3 0 1 0 -6 0zM1167.9 364 a3 3 0 1 0 6 0 a3 3 0 1 0 -6 0zM1145.38 377 a3 3 0 1 0 6 0 a3 3 0 1 0 -6 0zM1122.87 364 a3 3 0 1 0 6 0 a3 3 0 1 0 -6 0zM1145.38 403 a3 3 0 1 0 6 0 a3 3 0 1 0 -6 0zM1122.87 416 a3 3 0 1 0 6 0 a3 3 0 1 0 -6 0zM1167.9 416 a3 3 0 1 0 6 0 a3 3 0 1 0 -6 0zM1167.9 442 a3 3 0 1 0 6 0 a3 3 0 1 0 -6 0zM1145.38 455 a3 3 0 1 0 6 0 a3 3 0 1 0 -6 0zM1122.87 442 a3 3 0 1 0 6 0 a3 3 0 1 0 -6 0zM1145.38 481 a3 3 0 1 0 6 0 a3 3 0 1 0 -6 0zM1122.87 494 a3 3 0 1 0 6 0 a3 3 0 1 0 -6 0zM1167.9 494 a3 3 0 1 0 6 0 a3 3 0 1 0 -6 0zM1167.9 520 a3 3 0 1 0 6 0 a3 3 0 1 0 -6 0zM1145.38 533 a3 3 0 1 0 6 0 a3 3 0 1 0 -6 0zM1122.87 520 a3 3 0 1 0 6 0 a3 3 0 1 0 -6 0zM1145.38 559 a3 3 0 1 0 6 0 a3 3 0 1 0 -6 0zM1122.87 572 a3 3 0 1 0 6 0 a3 3 0 1 0 -6 0zM1167.9 -26 a3 3 0 1 0 6 0 a3 3 0 1 0 -6 0zM1190.42 -13 a3 3 0 1 0 6 0 a3 3 0 1 0 -6 0zM1190.42 13 a3 3 0 1 0 6 0 a3 3 0 1 0 -6 0zM1212.93 26 a3 3 0 1 0 6 0 a3 3 0 1 0 -6 0zM1212.93 52 a3 3 0 1 0 6 0 a3 3 0 1 0 -6 0zM1190.42 65 a3 3 0 1 0 6 0 a3 3 0 1 0 -6 0zM1190.42 91 a3 3 0 1 0 6 0 a3 3 0 1 0 -6 0zM1212.93 104 a3 3 0 1 0 6 0 a3 3 0 1 0 -6 0zM1212.93 130 a3 3 0 1 0 6 0 a3 3 0 1 0 -6 0zM1190.42 143 a3 3 0 1 0 6 0 a3 3 0 1 0 -6 0zM1190.42 169 a3 3 0 1 0 6 0 a3 3 0 1 0 -6 0zM1212.93 182 a3 3 0 1 0 6 0 a3 3 0 1 0 -6 0zM1212.93 208 a3 3 0 1 0 6 0 a3 3 0 1 0 -6 0zM1190.42 221 a3 3 0 1 0 6 0 a3 3 0 1 0 -6 0zM1190.42 247 a3 3 0 1 0 6 0 a3 3 0 1 0 -6 0zM1212.93 260 a3 3 0 1 0 6 0 a3 3 0 1 0 -6 0zM1212.93 286 a3 3 0 1 0 6 0 a3 3 0 1 0 -6 0zM1190.42 299 a3 3 0 1 0 6 0 a3 3 0 1 0 -6 0zM1190.42 325 a3 3 0 1 0 6 0 a3 3 0 1 0 -6 0zM1212.93 338 a3 3 0 1 0 6 0 a3 3 0 1 0 -6 0zM1212.93 364 a3 3 0 1 0 6 0 a3 3 0 1 0 -6 0zM1190.42 377 a3 3 0 1 0 6 0 a3 3 0 1 0 -6 0zM1190.42 403 a3 3 0 1 0 6 0 a3 3 0 1 0 -6 0zM1212.93 416 a3 3 0 1 0 6 0 a3 3 0 1 0 -6 0zM1212.93 442 a3 3 0 1 0 6 0 a3 3 0 1 0 -6 0zM1190.42 455 a3 3 0 1 0 6 0 a3 3 0 1 0 -6 0zM1190.42 481 a3 3 0 1 0 6 0 a3 3 0 1 0 -6 0zM1212.93 494 a3 3 0 1 0 6 0 a3 3 0 1 0 -6 0zM1212.93 520 a3 3 0 1 0 6 0 a3 3 0 1 0 -6 0zM1190.42 533 a3 3 0 1 0 6 0 a3 3 0 1 0 -6 0zM1190.42 559 a3 3 0 1 0 6 0 a3 3 0 1 0 -6 0zM1167.9 572 a3 3 0 1 0 6 0 a3 3 0 1 0 -6 0zM1212.93 -26 a3 3 0 1 0 6 0 a3 3 0 1 0 -6 0zM1235.45 -13 a3 3 0 1 0 6 0 a3 3 0 1 0 -6 0zM1235.45 13 a3 3 0 1 0 6 0 a3 3 0 1 0 -6 0zM1257.97 26 a3 3 0 1 0 6 0 a3 3 0 1 0 -6 0zM1257.97 52 a3 3 0 1 0 6 0 a3 3 0 1 0 -6 0zM1235.45 65 a3 3 0 1 0 6 0 a3 3 0 1 0 -6 0zM1235.45 91 a3 3 0 1 0 6 0 a3 3 0 1 0 -6 0zM1257.97 104 a3 3 0 1 0 6 0 a3 3 0 1 0 -6 0zM1257.97 130 a3 3 0 1 0 6 0 a3 3 0 1 0 -6 0zM1235.45 143 a3 3 0 1 0 6 0 a3 3 0 1 0 -6 0zM1235.45 169 a3 3 0 1 0 6 0 a3 3 0 1 0 -6 0zM1257.97 182 a3 3 0 1 0 6 0 a3 3 0 1 0 -6 0zM1257.97 208 a3 3 0 1 0 6 0 a3 3 0 1 0 -6 0zM1235.45 221 a3 3 0 1 0 6 0 a3 3 0 1 0 -6 0zM1235.45 247 a3 3 0 1 0 6 0 a3 3 0 1 0 -6 0zM1257.97 260 a3 3 0 1 0 6 0 a3 3 0 1 0 -6 0zM1257.97 286 a3 3 0 1 0 6 0 a3 3 0 1 0 -6 0zM1235.45 299 a3 3 0 1 0 6 0 a3 3 0 1 0 -6 0zM1235.45 325 a3 3 0 1 0 6 0 a3 3 0 1 0 -6 0zM1257.97 338 a3 3 0 1 0 6 0 a3 3 0 1 0 -6 0zM1257.97 364 a3 3 0 1 0 6 0 a3 3 0 1 0 -6 0zM1235.45 377 a3 3 0 1 0 6 0 a3 3 0 1 0 -6 0zM1235.45 403 a3 3 0 1 0 6 0 a3 3 0 1 0 -6 0zM1257.97 416 a3 3 0 1 0 6 0 a3 3 0 1 0 -6 0zM1257.97 442 a3 3 0 1 0 6 0 a3 3 0 1 0 -6 0zM1235.45 455 a3 3 0 1 0 6 0 a3 3 0 1 0 -6 0zM1235.45 481 a3 3 0 1 0 6 0 a3 3 0 1 0 -6 0zM1257.97 494 a3 3 0 1 0 6 0 a3 3 0 1 0 -6 0zM1257.97 520 a3 3 0 1 0 6 0 a3 3 0 1 0 -6 0zM1235.45 533 a3 3 0 1 0 6 0 a3 3 0 1 0 -6 0zM1235.45 559 a3 3 0 1 0 6 0 a3 3 0 1 0 -6 0zM1212.93 572 a3 3 0 1 0 6 0 a3 3 0 1 0 -6 0zM1257.97 -26 a3 3 0 1 0 6 0 a3 3 0 1 0 -6 0zM1280.49 -13 a3 3 0 1 0 6 0 a3 3 0 1 0 -6 0zM1280.49 13 a3 3 0 1 0 6 0 a3 3 0 1 0 -6 0zM1303 26 a3 3 0 1 0 6 0 a3 3 0 1 0 -6 0zM1303 52 a3 3 0 1 0 6 0 a3 3 0 1 0 -6 0zM1280.49 65 a3 3 0 1 0 6 0 a3 3 0 1 0 -6 0zM1280.49 91 a3 3 0 1 0 6 0 a3 3 0 1 0 -6 0zM1303 104 a3 3 0 1 0 6 0 a3 3 0 1 0 -6 0zM1303 130 a3 3 0 1 0 6 0 a3 3 0 1 0 -6 0zM1280.49 143 a3 3 0 1 0 6 0 a3 3 0 1 0 -6 0zM1280.49 169 a3 3 0 1 0 6 0 a3 3 0 1 0 -6 0zM1303 182 a3 3 0 1 0 6 0 a3 3 0 1 0 -6 0zM1303 208 a3 3 0 1 0 6 0 a3 3 0 1 0 -6 0zM1280.49 221 a3 3 0 1 0 6 0 a3 3 0 1 0 -6 0zM1280.49 247 a3 3 0 1 0 6 0 a3 3 0 1 0 -6 0zM1303 260 a3 3 0 1 0 6 0 a3 3 0 1 0 -6 0zM1303 286 a3 3 0 1 0 6 0 a3 3 0 1 0 -6 0zM1280.49 299 a3 3 0 1 0 6 0 a3 3 0 1 0 -6 0zM1280.49 325 a3 3 0 1 0 6 0 a3 3 0 1 0 -6 0zM1303 338 a3 3 0 1 0 6 0 a3 3 0 1 0 -6 0zM1303 364 a3 3 0 1 0 6 0 a3 3 0 1 0 -6 0zM1280.49 377 a3 3 0 1 0 6 0 a3 3 0 1 0 -6 0zM1280.49 403 a3 3 0 1 0 6 0 a3 3 0 1 0 -6 0zM1303 416 a3 3 0 1 0 6 0 a3 3 0 1 0 -6 0zM1303 442 a3 3 0 1 0 6 0 a3 3 0 1 0 -6 0zM1280.49 455 a3 3 0 1 0 6 0 a3 3 0 1 0 -6 0zM1280.49 481 a3 3 0 1 0 6 0 a3 3 0 1 0 -6 0zM1303 494 a3 3 0 1 0 6 0 a3 3 0 1 0 -6 0zM1303 520 a3 3 0 1 0 6 0 a3 3 0 1 0 -6 0zM1280.49 533 a3 3 0 1 0 6 0 a3 3 0 1 0 -6 0zM1280.49 559 a3 3 0 1 0 6 0 a3 3 0 1 0 -6 0zM1257.97 572 a3 3 0 1 0 6 0 a3 3 0 1 0 -6 0zM1303 -26 a3 3 0 1 0 6 0 a3 3 0 1 0 -6 0zM1325.52 -13 a3 3 0 1 0 6 0 a3 3 0 1 0 -6 0zM1325.52 13 a3 3 0 1 0 6 0 a3 3 0 1 0 -6 0zM1348.04 26 a3 3 0 1 0 6 0 a3 3 0 1 0 -6 0zM1348.04 52 a3 3 0 1 0 6 0 a3 3 0 1 0 -6 0zM1325.52 65 a3 3 0 1 0 6 0 a3 3 0 1 0 -6 0zM1325.52 91 a3 3 0 1 0 6 0 a3 3 0 1 0 -6 0zM1348.04 104 a3 3 0 1 0 6 0 a3 3 0 1 0 -6 0zM1348.04 130 a3 3 0 1 0 6 0 a3 3 0 1 0 -6 0zM1325.52 143 a3 3 0 1 0 6 0 a3 3 0 1 0 -6 0zM1325.52 169 a3 3 0 1 0 6 0 a3 3 0 1 0 -6 0zM1348.04 182 a3 3 0 1 0 6 0 a3 3 0 1 0 -6 0zM1348.04 208 a3 3 0 1 0 6 0 a3 3 0 1 0 -6 0zM1325.52 221 a3 3 0 1 0 6 0 a3 3 0 1 0 -6 0zM1325.52 247 a3 3 0 1 0 6 0 a3 3 0 1 0 -6 0zM1348.04 260 a3 3 0 1 0 6 0 a3 3 0 1 0 -6 0zM1348.04 286 a3 3 0 1 0 6 0 a3 3 0 1 0 -6 0zM1325.52 299 a3 3 0 1 0 6 0 a3 3 0 1 0 -6 0zM1325.52 325 a3 3 0 1 0 6 0 a3 3 0 1 0 -6 0zM1348.04 338 a3 3 0 1 0 6 0 a3 3 0 1 0 -6 0zM1348.04 364 a3 3 0 1 0 6 0 a3 3 0 1 0 -6 0zM1325.52 377 a3 3 0 1 0 6 0 a3 3 0 1 0 -6 0zM1325.52 403 a3 3 0 1 0 6 0 a3 3 0 1 0 -6 0zM1348.04 416 a3 3 0 1 0 6 0 a3 3 0 1 0 -6 0zM1348.04 442 a3 3 0 1 0 6 0 a3 3 0 1 0 -6 0zM1325.52 455 a3 3 0 1 0 6 0 a3 3 0 1 0 -6 0zM1325.52 481 a3 3 0 1 0 6 0 a3 3 0 1 0 -6 0zM1348.04 494 a3 3 0 1 0 6 0 a3 3 0 1 0 -6 0zM1348.04 520 a3 3 0 1 0 6 0 a3 3 0 1 0 -6 0zM1325.52 533 a3 3 0 1 0 6 0 a3 3 0 1 0 -6 0zM1325.52 559 a3 3 0 1 0 6 0 a3 3 0 1 0 -6 0zM1303 572 a3 3 0 1 0 6 0 a3 3 0 1 0 -6 0zM1348.04 -26 a3 3 0 1 0 6 0 a3 3 0 1 0 -6 0zM1370.56 -13 a3 3 0 1 0 6 0 a3 3 0 1 0 -6 0zM1370.56 13 a3 3 0 1 0 6 0 a3 3 0 1 0 -6 0zM1393.07 26 a3 3 0 1 0 6 0 a3 3 0 1 0 -6 0zM1393.07 52 a3 3 0 1 0 6 0 a3 3 0 1 0 -6 0zM1370.56 65 a3 3 0 1 0 6 0 a3 3 0 1 0 -6 0zM1370.56 91 a3 3 0 1 0 6 0 a3 3 0 1 0 -6 0zM1393.07 104 a3 3 0 1 0 6 0 a3 3 0 1 0 -6 0zM1393.07 130 a3 3 0 1 0 6 0 a3 3 0 1 0 -6 0zM1370.56 143 a3 3 0 1 0 6 0 a3 3 0 1 0 -6 0zM1370.56 169 a3 3 0 1 0 6 0 a3 3 0 1 0 -6 0zM1393.07 182 a3 3 0 1 0 6 0 a3 3 0 1 0 -6 0zM1393.07 208 a3 3 0 1 0 6 0 a3 3 0 1 0 -6 0zM1370.56 221 a3 3 0 1 0 6 0 a3 3 0 1 0 -6 0zM1370.56 247 a3 3 0 1 0 6 0 a3 3 0 1 0 -6 0zM1393.07 260 a3 3 0 1 0 6 0 a3 3 0 1 0 -6 0zM1393.07 286 a3 3 0 1 0 6 0 a3 3 0 1 0 -6 0zM1370.56 299 a3 3 0 1 0 6 0 a3 3 0 1 0 -6 0zM1370.56 325 a3 3 0 1 0 6 0 a3 3 0 1 0 -6 0zM1393.07 338 a3 3 0 1 0 6 0 a3 3 0 1 0 -6 0zM1393.07 364 a3 3 0 1 0 6 0 a3 3 0 1 0 -6 0zM1370.56 377 a3 3 0 1 0 6 0 a3 3 0 1 0 -6 0zM1370.56 403 a3 3 0 1 0 6 0 a3 3 0 1 0 -6 0zM1393.07 416 a3 3 0 1 0 6 0 a3 3 0 1 0 -6 0zM1393.07 442 a3 3 0 1 0 6 0 a3 3 0 1 0 -6 0zM1370.56 455 a3 3 0 1 0 6 0 a3 3 0 1 0 -6 0zM1370.56 481 a3 3 0 1 0 6 0 a3 3 0 1 0 -6 0zM1393.07 494 a3 3 0 1 0 6 0 a3 3 0 1 0 -6 0zM1393.07 520 a3 3 0 1 0 6 0 a3 3 0 1 0 -6 0zM1370.56 533 a3 3 0 1 0 6 0 a3 3 0 1 0 -6 0zM1370.56 559 a3 3 0 1 0 6 0 a3 3 0 1 0 -6 0zM1348.04 572 a3 3 0 1 0 6 0 a3 3 0 1 0 -6 0zM1393.07 -26 a3 3 0 1 0 6 0 a3 3 0 1 0 -6 0zM1415.59 -13 a3 3 0 1 0 6 0 a3 3 0 1 0 -6 0zM1415.59 13 a3 3 0 1 0 6 0 a3 3 0 1 0 -6 0zM1438.11 26 a3 3 0 1 0 6 0 a3 3 0 1 0 -6 0zM1438.11 52 a3 3 0 1 0 6 0 a3 3 0 1 0 -6 0zM1415.59 65 a3 3 0 1 0 6 0 a3 3 0 1 0 -6 0zM1415.59 91 a3 3 0 1 0 6 0 a3 3 0 1 0 -6 0zM1438.11 104 a3 3 0 1 0 6 0 a3 3 0 1 0 -6 0zM1438.11 130 a3 3 0 1 0 6 0 a3 3 0 1 0 -6 0zM1415.59 143 a3 3 0 1 0 6 0 a3 3 0 1 0 -6 0zM1415.59 169 a3 3 0 1 0 6 0 a3 3 0 1 0 -6 0zM1438.11 182 a3 3 0 1 0 6 0 a3 3 0 1 0 -6 0zM1438.11 208 a3 3 0 1 0 6 0 a3 3 0 1 0 -6 0zM1415.59 221 a3 3 0 1 0 6 0 a3 3 0 1 0 -6 0zM1415.59 247 a3 3 0 1 0 6 0 a3 3 0 1 0 -6 0zM1438.11 260 a3 3 0 1 0 6 0 a3 3 0 1 0 -6 0zM1438.11 286 a3 3 0 1 0 6 0 a3 3 0 1 0 -6 0zM1415.59 299 a3 3 0 1 0 6 0 a3 3 0 1 0 -6 0zM1415.59 325 a3 3 0 1 0 6 0 a3 3 0 1 0 -6 0zM1438.11 338 a3 3 0 1 0 6 0 a3 3 0 1 0 -6 0zM1438.11 364 a3 3 0 1 0 6 0 a3 3 0 1 0 -6 0zM1415.59 377 a3 3 0 1 0 6 0 a3 3 0 1 0 -6 0zM1415.59 403 a3 3 0 1 0 6 0 a3 3 0 1 0 -6 0zM1438.11 416 a3 3 0 1 0 6 0 a3 3 0 1 0 -6 0zM1438.11 442 a3 3 0 1 0 6 0 a3 3 0 1 0 -6 0zM1415.59 455 a3 3 0 1 0 6 0 a3 3 0 1 0 -6 0zM1415.59 481 a3 3 0 1 0 6 0 a3 3 0 1 0 -6 0zM1438.11 494 a3 3 0 1 0 6 0 a3 3 0 1 0 -6 0zM1438.11 520 a3 3 0 1 0 6 0 a3 3 0 1 0 -6 0zM1415.59 533 a3 3 0 1 0 6 0 a3 3 0 1 0 -6 0zM1415.59 559 a3 3 0 1 0 6 0 a3 3 0 1 0 -6 0zM1393.07 572 a3 3 0 1 0 6 0 a3 3 0 1 0 -6 0zM1438.11 -26 a3 3 0 1 0 6 0 a3 3 0 1 0 -6 0zM1460.62 -13 a3 3 0 1 0 6 0 a3 3 0 1 0 -6 0zM1460.62 13 a3 3 0 1 0 6 0 a3 3 0 1 0 -6 0zM1483.14 26 a3 3 0 1 0 6 0 a3 3 0 1 0 -6 0zM1483.14 52 a3 3 0 1 0 6 0 a3 3 0 1 0 -6 0zM1460.62 65 a3 3 0 1 0 6 0 a3 3 0 1 0 -6 0zM1460.62 91 a3 3 0 1 0 6 0 a3 3 0 1 0 -6 0zM1483.14 104 a3 3 0 1 0 6 0 a3 3 0 1 0 -6 0zM1483.14 130 a3 3 0 1 0 6 0 a3 3 0 1 0 -6 0zM1460.62 143 a3 3 0 1 0 6 0 a3 3 0 1 0 -6 0zM1460.62 169 a3 3 0 1 0 6 0 a3 3 0 1 0 -6 0zM1483.14 182 a3 3 0 1 0 6 0 a3 3 0 1 0 -6 0zM1483.14 208 a3 3 0 1 0 6 0 a3 3 0 1 0 -6 0zM1460.62 221 a3 3 0 1 0 6 0 a3 3 0 1 0 -6 0zM1460.62 247 a3 3 0 1 0 6 0 a3 3 0 1 0 -6 0zM1483.14 260 a3 3 0 1 0 6 0 a3 3 0 1 0 -6 0zM1483.14 286 a3 3 0 1 0 6 0 a3 3 0 1 0 -6 0zM1460.62 299 a3 3 0 1 0 6 0 a3 3 0 1 0 -6 0zM1460.62 325 a3 3 0 1 0 6 0 a3 3 0 1 0 -6 0zM1483.14 338 a3 3 0 1 0 6 0 a3 3 0 1 0 -6 0zM1483.14 364 a3 3 0 1 0 6 0 a3 3 0 1 0 -6 0zM1460.62 377 a3 3 0 1 0 6 0 a3 3 0 1 0 -6 0zM1460.62 403 a3 3 0 1 0 6 0 a3 3 0 1 0 -6 0zM1483.14 416 a3 3 0 1 0 6 0 a3 3 0 1 0 -6 0zM1483.14 442 a3 3 0 1 0 6 0 a3 3 0 1 0 -6 0zM1460.62 455 a3 3 0 1 0 6 0 a3 3 0 1 0 -6 0zM1460.62 481 a3 3 0 1 0 6 0 a3 3 0 1 0 -6 0zM1483.14 494 a3 3 0 1 0 6 0 a3 3 0 1 0 -6 0zM1483.14 520 a3 3 0 1 0 6 0 a3 3 0 1 0 -6 0zM1460.62 533 a3 3 0 1 0 6 0 a3 3 0 1 0 -6 0zM1460.62 559 a3 3 0 1 0 6 0 a3 3 0 1 0 -6 0zM1438.11 572 a3 3 0 1 0 6 0 a3 3 0 1 0 -6 0z" fill="rgba(10, 53, 173, 1)"></path></g><defs><mask id="SvgjsMask1027"><rect width="1461" height="560" fill="#ffffff"></rect></mask></defs></svg>